<svg width="344" height="256" viewBox="0 0 344 256" fill="none" xmlns="http://www.w3.org/2000/svg">
<path d="M343.569 224.969H0V225.14H343.569V224.969Z" fill="#EBEBEB"/>
<path d="M309.144 236.025H286.386V236.196H309.144V236.025Z" fill="#EBEBEB"/>
<path d="M227.593 237.894H221.622V238.066H227.593V237.894Z" fill="#EBEBEB"/>
<path d="M285.699 229.648H272.513V229.82H285.699V229.648Z" fill="#EBEBEB"/>
<path d="M65.7243 230.802H36.0469V230.974H65.7243V230.802Z" fill="#EBEBEB"/>
<path d="M76.1972 230.802H71.8477V230.974H76.1972V230.802Z" fill="#EBEBEB"/>
<path d="M154.71 233.702H90.3389V233.874H154.71V233.702Z" fill="#EBEBEB"/>
<path d="M162.852 194.322H30.1725C29.1331 194.321 28.1369 193.906 27.4026 193.171C26.6683 192.435 26.2559 191.438 26.2559 190.399V3.8892C26.2649 2.85576 26.6813 1.86762 27.4147 1.13942C28.148 0.411223 29.1391 0.00177033 30.1725 0H162.852C163.892 0 164.89 0.413373 165.626 1.14918C166.362 1.88499 166.775 2.88296 166.775 3.92355V190.399C166.775 191.439 166.362 192.437 165.626 193.173C164.89 193.909 163.892 194.322 162.852 194.322ZM30.1725 0.137428C29.1787 0.139248 28.2262 0.535325 27.5241 1.23872C26.822 1.94212 26.4276 2.89536 26.4276 3.8892V190.399C26.4276 191.393 26.822 192.346 27.5241 193.049C28.2262 193.753 29.1787 194.149 30.1725 194.151H162.852C163.846 194.149 164.8 193.753 165.503 193.05C166.206 192.347 166.602 191.393 166.604 190.399V3.8892C166.602 2.89472 166.206 1.9415 165.503 1.2383C164.8 0.535102 163.846 0.139244 162.852 0.137428H30.1725Z" fill="#EBEBEB"/>
<path d="M311.486 194.322H178.8C177.759 194.321 176.763 193.907 176.027 193.171C175.292 192.436 174.878 191.439 174.876 190.399V3.8892C174.887 2.85513 175.305 1.86701 176.039 1.13899C176.774 0.410983 177.765 0.00175103 178.8 0H311.486C312.518 0.0035762 313.507 0.413828 314.239 1.14184C314.971 1.86984 315.387 2.85695 315.396 3.8892V190.399C315.396 191.437 314.984 192.433 314.251 193.168C313.518 193.904 312.524 194.319 311.486 194.322ZM178.8 0.137428C177.805 0.139244 176.852 0.535102 176.149 1.2383C175.445 1.9415 175.05 2.89472 175.048 3.8892V190.399C175.05 191.393 175.445 192.347 176.149 193.05C176.852 193.753 177.805 194.149 178.8 194.151H311.486C312.48 194.149 313.433 193.753 314.137 193.05C314.84 192.347 315.236 191.393 315.238 190.399V3.8892C315.236 2.89472 314.84 1.9415 314.137 1.2383C313.433 0.535102 312.48 0.139244 311.486 0.137428H178.8Z" fill="#EBEBEB"/>
<path d="M254.297 165.676V179.11L259.966 183.232H233.477L241.942 180.099V166.611L254.297 165.676Z" fill="#E0E0E0"/>
<path d="M178.808 182.847V225.168H309.137V182.847H178.808ZM180.938 185.595H285.575V199.428H180.938V185.595Z" fill="#E0E0E0"/>
<path d="M178.808 182.847V225.168H288.42V182.847H178.808ZM180.938 185.595H285.575V199.428H180.938V185.595Z" fill="#EBEBEB"/>
<path d="M180.945 199.421H200.02V185.589H180.945V199.421Z" fill="#E0E0E0"/>
<path d="M257.952 199.421H285.575V192.508H257.952V199.421Z" fill="#E0E0E0"/>
<path d="M238.437 199.421H256.206V195.312H238.437V199.421Z" fill="#E0E0E0"/>
<path d="M213.384 199.428H234.335V191.024H213.384V199.428Z" fill="#E0E0E0"/>
<path d="M264.768 202.431L265.277 204.087H272.072L272.581 202.431H285.575V220.791H251.781V202.431H264.768Z" fill="#E0E0E0"/>
<path d="M229.394 202.431L229.903 204.087H236.698L237.2 202.431H250.194V220.791H216.4V202.431H229.394Z" fill="#E0E0E0"/>
<path d="M194.02 202.431L194.529 204.087H201.318L201.826 202.431H214.82V220.791H181.026V202.431H194.02Z" fill="#E0E0E0"/>
<path d="M198.405 173.701H288.214C289.554 173.701 290.64 172.615 290.64 171.276V118.93C290.64 117.59 289.554 116.504 288.214 116.504L198.405 116.504C197.066 116.504 195.98 117.59 195.98 118.93V171.276C195.98 172.615 197.066 173.701 198.405 173.701Z" fill="#E0E0E0"/>
<path d="M196.178 173.701H285.987C287.326 173.701 288.412 172.615 288.412 171.276V118.93C288.412 117.59 287.326 116.504 285.987 116.504L196.178 116.504C194.838 116.504 193.752 117.59 193.752 118.93V171.276C193.752 172.615 194.838 173.701 196.178 173.701Z" fill="#E6E6E6"/>
<path d="M285.637 170.918V119.287H196.542V170.918H285.637Z" fill="#F0F0F0"/>
<path d="M299.997 19.604H222.611V105.235H299.997V19.604Z" fill="#E9E9E9"/>
<path d="M296.789 22.998H226.014V102.019H296.789V22.998Z" fill="#F4F4F4"/>
<path d="M246.016 22.998L226.014 97.9098V57.3549L235.166 22.998H246.016Z" fill="white"/>
<path d="M254.955 22.998L233.86 102.019H229.882L250.977 22.998H254.955Z" fill="white"/>
<path d="M296.789 44.5469V85.1086L292.309 102.019H281.459L296.789 44.5469Z" fill="white"/>
<path d="M262.672 19.604H259.924V105.235H262.672V19.604Z" fill="#E9E9E9"/>
<path d="M298.507 36.9817H223.952V39.7302H298.507V36.9817Z" fill="#E9E9E9"/>
<path d="M49.042 93.2654V114.573H79.1867V93.2654H49.042Z" fill="#E0E0E0"/>
<path d="M50.4561 94.6601V113.185H77.7698V94.6601H50.4561Z" fill="#EBEBEB"/>
<path d="M59.499 66.508V87.8162H89.6437V66.508H59.499Z" fill="#E0E0E0"/>
<path d="M60.915 67.903V86.4282H88.2288V67.903H60.915Z" fill="#EBEBEB"/>
<path d="M104.094 93.2717H84.9092V120.414H104.094V93.2717Z" fill="#E0E0E0"/>
<path d="M102.844 94.5503H86.1602V119.143H102.844V94.5503Z" fill="#EBEBEB"/>
<path d="M115.006 57.6643H93.6982V87.809H115.006V57.6643Z" fill="#E0E0E0"/>
<path d="M113.612 59.0867H95.0869V86.4004H113.612V59.0867Z" fill="#EBEBEB"/>
<path d="M134.212 109.955V93.2717H110.609V109.955H134.212Z" fill="#E0E0E0"/>
<path d="M133.099 108.863V94.3579H111.715V108.863H133.099Z" fill="#EBEBEB"/>
<path d="M43.9767 141.214H118.476C120.086 141.216 121.629 141.856 122.767 142.995C123.905 144.134 124.544 145.678 124.544 147.288L132.789 199.826H46.1275L37.8818 147.288C37.8809 146.488 38.0381 145.696 38.3443 144.958C38.6506 144.219 39.0998 143.548 39.6662 142.983C40.2326 142.419 40.9051 141.972 41.6448 141.668C42.3846 141.365 43.1771 141.21 43.9767 141.214Z" fill="#EBEBEB"/>
<path d="M132.569 161.532L132.48 161.264H161.339V225.168H125.608V168.926C125.581 167.031 126.292 165.2 127.592 163.82C128.891 162.44 130.676 161.62 132.569 161.532Z" fill="#E0E0E0"/>
<path d="M161.643 161.519C163.605 161.522 165.485 162.304 166.872 163.693C168.258 165.082 169.036 166.964 169.036 168.926V225.168H154.235V168.926C154.235 166.961 155.016 165.077 156.405 163.688C157.794 162.299 159.678 161.519 161.643 161.519Z" fill="#F0F0F0"/>
<path d="M49.4263 161.532L49.337 161.264H78.1967V225.168H42.4656V168.926C42.4386 167.031 43.1499 165.2 44.449 163.82C45.7481 162.44 47.5331 161.62 49.4263 161.532Z" fill="#E0E0E0"/>
<path d="M85.9059 225.168H149.404V180.161H85.9059V225.168Z" fill="#E0E0E0"/>
<path d="M145.268 191.147L73.8061 191.147V175.543H145.268C147.339 175.543 149.324 176.365 150.788 177.829C152.252 179.293 153.074 181.278 153.074 183.348C153.072 185.418 152.249 187.401 150.785 188.864C149.322 190.326 147.337 191.147 145.268 191.147Z" fill="#F5F5F5"/>
<path d="M78.4991 161.519C80.4613 161.522 82.3419 162.304 83.728 163.693C85.1142 165.082 85.8927 166.964 85.8927 168.926V225.168H71.0918V168.926C71.0918 166.961 71.8722 165.077 73.2614 163.688C74.6505 162.299 76.5346 161.519 78.4991 161.519Z" fill="#F0F0F0"/>
<path d="M58.2623 200.603H46.1275L37.8818 147.288C37.8809 146.488 38.0381 145.696 38.3443 144.958C38.6506 144.219 39.0998 143.548 39.6662 142.983C40.2326 142.419 40.9051 141.972 41.6448 141.668C42.3846 141.365 43.1771 141.21 43.9767 141.214C44.7744 141.214 45.5643 141.371 46.3013 141.676C47.0382 141.981 47.7079 142.429 48.2719 142.993C48.836 143.557 49.2834 144.226 49.5887 144.963C49.8939 145.7 50.051 146.49 50.051 147.288L58.2623 200.603Z" fill="#E0E0E0"/>
<path d="M40.7687 14.0726V34.3569C40.7719 34.6196 40.8286 34.8788 40.9353 35.1187C41.0421 35.3587 41.1966 35.5743 41.3896 35.7525C41.5826 35.9307 41.8098 36.0676 42.0575 36.1549C42.3052 36.2422 42.5681 36.2781 42.8301 36.2603H111.42C111.42 36.2603 119.35 32.5635 118.786 27.3962C118.34 23.2734 117.872 19.9133 117.488 17.3572C117.261 15.8562 116.502 14.487 115.349 13.5002C114.195 12.5134 112.725 11.975 111.207 11.9837H42.8301C42.5571 11.9837 42.2868 12.0379 42.0349 12.1432C41.783 12.2486 41.5545 12.4029 41.3627 12.5972C41.1709 12.7915 41.0197 13.022 40.9177 13.2753C40.8157 13.5286 40.7651 13.7996 40.7687 14.0726Z" fill="#F5F5F5"/>
<path d="M40.7686 14.0725V34.3568C40.7717 34.6194 40.8284 34.8787 40.9351 35.1186C41.0419 35.3586 41.1965 35.5742 41.3894 35.7524C41.5824 35.9306 41.8097 36.0675 42.0574 36.1548C42.305 36.2421 42.5679 36.278 42.83 36.2602H48.8837C48.8837 36.2602 56.8132 32.5634 56.2498 27.3961C55.7963 23.2939 55.3359 19.9269 54.9717 17.3777C54.7454 15.8767 53.9861 14.5075 52.8327 13.5207C51.6794 12.5339 50.2091 11.9956 48.6913 12.0043H42.8506C42.5776 12.0015 42.3067 12.0531 42.0538 12.1559C41.8009 12.2587 41.5709 12.4107 41.3772 12.6031C41.1835 12.7955 41.0299 13.0245 40.9254 13.2768C40.821 13.529 40.7676 13.7995 40.7686 14.0725Z" fill="#E6E6E6"/>
<path d="M117.213 29.0522H57.2941C57.2941 29.0522 55.3152 33.4362 51.9551 35.2365H110.499C110.499 35.2365 116.697 32.4055 117.213 29.0522Z" fill="#E0E0E0"/>
<path d="M113.076 33.1821H55.2324L56.0913 35.2504H113.076V33.1821Z" fill="#EBEBEB"/>
<path d="M115.144 30.5981H57.2939L58.1597 32.6664H115.144V30.5981Z" fill="#EBEBEB"/>
<path d="M59.3625 28.104H60.8252V27.4997H59.3625V28.104Z" fill="#E0E0E0"/>
<path d="M61.425 28.104H62.8877V27.4997H61.425V28.104Z" fill="#E0E0E0"/>
<path d="M171.785 256C245.365 256 305.014 252.518 305.014 248.222C305.014 243.926 245.365 240.443 171.785 240.443C98.2043 240.443 38.5557 243.926 38.5557 248.222C38.5557 252.518 98.2043 256 171.785 256Z" fill="#F5F5F5"/>
<path d="M62.3227 198.651C62.467 199.661 59.7253 200.328 57.5127 200.712C57.6982 202.547 58.887 204.402 60.5979 206.134C62.7212 204.938 65.7446 203.385 66.3081 203.749C66.8715 204.114 63.7931 206.141 61.8417 207.336C63.2282 208.543 64.6952 209.654 66.2325 210.662C67.1807 209.776 68.2939 208.992 68.981 209.418C69.6682 209.844 69.4826 211.226 69.1391 212.456C71.4478 213.795 73.1726 214.613 73.1726 214.613C73.8439 212.47 74.3606 210.282 74.7186 208.065C74.6018 207.838 74.485 207.604 74.375 207.378C74.004 206.519 74.3751 206.154 74.9797 206.038C75.1546 204.47 75.1684 202.888 75.021 201.317C72.4098 200.767 69.2353 199.757 70.424 198.191C71.1111 197.249 72.4854 197.139 73.8185 197.373C73.633 197.061 73.4166 196.769 73.1726 196.5C68.4244 191.264 65.1124 196.5 65.1124 196.5C62.3639 194.198 58.4678 194.817 57.6295 198.417C59.1756 197.998 62.144 197.407 62.3227 198.651Z" fill="#407BFF"/>
<path opacity="0.3" d="M62.3227 198.651C62.467 199.661 59.7253 200.328 57.5127 200.712C57.6982 202.547 58.887 204.402 60.5979 206.134C62.7212 204.938 65.7446 203.385 66.3081 203.749C66.8715 204.114 63.7931 206.141 61.8417 207.336C63.2282 208.543 64.6952 209.654 66.2325 210.662C67.1807 209.776 68.2939 208.992 68.981 209.418C69.6682 209.844 69.4826 211.226 69.1391 212.456C71.4478 213.795 73.1726 214.613 73.1726 214.613C73.8439 212.47 74.3606 210.282 74.7186 208.065C74.6018 207.838 74.485 207.604 74.375 207.378C74.004 206.519 74.3751 206.154 74.9797 206.038C75.1546 204.47 75.1684 202.888 75.021 201.317C72.4098 200.767 69.2353 199.757 70.424 198.191C71.1111 197.249 72.4854 197.139 73.8185 197.373C73.633 197.061 73.4166 196.769 73.1726 196.5C68.4244 191.264 65.1124 196.5 65.1124 196.5C62.3639 194.198 58.4678 194.817 57.6295 198.417C59.1756 197.998 62.144 197.407 62.3227 198.651Z" fill="white"/>
<path d="M68.2537 237.124L67.5666 237.069C67.5666 236.711 70.377 201.661 62.5092 198.355C62.1339 198.181 61.7234 198.097 61.3098 198.107C60.8962 198.118 60.4907 198.224 60.1249 198.417C57.287 199.895 55.9265 206.031 55.9127 206.093L55.2256 205.948C55.2806 205.687 56.6686 199.434 59.795 197.806C60.2504 197.565 60.755 197.433 61.2697 197.419C61.7844 197.404 62.2954 197.509 62.7635 197.723C71.0985 201.221 68.3705 235.688 68.2537 237.124Z" fill="#407BFF"/>
<path d="M69.2429 236.375C69.1055 234.801 65.8897 197.716 71.8953 193.772C73.3382 192.824 74.6438 192.625 75.7089 193.174C78.5467 194.611 78.9178 200.671 78.9315 200.932L78.2444 200.973C78.2444 200.912 77.8802 195.043 75.3997 193.793C74.5407 193.36 73.4894 193.545 72.2732 194.343C66.6112 198.06 69.8957 235.928 69.9232 236.313L69.2429 236.375Z" fill="#407BFF"/>
<path d="M70.1431 239.364C70.1019 238.155 69.1124 209.769 74.5751 207.282C75.0851 207.044 75.641 206.921 76.2037 206.921C76.7663 206.921 77.3222 207.044 77.8322 207.282C81.5839 208.931 83.8996 215.926 84.0164 216.215L83.3636 216.428C83.3636 216.359 81.0411 209.433 77.5711 207.907C77.1515 207.707 76.6925 207.603 76.2277 207.603C75.7629 207.603 75.3039 207.707 74.8843 207.907C70.6928 209.81 70.5485 231.27 70.8509 239.337L70.1431 239.364Z" fill="#407BFF"/>
<path d="M68.7545 238.065L68.0673 237.99C69.0362 229.538 70.8777 207.02 67.868 204.32C67.7223 204.144 67.5285 204.014 67.3101 203.945C67.0918 203.877 66.8583 203.873 66.6381 203.935C64.5904 204.767 63.3879 212.05 63.0856 214.813L62.3984 214.737C62.5153 213.679 63.6147 204.375 66.3838 203.317C66.7199 203.202 67.0826 203.188 67.4262 203.279C67.7698 203.369 68.0789 203.559 68.3147 203.825C72.2108 207.295 68.8988 236.808 68.7545 238.065Z" fill="#407BFF"/>
<path d="M57.2861 222.048H81.975L79.9136 249.698H59.3475L57.2861 222.048Z" fill="#263238"/>
<path opacity="0.2" d="M64.7832 222.048L65.4703 249.698H79.914L81.9754 222.048H64.7832Z" fill="white"/>
<path d="M60.6464 211.899C60.3921 212.586 58.475 212.043 56.9702 211.507C56.4548 212.703 56.5716 214.256 57.0183 215.905C58.7293 215.905 61.1411 215.96 61.3541 216.393C61.5671 216.826 58.9835 217.032 57.3825 217.08C57.8237 218.302 58.3495 219.491 58.956 220.639C59.8424 220.413 60.7975 220.316 61.0586 220.804C61.3198 221.292 60.7494 222.089 60.1173 222.728C61.0793 224.35 61.8626 225.477 61.8626 225.477C63.0133 224.38 64.0813 223.199 65.0578 221.945C65.0578 221.766 65.0578 221.581 65.0578 221.395C65.1265 220.708 65.4769 220.633 65.8961 220.77C66.54 219.861 67.0903 218.89 67.5384 217.87C66.116 216.64 64.5012 214.929 65.7724 214.366C66.542 214.036 67.3872 214.414 68.143 215.053C68.139 214.796 68.1067 214.54 68.0468 214.29C66.9131 209.432 63.0788 211.542 63.0788 211.542C62.1649 209.178 59.5538 208.237 57.8085 210.167C58.9354 210.415 60.9693 211.068 60.6464 211.899Z" fill="#407BFF"/>
<path opacity="0.3" d="M60.6464 211.899C60.3921 212.586 58.475 212.043 56.9702 211.507C56.4548 212.703 56.5716 214.256 57.0183 215.905C58.7293 215.905 61.1411 215.96 61.3541 216.393C61.5671 216.826 58.9835 217.032 57.3825 217.08C57.8237 218.302 58.3495 219.491 58.956 220.639C59.8424 220.413 60.7975 220.316 61.0586 220.804C61.3198 221.292 60.7494 222.089 60.1173 222.728C61.0793 224.35 61.8626 225.477 61.8626 225.477C63.0133 224.38 64.0813 223.199 65.0578 221.945C65.0578 221.766 65.0578 221.581 65.0578 221.395C65.1265 220.708 65.4769 220.633 65.8961 220.77C66.54 219.861 67.0903 218.89 67.5384 217.87C66.116 216.64 64.5012 214.929 65.7724 214.366C66.542 214.036 67.3872 214.414 68.143 215.053C68.139 214.796 68.1067 214.54 68.0468 214.29C66.9131 209.432 63.0788 211.542 63.0788 211.542C62.1649 209.178 59.5538 208.237 57.8085 210.167C58.9354 210.415 60.9693 211.068 60.6464 211.899Z" fill="white"/>
<path d="M78.9793 215.184C78.2113 215.247 77.4542 215.407 76.7255 215.658C76.5269 215.134 76.4132 214.582 76.3888 214.022C76.2308 209.048 79.8245 211.143 81.6798 209.68C82.1088 209.306 82.6105 209.025 83.1533 208.855C83.6961 208.685 84.2682 208.629 84.8338 208.69C84.6713 208.966 84.5289 209.253 84.4077 209.549C84.3625 209.657 84.3426 209.774 84.3495 209.891C84.3565 210.009 84.39 210.122 84.4477 210.225C84.5054 210.327 84.5856 210.414 84.6823 210.481C84.779 210.547 84.8895 210.59 85.0055 210.607C85.4696 210.699 85.9506 210.641 86.3798 210.442C86.5073 210.373 86.6271 210.29 86.7371 210.195C87.0381 210.717 87.2691 211.276 87.4243 211.858C87.6104 212.554 87.7187 213.268 87.7472 213.988C87.4624 214.048 87.1823 214.129 86.9089 214.229C86.801 214.275 86.7051 214.346 86.6285 214.436C86.5519 214.525 86.4967 214.63 86.4669 214.744C86.4371 214.858 86.4336 214.977 86.4566 215.093C86.4796 215.208 86.5285 215.317 86.5997 215.41C86.8993 215.708 87.2479 215.952 87.6304 216.132C87.5011 216.928 87.2892 217.709 86.9982 218.461L86.744 218.503C86.5653 218.537 86.3867 218.585 86.208 218.633L85.9126 218.743C85.7903 218.797 85.6834 218.88 85.6017 218.986C85.5201 219.091 85.4663 219.216 85.4453 219.348C85.434 219.478 85.455 219.609 85.5066 219.729C85.5582 219.848 85.6386 219.954 85.7408 220.035C85.8578 220.121 85.9819 220.197 86.1118 220.262C85.6368 221.083 84.9574 221.767 84.1397 222.247C83.4176 221.921 82.7155 221.551 82.0371 221.141C82.1883 220.942 82.3394 220.743 82.4769 220.537C82.6387 220.309 82.7142 220.031 82.6899 219.753C82.6456 219.481 82.5009 219.236 82.2845 219.066C82.1744 218.981 82.0485 218.918 81.914 218.881C81.7796 218.845 81.6393 218.835 81.5011 218.853C81.2294 218.897 80.9842 219.042 80.814 219.258C80.6491 219.506 80.4636 219.739 80.2849 219.946C79.3339 219.245 78.4832 218.417 77.7562 217.486H77.8318C78.2823 217.368 78.7421 217.29 79.2061 217.252C79.4399 217.175 79.6396 217.019 79.7707 216.811C79.9018 216.602 79.9562 216.355 79.9245 216.11C79.8927 215.866 79.7769 215.641 79.5968 215.473C79.4168 215.305 79.1839 215.205 78.9381 215.191L78.9793 215.184Z" fill="#407BFF"/>
<path opacity="0.5" d="M78.9793 215.184C78.2113 215.247 77.4542 215.407 76.7255 215.658C76.5269 215.134 76.4132 214.582 76.3888 214.022C76.2308 209.048 79.8245 211.143 81.6798 209.68C82.1088 209.306 82.6105 209.025 83.1533 208.855C83.6961 208.685 84.2682 208.629 84.8338 208.69C84.6713 208.966 84.5289 209.253 84.4077 209.549C84.3625 209.657 84.3426 209.774 84.3495 209.891C84.3565 210.009 84.39 210.122 84.4477 210.225C84.5054 210.327 84.5856 210.414 84.6823 210.481C84.779 210.547 84.8895 210.59 85.0055 210.607C85.4696 210.699 85.9506 210.641 86.3798 210.442C86.5073 210.373 86.6271 210.29 86.7371 210.195C87.0381 210.717 87.2691 211.276 87.4243 211.858C87.6104 212.554 87.7187 213.268 87.7472 213.988C87.4624 214.048 87.1823 214.129 86.9089 214.229C86.801 214.275 86.7051 214.346 86.6285 214.436C86.5519 214.525 86.4967 214.63 86.4669 214.744C86.4371 214.858 86.4336 214.977 86.4566 215.093C86.4796 215.208 86.5285 215.317 86.5997 215.41C86.8993 215.708 87.2479 215.952 87.6304 216.132C87.5011 216.928 87.2892 217.709 86.9982 218.461L86.744 218.503C86.5653 218.537 86.3867 218.585 86.208 218.633L85.9126 218.743C85.7903 218.797 85.6834 218.88 85.6017 218.986C85.5201 219.091 85.4663 219.216 85.4453 219.348C85.434 219.478 85.455 219.609 85.5066 219.729C85.5582 219.848 85.6386 219.954 85.7408 220.035C85.8578 220.121 85.9819 220.197 86.1118 220.262C85.6368 221.083 84.9574 221.767 84.1397 222.247C83.4176 221.921 82.7155 221.551 82.0371 221.141C82.1883 220.942 82.3394 220.743 82.4769 220.537C82.6387 220.309 82.7142 220.031 82.6899 219.753C82.6456 219.481 82.5009 219.236 82.2845 219.066C82.1744 218.981 82.0485 218.918 81.914 218.881C81.7796 218.845 81.6393 218.835 81.5011 218.853C81.2294 218.897 80.9842 219.042 80.814 219.258C80.6491 219.506 80.4636 219.739 80.2849 219.946C79.3339 219.245 78.4832 218.417 77.7562 217.486H77.8318C78.2823 217.368 78.7421 217.29 79.2061 217.252C79.4399 217.175 79.6396 217.019 79.7707 216.811C79.9018 216.602 79.9562 216.355 79.9245 216.11C79.8927 215.866 79.7769 215.641 79.5968 215.473C79.4168 215.305 79.1839 215.205 78.9381 215.191L78.9793 215.184Z" fill="white"/>
<path d="M80.3947 198.019C80.8195 197.714 81.2813 197.465 81.7689 197.277C81.6432 196.915 81.4599 196.576 81.2261 196.273C79.1235 193.587 78.1752 196.273 76.5398 196.315C76.1557 196.309 75.7745 196.382 75.4199 196.53C75.0653 196.678 74.7448 196.897 74.4784 197.174C74.6824 197.249 74.882 197.336 75.0762 197.435C75.1482 197.472 75.2108 197.525 75.2591 197.59C75.3073 197.655 75.34 197.73 75.3546 197.81C75.3692 197.889 75.3654 197.971 75.3433 198.049C75.3212 198.127 75.2816 198.199 75.2274 198.259C75.0235 198.518 74.7415 198.703 74.4234 198.788C74.3228 198.795 74.2218 198.795 74.1211 198.788C74.1975 199.193 74.3221 199.588 74.4921 199.963C74.7006 200.41 74.9588 200.832 75.2617 201.221C75.437 201.128 75.6183 201.048 75.8046 200.98C75.8819 200.956 75.9638 200.95 76.0439 200.962C76.124 200.975 76.2002 201.005 76.2666 201.052C76.333 201.098 76.3878 201.159 76.4268 201.23C76.4659 201.301 76.4881 201.38 76.4917 201.461C76.4668 201.75 76.39 202.031 76.265 202.293C76.6887 202.658 77.1493 202.978 77.6392 203.248L77.7904 203.152L78.134 202.987C78.2001 202.957 78.2692 202.934 78.3401 202.918C78.4272 202.891 78.5197 202.887 78.6088 202.906C78.6979 202.925 78.7805 202.967 78.8486 203.028C78.917 203.092 78.9675 203.172 78.9952 203.261C79.0229 203.35 79.0269 203.445 79.0066 203.536C78.9831 203.632 78.9533 203.726 78.9173 203.818C79.5256 204.041 80.1815 204.103 80.8207 203.997C81.0587 203.509 81.2653 203.006 81.4391 202.492L80.9444 202.368C80.7611 202.319 80.6007 202.207 80.4909 202.052C80.3878 201.889 80.3532 201.691 80.3947 201.502C80.4131 201.409 80.4507 201.321 80.5051 201.243C80.5595 201.164 80.6295 201.099 80.7107 201.049C80.8742 200.946 81.0717 200.911 81.2605 200.953C81.4528 201.008 81.6521 201.049 81.8445 201.097C82.0397 200.313 82.1253 199.506 82.0988 198.699H82.0507C81.757 198.836 81.4764 198.999 81.2124 199.187C81.1325 199.238 81.0433 199.273 80.9498 199.29C80.8564 199.307 80.7605 199.306 80.6676 199.286C80.5748 199.266 80.4868 199.227 80.4087 199.173C80.3307 199.119 80.264 199.05 80.2126 198.97C80.1611 198.891 80.1259 198.801 80.109 198.708C80.092 198.614 80.0936 198.518 80.1137 198.426C80.1338 198.333 80.172 198.245 80.2261 198.167C80.2802 198.089 80.3492 198.022 80.429 197.971L80.3947 198.019Z" fill="#407BFF"/>
<path opacity="0.3" d="M80.3947 198.019C80.8195 197.714 81.2813 197.465 81.7689 197.277C81.6432 196.915 81.4599 196.576 81.2261 196.273C79.1235 193.587 78.1752 196.273 76.5398 196.315C76.1557 196.309 75.7745 196.382 75.4199 196.53C75.0653 196.678 74.7448 196.897 74.4784 197.174C74.6824 197.249 74.882 197.336 75.0762 197.435C75.1482 197.472 75.2108 197.525 75.2591 197.59C75.3073 197.655 75.34 197.73 75.3546 197.81C75.3692 197.889 75.3654 197.971 75.3433 198.049C75.3212 198.127 75.2816 198.199 75.2274 198.259C75.0235 198.518 74.7415 198.703 74.4234 198.788C74.3228 198.795 74.2218 198.795 74.1211 198.788C74.1975 199.193 74.3221 199.588 74.4921 199.963C74.7006 200.41 74.9588 200.832 75.2617 201.221C75.437 201.128 75.6183 201.048 75.8046 200.98C75.8819 200.956 75.9638 200.95 76.0439 200.962C76.124 200.975 76.2002 201.005 76.2666 201.052C76.333 201.098 76.3878 201.159 76.4268 201.23C76.4659 201.301 76.4881 201.38 76.4917 201.461C76.4668 201.75 76.39 202.031 76.265 202.293C76.6887 202.658 77.1493 202.978 77.6392 203.248L77.7904 203.152L78.134 202.987C78.2001 202.957 78.2692 202.934 78.3401 202.918C78.4272 202.891 78.5197 202.887 78.6088 202.906C78.6979 202.925 78.7805 202.967 78.8486 203.028C78.917 203.092 78.9675 203.172 78.9952 203.261C79.0229 203.35 79.0269 203.445 79.0066 203.536C78.9831 203.632 78.9533 203.726 78.9173 203.818C79.5256 204.041 80.1815 204.103 80.8207 203.997C81.0587 203.509 81.2653 203.006 81.4391 202.492L80.9444 202.368C80.7611 202.319 80.6007 202.207 80.4909 202.052C80.3878 201.889 80.3532 201.691 80.3947 201.502C80.4131 201.409 80.4507 201.321 80.5051 201.243C80.5595 201.164 80.6295 201.099 80.7107 201.049C80.8742 200.946 81.0717 200.911 81.2605 200.953C81.4528 201.008 81.6521 201.049 81.8445 201.097C82.0397 200.313 82.1253 199.506 82.0988 198.699H82.0507C81.757 198.836 81.4764 198.999 81.2124 199.187C81.1325 199.238 81.0433 199.273 80.9498 199.29C80.8564 199.307 80.7605 199.306 80.6676 199.286C80.5748 199.266 80.4868 199.227 80.4087 199.173C80.3307 199.119 80.264 199.05 80.2126 198.97C80.1611 198.891 80.1259 198.801 80.109 198.708C80.092 198.614 80.0936 198.518 80.1137 198.426C80.1338 198.333 80.172 198.245 80.2261 198.167C80.2802 198.089 80.3492 198.022 80.429 197.971L80.3947 198.019Z" fill="white"/>
<path d="M60.2895 203.001C60.1452 204.011 62.8869 204.677 65.0995 205.062C64.9139 206.897 63.7252 208.752 62.0074 210.477C59.891 209.288 56.8607 207.728 56.3041 208.092C55.7475 208.457 58.7984 210.518 60.7362 211.693C59.351 212.897 57.8839 214.004 56.3453 215.005C55.3971 214.119 54.2839 213.342 53.5968 213.761C52.9097 214.18 53.0952 215.575 53.4388 216.798C51.13 218.173 49.4053 218.963 49.4053 218.963C48.7339 216.82 48.2172 214.632 47.8592 212.415C47.976 212.181 48.0928 211.954 48.1959 211.727C48.5738 210.868 48.1959 210.504 47.5981 210.353C47.4197 208.785 47.4059 207.203 47.5569 205.632C50.168 205.09 53.3426 204.073 52.1538 202.506C51.4667 201.565 50.1268 201.455 48.7593 201.695C48.9449 201.381 49.1613 201.087 49.4053 200.816C54.1534 195.58 57.4654 200.816 57.4654 200.816C60.2139 198.514 64.1031 199.139 64.9414 202.733C63.4366 202.341 60.4682 201.75 60.2895 203.001Z" fill="#407BFF"/>
<path opacity="0.5" d="M60.2895 203.001C60.1452 204.011 62.8869 204.677 65.0995 205.062C64.9139 206.897 63.7252 208.752 62.0074 210.477C59.891 209.288 56.8607 207.728 56.3041 208.092C55.7475 208.457 58.7984 210.518 60.7362 211.693C59.351 212.897 57.8839 214.004 56.3453 215.005C55.3971 214.119 54.2839 213.342 53.5968 213.761C52.9097 214.18 53.0952 215.575 53.4388 216.798C51.13 218.173 49.4053 218.963 49.4053 218.963C48.7339 216.82 48.2172 214.632 47.8592 212.415C47.976 212.181 48.0928 211.954 48.1959 211.727C48.5738 210.868 48.1959 210.504 47.5981 210.353C47.4197 208.785 47.4059 207.203 47.5569 205.632C50.168 205.09 53.3426 204.073 52.1538 202.506C51.4667 201.565 50.1268 201.455 48.7593 201.695C48.9449 201.381 49.1613 201.087 49.4053 200.816C54.1534 195.58 57.4654 200.816 57.4654 200.816C60.2139 198.514 64.1031 199.139 64.9414 202.733C63.4366 202.341 60.4682 201.75 60.2895 203.001Z" fill="white"/>
<path d="M264.857 249.699L278.016 162.26V249.699H281.547V161.718L294.72 249.699H298.506L282.015 139.564L281.547 139.633V136.053H278.016V139.619L277.528 139.564L260.995 249.699H264.857Z" fill="#407BFF"/>
<path opacity="0.3" d="M264.857 249.699L278.016 162.26V249.699H281.547V161.718L294.72 249.699H298.506L282.015 139.564L281.547 139.633V136.053H278.016V139.619L277.528 139.564L260.995 249.699H264.857Z" fill="white"/>
<path d="M297.887 151.782H261.482L264.43 121.362H294.939L297.887 151.782Z" fill="#407BFF"/>
<g opacity="0.5">
<path d="M297.888 151.782H261.483L264.431 121.363H294.94L297.888 151.782Z" fill="white"/>
</g>
<path d="M206.141 112.285H194.171C193.916 112.285 193.671 112.184 193.491 112.003C193.31 111.823 193.209 111.578 193.209 111.323V82.9788C193.341 82.9164 193.453 82.8196 193.533 82.6985C193.614 82.5774 193.66 82.4366 193.667 82.2913C193.675 82.1459 193.642 82.0014 193.573 81.873C193.505 81.7447 193.402 81.6375 193.278 81.5627C193.153 81.4879 193.01 81.4484 192.864 81.4485C192.719 81.4485 192.576 81.4881 192.451 81.5629C192.326 81.6377 192.224 81.745 192.155 81.8734C192.087 82.0017 192.054 82.1463 192.062 82.2917C192.068 82.4374 192.114 82.5785 192.196 82.6996C192.277 82.8208 192.39 82.9174 192.522 82.9788V111.316C192.521 111.533 192.563 111.748 192.646 111.949C192.728 112.149 192.85 112.331 193.003 112.485C193.156 112.638 193.338 112.759 193.539 112.842C193.739 112.924 193.954 112.966 194.171 112.965H206.141C206.396 112.965 206.641 113.067 206.821 113.247C207.002 113.428 207.103 113.672 207.103 113.927V130.151H207.79V113.934C207.79 113.718 207.747 113.503 207.665 113.303C207.582 113.103 207.46 112.921 207.307 112.768C207.154 112.615 206.972 112.494 206.772 112.411C206.572 112.328 206.358 112.285 206.141 112.285Z" fill="#407BFF"/>
<path opacity="0.4" d="M206.141 112.285H194.171C193.916 112.285 193.671 112.184 193.491 112.003C193.31 111.823 193.209 111.578 193.209 111.323V82.9788C193.341 82.9164 193.453 82.8196 193.533 82.6985C193.614 82.5774 193.66 82.4366 193.667 82.2913C193.675 82.1459 193.642 82.0014 193.573 81.873C193.505 81.7447 193.402 81.6375 193.278 81.5627C193.153 81.4879 193.01 81.4484 192.864 81.4485C192.719 81.4485 192.576 81.4881 192.451 81.5629C192.326 81.6377 192.224 81.745 192.155 81.8734C192.087 82.0017 192.054 82.1463 192.062 82.2917C192.068 82.4374 192.114 82.5785 192.196 82.6996C192.277 82.8208 192.39 82.9174 192.522 82.9788V111.316C192.521 111.533 192.563 111.748 192.646 111.949C192.728 112.149 192.85 112.331 193.003 112.485C193.156 112.638 193.338 112.759 193.539 112.842C193.739 112.924 193.954 112.966 194.171 112.965H206.141C206.396 112.965 206.641 113.067 206.821 113.247C207.002 113.428 207.103 113.672 207.103 113.927V130.151H207.79V113.934C207.79 113.718 207.747 113.503 207.665 113.303C207.582 113.103 207.46 112.921 207.307 112.768C207.154 112.615 206.972 112.494 206.772 112.411C206.572 112.328 206.358 112.285 206.141 112.285Z" fill="white"/>
<path d="M220.461 129.47H194.371C193.35 129.47 192.522 130.298 192.522 131.319V158.866C192.522 159.887 193.35 160.715 194.371 160.715H220.461C221.482 160.715 222.31 159.887 222.31 158.866V131.319C222.31 130.298 221.482 129.47 220.461 129.47Z" fill="#407BFF"/>
<path opacity="0.4" d="M220.461 129.47H194.371C193.35 129.47 192.522 130.298 192.522 131.319V158.866C192.522 159.887 193.35 160.715 194.371 160.715H220.461C221.482 160.715 222.31 159.887 222.31 158.866V131.319C222.31 130.298 221.482 129.47 220.461 129.47Z" fill="white"/>
<path opacity="0.2" d="M209.419 147.439H205.413V151.445H209.419V147.439Z" fill="white"/>
<path opacity="0.2" d="M213.77 134.39H209.764V138.396H213.77V134.39Z" fill="white"/>
<path opacity="0.2" d="M205.069 151.789H201.063V155.795H205.069V151.789Z" fill="white"/>
<path opacity="0.2" d="M213.77 138.74H209.764V142.746H213.77V138.74Z" fill="white"/>
<path opacity="0.2" d="M213.77 143.089H209.764V147.095H213.77V143.089Z" fill="white"/>
<path opacity="0.2" d="M209.419 138.74H205.413V142.746H209.419V138.74Z" fill="white"/>
<path opacity="0.2" d="M209.419 129.814H205.413V134.047H209.419V129.814Z" fill="white"/>
<path opacity="0.2" d="M205.069 147.439H201.063V151.445H205.069V147.439Z" fill="white"/>
<path opacity="0.2" d="M209.419 134.39H205.413V138.396H209.419V134.39Z" fill="white"/>
<path opacity="0.2" d="M209.419 151.789H205.413V155.795H209.419V151.789Z" fill="white"/>
<path opacity="0.2" d="M213.77 151.789H209.764V155.795H213.77V151.789Z" fill="white"/>
<path opacity="0.2" d="M209.419 143.089H205.413V147.095H209.419V143.089Z" fill="white"/>
<path opacity="0.2" d="M213.77 129.814H209.764V134.047H213.77V129.814Z" fill="white"/>
<path opacity="0.2" d="M196.371 147.439H192.866V151.445H196.371V147.439Z" fill="white"/>
<path opacity="0.2" d="M196.371 134.39H192.866V138.396H196.371V134.39Z" fill="white"/>
<path opacity="0.2" d="M196.371 143.089H192.866V147.095H196.371V143.089Z" fill="white"/>
<path opacity="0.2" d="M196.371 138.74H192.866V142.746H196.371V138.74Z" fill="white"/>
<path opacity="0.2" d="M213.77 147.439H209.764V151.445H213.77V147.439Z" fill="white"/>
<path opacity="0.2" d="M218.462 134.047H221.946V131.298C221.946 130.899 221.787 130.516 221.505 130.234C221.223 129.952 220.84 129.793 220.441 129.793H218.441L218.462 134.047Z" fill="white"/>
<path opacity="0.2" d="M218.118 134.39H214.112V138.396H218.118V134.39Z" fill="white"/>
<path opacity="0.2" d="M196.371 151.789H192.866V155.795H196.371V151.789Z" fill="white"/>
<path opacity="0.2" d="M218.118 138.74H214.112V142.746H218.118V138.74Z" fill="white"/>
<path opacity="0.2" d="M218.118 143.089H214.112V147.095H218.118V143.089Z" fill="white"/>
<path opacity="0.2" d="M218.118 147.439H214.112V151.445H218.118V147.439Z" fill="white"/>
<path opacity="0.2" d="M218.118 151.789H214.112V155.795H218.118V151.789Z" fill="white"/>
<path opacity="0.2" d="M221.966 151.789H218.462V155.795H221.966V151.789Z" fill="white"/>
<path opacity="0.2" d="M218.118 129.814H214.112V134.047H218.118V129.814Z" fill="white"/>
<path opacity="0.2" d="M209.419 156.145H205.413V160.378H209.419V156.145Z" fill="white"/>
<path opacity="0.2" d="M213.77 156.145H209.764V160.378H213.77V156.145Z" fill="white"/>
<path opacity="0.2" d="M221.966 143.089H218.462V147.095H221.966V143.089Z" fill="white"/>
<path opacity="0.2" d="M218.118 156.145H214.112V160.378H218.118V156.145Z" fill="white"/>
<path opacity="0.2" d="M221.966 147.439H218.462V151.445H221.966V147.439Z" fill="white"/>
<path opacity="0.2" d="M196.364 156.145H192.866V158.894C192.868 159.292 193.027 159.673 193.309 159.953C193.591 160.234 193.973 160.392 194.371 160.392H196.364V156.145Z" fill="white"/>
<path opacity="0.2" d="M218.462 156.145V160.371H220.461C220.859 160.371 221.241 160.213 221.523 159.933C221.805 159.652 221.965 159.271 221.966 158.873V156.125L218.462 156.145Z" fill="white"/>
<path opacity="0.2" d="M196.364 134.047V129.814H194.371C193.972 129.814 193.589 129.973 193.307 130.255C193.025 130.537 192.866 130.92 192.866 131.319V134.067L196.364 134.047Z" fill="white"/>
<path opacity="0.2" d="M221.966 138.74H218.462V142.746H221.966V138.74Z" fill="white"/>
<path opacity="0.2" d="M221.966 134.39H218.462V138.396H221.966V134.39Z" fill="white"/>
<path opacity="0.2" d="M200.713 143.089H196.707V147.095H200.713V143.089Z" fill="white"/>
<path opacity="0.2" d="M200.713 151.789H196.707V155.795H200.713V151.789Z" fill="white"/>
<path opacity="0.2" d="M205.069 129.814H201.063V134.047H205.069V129.814Z" fill="white"/>
<path opacity="0.2" d="M200.713 147.439H196.707V151.445H200.713V147.439Z" fill="white"/>
<path opacity="0.2" d="M205.069 138.74H201.063V142.746H205.069V138.74Z" fill="white"/>
<path opacity="0.2" d="M205.069 134.39H201.063V138.396H205.069V134.39Z" fill="white"/>
<path opacity="0.2" d="M205.069 156.145H201.063V160.378H205.069V156.145Z" fill="white"/>
<path opacity="0.2" d="M200.713 156.145H196.707V160.378H200.713V156.145Z" fill="white"/>
<path opacity="0.2" d="M200.713 129.814H196.707V134.047H200.713V129.814Z" fill="white"/>
<path opacity="0.2" d="M205.069 143.089H201.063V147.095H205.069V143.089Z" fill="white"/>
<path opacity="0.2" d="M200.713 138.74H196.707V142.746H200.713V138.74Z" fill="white"/>
<path opacity="0.2" d="M200.713 134.39H196.707V138.396H200.713V134.39Z" fill="white"/>
<path d="M214.531 140.485C214.472 140.172 214.387 139.864 214.277 139.564C213.847 138.34 213.098 137.254 212.107 136.417C211.115 135.58 209.918 135.024 208.639 134.806C207.361 134.588 206.047 134.716 204.834 135.177C203.622 135.638 202.555 136.415 201.744 137.427C201.359 137.904 201.038 138.428 200.788 138.987C200.363 139.926 200.143 140.945 200.143 141.976V148.215C200.142 148.811 200.215 149.404 200.362 149.981C200.469 150.423 200.624 150.851 200.823 151.259C200.996 151.641 201.203 152.007 201.441 152.352C201.627 152.599 201.812 152.833 202.012 153.039C202.256 153.31 202.52 153.563 202.802 153.795C203.032 153.983 203.273 154.157 203.523 154.317C203.957 154.593 204.417 154.823 204.898 155.004C205.131 155.087 205.365 155.162 205.585 155.224C205.886 155.299 206.191 155.356 206.499 155.396C206.727 155.425 206.956 155.441 207.186 155.444H207.371C207.746 155.444 208.121 155.417 208.491 155.362C208.725 155.32 208.959 155.272 209.178 155.217C210.023 154.997 210.821 154.627 211.535 154.125C211.794 153.945 212.04 153.748 212.271 153.534C212.902 152.956 213.428 152.273 213.823 151.514C214.03 151.123 214.198 150.714 214.325 150.291C214.516 149.674 214.62 149.033 214.634 148.387C214.634 148.387 214.634 148.243 214.634 148.174V141.935C214.649 141.449 214.615 140.964 214.531 140.485ZM212.903 151.857C212.513 152.447 212.031 152.969 211.473 153.403C211.271 153.565 211.057 153.712 210.834 153.843C210.246 154.205 209.603 154.472 208.931 154.633C208.711 154.681 208.484 154.723 208.244 154.75C207.968 154.786 207.691 154.804 207.413 154.805H207.103C206.863 154.805 206.636 154.805 206.416 154.736C206.128 154.69 205.844 154.626 205.564 154.544C205.324 154.475 205.09 154.386 204.877 154.297C204.391 154.088 203.93 153.825 203.503 153.513C203.272 153.341 203.054 153.152 202.85 152.95C202.599 152.713 202.37 152.456 202.163 152.18C201.964 151.917 201.784 151.639 201.627 151.349C201.39 150.914 201.206 150.453 201.077 149.975C200.916 149.4 200.836 148.805 200.837 148.209V141.969C200.838 140.521 201.322 139.114 202.211 137.97C202.803 137.197 203.559 136.563 204.423 136.115C205.355 135.629 206.39 135.377 207.44 135.38C208.936 135.38 210.387 135.889 211.556 136.823C212.725 137.757 213.541 139.06 213.872 140.52C213.977 140.991 214.03 141.473 214.03 141.956V148.25C214.024 148.656 213.982 149.06 213.906 149.459C213.799 149.994 213.626 150.513 213.391 151.005C213.251 151.302 213.088 151.587 212.903 151.857Z" fill="white"/>
<path d="M208.244 145.838C207.509 148.167 206.554 151.232 207.103 154.771C207.138 154.997 207.179 155.224 207.227 155.458C206.997 155.455 206.768 155.439 206.54 155.41C206.492 155.169 206.451 154.936 206.423 154.723C205.901 151.081 206.87 147.982 207.605 145.625C208.388 143.124 208.711 141.901 207.529 141.399C207.344 141.321 207.141 141.295 206.942 141.321C206.743 141.348 206.554 141.427 206.396 141.55C204.52 142.794 202.843 148.16 202.177 152.166C202.122 152.483 202.073 152.785 202.032 153.073C201.833 152.847 201.647 152.613 201.462 152.386C201.51 152.056 201.572 151.699 201.641 151.362C202.396 147.391 204.011 142.34 206.018 141.014C206.271 140.828 206.568 140.711 206.879 140.674C207.191 140.636 207.507 140.68 207.797 140.801C209.577 141.55 208.993 143.44 208.244 145.838Z" fill="white"/>
<path d="M207.049 145.673C206.362 147.879 205.352 151.108 205.551 154.544C205.551 154.785 205.551 155.025 205.606 155.272C205.366 155.211 205.132 155.135 204.919 155.053C204.919 154.798 204.885 154.551 204.878 154.297C204.74 150.861 205.737 147.659 206.424 145.467C206.69 144.744 206.884 143.996 207.001 143.234C206.17 143.976 203.565 150.023 203.517 153.541C203.504 153.825 203.515 154.11 203.552 154.393C203.301 154.233 203.06 154.059 202.83 153.871C202.83 153.589 202.83 153.287 202.864 152.977C203.153 149.336 205.345 143.845 206.541 142.76C206.628 142.655 206.745 142.579 206.876 142.541C207.007 142.503 207.146 142.505 207.276 142.547C207.956 142.787 207.633 143.811 207.049 145.673Z" fill="white"/>
<path d="M208.931 154.606C209.015 154.822 209.111 155.033 209.22 155.238C209 155.293 208.766 155.341 208.532 155.382C208.422 155.16 208.325 154.93 208.244 154.695C207.68 153.225 207.385 150.992 208.409 147.941C210.408 141.99 210.058 140.575 208.574 139.791C208.194 139.569 207.766 139.445 207.327 139.431C206.887 139.417 206.452 139.512 206.059 139.709C203.997 140.726 202.218 144.402 201.07 149.927C200.981 150.346 200.898 150.772 200.823 151.211C200.624 150.803 200.469 150.375 200.362 149.933C200.507 149.246 200.665 148.559 200.83 147.872C202.025 143.145 203.736 140.073 205.756 139.077C206.245 138.826 206.788 138.702 207.337 138.716C207.886 138.731 208.422 138.883 208.897 139.159C210.958 140.259 211.006 142.354 209.061 148.133C208.065 151.102 208.374 153.218 208.924 154.558L208.931 154.606Z" fill="white"/>
<path d="M212.325 153.582C212.094 153.796 211.849 153.993 211.59 154.173L211.309 154.084C211.143 154.024 210.986 153.943 210.841 153.843C210.065 153.33 209.52 152.533 209.323 151.624C208.965 150.339 209.549 148.483 210.175 146.525C210.8 144.567 211.446 142.519 211.137 141.028C211.053 140.492 210.847 139.983 210.533 139.541C210.219 139.098 209.807 138.735 209.33 138.479C208.127 137.881 206.526 137.984 204.829 138.774C203.132 139.564 201.675 142.093 200.837 144.051C200.541 144.739 200.307 145.371 200.149 145.831V143.9C200.349 143.433 200.575 142.925 200.837 142.416C201.723 140.678 202.967 138.884 204.533 138.156C206.43 137.269 208.244 137.166 209.639 137.867C210.21 138.168 210.704 138.598 211.081 139.123C211.458 139.648 211.708 140.253 211.81 140.891C212.154 142.54 211.48 144.663 210.828 146.718C210.237 148.58 209.68 150.332 209.982 151.424C210.065 151.845 210.243 152.24 210.503 152.581C210.763 152.922 211.097 153.198 211.48 153.39L211.556 153.424C211.8 153.526 212.061 153.579 212.325 153.582Z" fill="white"/>
<path d="M214.387 150.339C214.259 150.762 214.091 151.171 213.885 151.562C213.583 151.72 213.255 151.82 212.916 151.857H212.724H212.552C212.174 151.827 211.816 151.677 211.528 151.431C211.24 151.184 211.038 150.852 210.951 150.483C210.649 149.459 211.143 147.535 211.638 145.501C212.029 144.214 212.287 142.89 212.408 141.55C212.408 139.434 211.858 137.166 207.797 136.445C205.736 136.074 202.767 137.393 201.029 140.21C200.685 140.76 201.132 138.651 200.754 138.96C201.001 138.396 201.386 138.424 201.764 137.95C202.527 137.455 204.65 135.359 207.914 135.765C212.593 136.342 213.095 139.461 213.095 141.55C212.98 142.95 212.713 144.332 212.298 145.673C211.844 147.439 211.336 149.446 211.611 150.291C211.661 150.523 211.784 150.734 211.962 150.892C212.139 151.05 212.363 151.148 212.6 151.17C212.862 151.187 213.123 151.14 213.363 151.033C213.748 150.874 214.097 150.638 214.387 150.339Z" fill="white"/>
<path d="M214.689 146.601V148.215C214.689 148.284 214.689 148.36 214.689 148.428C214.689 148.428 214.689 148.497 214.689 148.428C214.505 148.833 214.23 149.191 213.885 149.473C213.648 149.645 213.361 149.736 213.068 149.734H212.868C212.764 149.721 212.665 149.682 212.58 149.621C212.494 149.56 212.426 149.478 212.381 149.384C212.071 148.813 212.456 147.659 212.71 147.02C213.603 144.98 213.995 142.755 213.851 140.533C213.851 140.142 213.892 139.901 213.892 139.887C213.901 139.797 213.943 139.714 214.011 139.654C214.078 139.594 214.166 139.562 214.256 139.564C214.366 139.864 214.451 140.172 214.511 140.485C214.511 140.994 214.428 141.502 214.38 142.011C214.284 142.986 214.167 143.962 213.982 144.931C213.934 145.192 214.153 145.089 214.098 145.35C213.93 145.867 213.728 146.372 213.494 146.862C213.329 147.24 213.143 147.611 213.013 148.002C212.93 148.236 212.628 149.335 213.246 149.095C213.478 148.975 213.671 148.791 213.803 148.566C213.865 148.47 213.927 148.373 213.982 148.27C214.182 147.897 214.352 147.509 214.49 147.109C214.573 146.944 214.634 146.772 214.689 146.601Z" fill="white"/>
<path d="M164.027 30.0488V47.5708C164.027 47.826 163.925 48.0707 163.745 48.2511C163.564 48.4315 163.32 48.5328 163.065 48.5328H145.247C145.186 48.4001 145.09 48.2868 144.969 48.2056C144.847 48.1243 144.706 48.0782 144.56 48.0724C144.415 48.0653 144.27 48.0978 144.142 48.1664C144.013 48.2351 143.906 48.3372 143.831 48.4621C143.756 48.5869 143.717 48.7297 143.717 48.8752C143.717 49.0208 143.756 49.1636 143.831 49.2885C143.906 49.4133 144.013 49.5155 144.141 49.5842C144.27 49.6529 144.414 49.6855 144.56 49.6784C144.705 49.6714 144.846 49.6251 144.967 49.5443C145.088 49.4636 145.185 49.3515 145.247 49.22H163.065C163.501 49.2181 163.92 49.0438 164.229 48.7349C164.538 48.4261 164.712 48.0077 164.714 47.5708V30.0488H164.027Z" fill="#407BFF"/>
<path opacity="0.4" d="M164.027 30.0488V47.5708C164.027 47.826 163.925 48.0707 163.745 48.2511C163.564 48.4315 163.32 48.5328 163.065 48.5328H145.247C145.186 48.4001 145.09 48.2868 144.969 48.2056C144.847 48.1243 144.706 48.0782 144.56 48.0724C144.415 48.0653 144.27 48.0978 144.142 48.1664C144.013 48.2351 143.906 48.3372 143.831 48.4621C143.756 48.5869 143.717 48.7297 143.717 48.8752C143.717 49.0208 143.756 49.1636 143.831 49.2885C143.906 49.4133 144.013 49.5155 144.141 49.5842C144.27 49.6529 144.414 49.6855 144.56 49.6784C144.705 49.6714 144.846 49.6251 144.967 49.5443C145.088 49.4636 145.185 49.3515 145.247 49.22H163.065C163.501 49.2181 163.92 49.0438 164.229 48.7349C164.538 48.4261 164.712 48.0077 164.714 47.5708V30.0488H164.027Z" fill="white"/>
<path d="M179.988 33.6565V7.56593C179.988 6.54509 179.161 5.71753 178.14 5.71753L150.593 5.71753C149.572 5.71753 148.744 6.54509 148.744 7.56593V33.6565C148.744 34.6774 149.572 35.5049 150.593 35.5049H178.14C179.161 35.5049 179.988 34.6774 179.988 33.6565Z" fill="#407BFF"/>
<path opacity="0.4" d="M179.988 33.6565V7.56593C179.988 6.54509 179.161 5.71753 178.14 5.71753L150.593 5.71753C149.572 5.71753 148.744 6.54509 148.744 7.56593V33.6565C148.744 34.6774 149.572 35.5049 150.593 35.5049H178.14C179.161 35.5049 179.988 34.6774 179.988 33.6565Z" fill="white"/>
<path opacity="0.2" d="M162.02 18.6082H158.014V22.6142H162.02V18.6082Z" fill="white"/>
<path opacity="0.2" d="M175.069 22.9575H171.062V26.9635H175.069V22.9575Z" fill="white"/>
<path opacity="0.2" d="M157.671 14.2517H153.665V18.2577H157.671V14.2517Z" fill="white"/>
<path opacity="0.2" d="M170.719 22.9575H166.713V26.9635H170.719V22.9575Z" fill="white"/>
<path opacity="0.2" d="M166.369 22.9575H162.363V26.9635H166.369V22.9575Z" fill="white"/>
<path opacity="0.2" d="M170.719 18.6082H166.713V22.6142H170.719V18.6082Z" fill="white"/>
<path opacity="0.2" d="M179.652 18.6082H175.419V22.6142H179.652V18.6082Z" fill="white"/>
<path opacity="0.2" d="M162.02 14.2517H158.014V18.2577H162.02V14.2517Z" fill="white"/>
<path opacity="0.2" d="M175.069 18.6082H171.062V22.6142H175.069V18.6082Z" fill="white"/>
<path opacity="0.2" d="M157.671 18.6082H153.665V22.6142H157.671V18.6082Z" fill="white"/>
<path opacity="0.2" d="M157.671 22.9575H153.665V26.9635H157.671V22.9575Z" fill="white"/>
<path opacity="0.2" d="M166.369 18.6082H162.363V22.6142H166.369V18.6082Z" fill="white"/>
<path opacity="0.2" d="M179.652 22.9575H175.419V26.9635H179.652V22.9575Z" fill="white"/>
<path opacity="0.2" d="M162.02 6.06079H158.014V9.56519H162.02V6.06079Z" fill="white"/>
<path opacity="0.2" d="M175.069 6.06079H171.062V9.56519H175.069V6.06079Z" fill="white"/>
<path opacity="0.2" d="M166.369 6.06079H162.363V9.56519H166.369V6.06079Z" fill="white"/>
<path opacity="0.2" d="M170.719 6.06079H166.713V9.56519H170.719V6.06079Z" fill="white"/>
<path opacity="0.2" d="M162.02 22.9575H158.014V26.9635H162.02V22.9575Z" fill="white"/>
<path opacity="0.2" d="M175.419 31.657V35.1614H178.168C178.565 35.1596 178.946 35.0002 179.227 34.7182C179.508 34.4362 179.665 34.0545 179.665 33.6566V31.657H175.419Z" fill="white"/>
<path opacity="0.2" d="M175.069 27.3074H171.062V31.3134H175.069V27.3074Z" fill="white"/>
<path opacity="0.2" d="M157.671 6.06079H153.665V9.56519H157.671V6.06079Z" fill="white"/>
<path opacity="0.2" d="M170.719 27.3074H166.713V31.3134H170.719V27.3074Z" fill="white"/>
<path opacity="0.2" d="M166.369 27.3074H162.363V31.3134H166.369V27.3074Z" fill="white"/>
<path opacity="0.2" d="M162.02 27.3074H158.014V31.3134H162.02V27.3074Z" fill="white"/>
<path opacity="0.2" d="M157.671 27.3074H153.665V31.3134H157.671V27.3074Z" fill="white"/>
<path opacity="0.2" d="M157.671 31.657H153.665V35.1614H157.671V31.657Z" fill="white"/>
<path opacity="0.2" d="M179.652 27.3074H175.419V31.3134H179.652V27.3074Z" fill="white"/>
<path opacity="0.2" d="M153.321 18.6082H149.088V22.6142H153.321V18.6082Z" fill="white"/>
<path opacity="0.2" d="M153.321 22.9575H149.088V26.9635H153.321V22.9575Z" fill="white"/>
<path opacity="0.2" d="M166.369 31.657H162.363V35.1614H166.369V31.657Z" fill="white"/>
<path opacity="0.2" d="M153.321 27.3074H149.088V31.3134H153.321V27.3074Z" fill="white"/>
<path opacity="0.2" d="M162.02 31.657H158.014V35.1614H162.02V31.657Z" fill="white"/>
<path opacity="0.2" d="M153.321 9.55832V6.06079H150.572C150.181 6.0715 149.81 6.23382 149.537 6.5134C149.264 6.79298 149.11 7.16788 149.108 7.55875V9.55832H153.321Z" fill="white"/>
<path opacity="0.2" d="M153.321 31.657H149.108V33.6703C149.108 34.0694 149.267 34.4522 149.549 34.7344C149.831 35.0166 150.214 35.1751 150.613 35.1751H153.362L153.321 31.657Z" fill="white"/>
<path opacity="0.2" d="M175.419 9.55832H179.645V7.55875C179.643 7.16202 179.485 6.78206 179.204 6.50153C178.924 6.221 178.544 6.0626 178.147 6.06079H175.398L175.419 9.55832Z" fill="white"/>
<path opacity="0.2" d="M170.719 31.657H166.713V35.1614H170.719V31.657Z" fill="white"/>
<path opacity="0.2" d="M175.069 31.657H171.062V35.1614H175.069V31.657Z" fill="white"/>
<path opacity="0.2" d="M166.369 9.9021H162.363V13.9081H166.369V9.9021Z" fill="white"/>
<path opacity="0.2" d="M157.671 9.9021H153.665V13.9081H157.671V9.9021Z" fill="white"/>
<path opacity="0.2" d="M179.652 14.2517H175.419V18.2577H179.652V14.2517Z" fill="white"/>
<path opacity="0.2" d="M162.02 9.9021H158.014V13.9081H162.02V9.9021Z" fill="white"/>
<path opacity="0.2" d="M170.719 14.2517H166.713V18.2577H170.719V14.2517Z" fill="white"/>
<path opacity="0.2" d="M175.069 14.2517H171.062V18.2577H175.069V14.2517Z" fill="white"/>
<path opacity="0.2" d="M153.321 14.2517H149.088V18.2577H153.321V14.2517Z" fill="white"/>
<path opacity="0.2" d="M153.321 9.9021H149.088V13.9081H153.321V9.9021Z" fill="white"/>
<path opacity="0.2" d="M179.652 9.9021H175.419V13.9081H179.652V9.9021Z" fill="white"/>
<path opacity="0.2" d="M166.369 14.2517H162.363V18.2577H166.369V14.2517Z" fill="white"/>
<path opacity="0.2" d="M170.719 9.9021H166.713V13.9081H170.719V9.9021Z" fill="white"/>
<path opacity="0.2" d="M175.069 9.9021H171.062V13.9081H175.069V9.9021Z" fill="white"/>
<path d="M155.294 20.4843C155.294 20.4843 159.348 25.2942 164.357 25.2942C169.367 25.2942 173.414 20.4843 173.414 20.4843C173.414 20.4843 169.36 15.6743 164.357 15.6743C159.355 15.6743 155.294 20.4843 155.294 20.4843Z" stroke="white" stroke-linecap="round" stroke-linejoin="round"/>
<path d="M167.524 19.7968C167.525 20.4225 167.341 21.0346 166.994 21.5554C166.647 22.0763 166.154 22.4825 165.576 22.7226C164.998 22.9627 164.362 23.0258 163.748 22.9041C163.134 22.7823 162.57 22.4812 162.128 22.0387C161.685 21.5962 161.384 21.0324 161.263 20.4186C161.141 19.8048 161.204 19.1687 161.444 18.5909C161.684 18.013 162.09 17.5195 162.611 17.1727C163.132 16.8259 163.744 16.6415 164.37 16.6428C165.206 16.6428 166.009 16.9751 166.6 17.5666C167.192 18.1581 167.524 18.9603 167.524 19.7968V19.7968Z" stroke="white" stroke-miterlimit="10"/>
<path d="M164.721 18.4089C164.719 18.2061 164.778 18.0075 164.89 17.8382C165.002 17.6689 165.161 17.5366 165.348 17.4581C165.535 17.3795 165.741 17.3583 165.94 17.397C166.139 17.4357 166.322 17.5327 166.466 17.6756C166.61 17.8185 166.708 18.0009 166.748 18.1997C166.788 18.3985 166.768 18.6047 166.691 18.7922C166.614 18.9797 166.483 19.14 166.314 19.2528C166.146 19.3656 165.947 19.4258 165.745 19.4258C165.474 19.4258 165.215 19.3189 165.023 19.1284C164.831 18.9379 164.723 18.6792 164.721 18.4089Z" stroke="white" stroke-miterlimit="10"/>
<path d="M164.37 15.6673V12.4377" stroke="white" stroke-linecap="round" stroke-linejoin="round"/>
<path d="M167.18 15.901L168.334 13.2761" stroke="white" stroke-linecap="round" stroke-linejoin="round"/>
<path d="M169.882 17.0963L171.497 15.1792" stroke="white" stroke-linecap="round" stroke-linejoin="round"/>
<path d="M172.045 18.5729L173.604 17.5359" stroke="white" stroke-linecap="round" stroke-linejoin="round"/>
<path d="M161.553 15.901L160.398 13.2761" stroke="white" stroke-linecap="round" stroke-linejoin="round"/>
<path d="M158.852 17.0963L157.237 15.1792" stroke="white" stroke-linecap="round" stroke-linejoin="round"/>
<path d="M156.687 18.5729L155.128 17.5359" stroke="white" stroke-linecap="round" stroke-linejoin="round"/>
<path d="M117.666 49.6182C117.521 49.6227 117.381 49.6667 117.26 49.7455C117.139 49.8242 117.041 49.9347 116.979 50.0648H98.7076C98.2707 50.0666 97.8523 50.241 97.5435 50.5498C97.2346 50.8587 97.0602 51.2771 97.0584 51.7139V70.4659C97.0584 70.7211 96.9571 70.9657 96.7767 71.1462C96.5963 71.3266 96.3516 71.4279 96.0964 71.4279H88.7578V72.1151H96.0964C96.5333 72.1132 96.9517 71.9389 97.2605 71.63C97.5694 71.3212 97.7438 70.9027 97.7456 70.4659V51.7139C97.7456 51.4588 97.8469 51.2141 98.0273 51.0337C98.2077 50.8533 98.4524 50.752 98.7076 50.752H116.937C116.997 50.884 117.091 50.9975 117.209 51.0806C117.328 51.1636 117.467 51.2131 117.611 51.2239C117.755 51.2346 117.9 51.2061 118.029 51.1415C118.159 51.0769 118.269 50.9784 118.347 50.8566C118.425 50.7349 118.469 50.5942 118.474 50.4495C118.479 50.3048 118.445 50.1615 118.375 50.0347C118.305 49.9078 118.202 49.8022 118.078 49.7289C117.953 49.6556 117.81 49.6173 117.666 49.6182Z" fill="#407BFF"/>
<path opacity="0.4" d="M117.666 49.6182C117.521 49.6227 117.381 49.6667 117.26 49.7455C117.139 49.8242 117.041 49.9347 116.979 50.0648H98.7076C98.2707 50.0666 97.8523 50.241 97.5435 50.5498C97.2346 50.8587 97.0602 51.2771 97.0584 51.7139V70.4659C97.0584 70.7211 96.9571 70.9657 96.7767 71.1462C96.5963 71.3266 96.3516 71.4279 96.0964 71.4279H88.7578V72.1151H96.0964C96.5333 72.1132 96.9517 71.9389 97.2605 71.63C97.5694 71.3212 97.7438 70.9027 97.7456 70.4659V51.7139C97.7456 51.4588 97.8469 51.2141 98.0273 51.0337C98.2077 50.8533 98.4524 50.752 98.7076 50.752H116.937C116.997 50.884 117.091 50.9975 117.209 51.0806C117.328 51.1636 117.467 51.2131 117.611 51.2239C117.755 51.2346 117.9 51.2061 118.029 51.1415C118.159 51.0769 118.269 50.9784 118.347 50.8566C118.425 50.7349 118.469 50.5942 118.474 50.4495C118.479 50.3048 118.445 50.1615 118.375 50.0347C118.305 49.9078 118.202 49.8022 118.078 49.7289C117.953 49.6556 117.81 49.6173 117.666 49.6182Z" fill="white"/>
<path d="M86.9097 56.146H60.8191C59.7983 56.146 58.9707 56.9735 58.9707 57.9944V85.5417C58.9707 86.5626 59.7983 87.3901 60.8191 87.3901H86.9097C87.9306 87.3901 88.7581 86.5626 88.7581 85.5417V57.9944C88.7581 56.9735 87.9306 56.146 86.9097 56.146Z" fill="#407BFF"/>
<path opacity="0.4" d="M86.9097 56.146H60.8191C59.7983 56.146 58.9707 56.9735 58.9707 57.9944V85.5417C58.9707 86.5626 59.7983 87.3901 60.8191 87.3901H86.9097C87.9306 87.3901 88.7581 86.5626 88.7581 85.5417V57.9944C88.7581 56.9735 87.9306 56.146 86.9097 56.146Z" fill="white"/>
<path opacity="0.2" d="M75.8673 74.1147H71.8613V78.1208H75.8673V74.1147Z" fill="white"/>
<path opacity="0.2" d="M80.2169 61.0659H76.2109V65.0719H80.2169V61.0659Z" fill="white"/>
<path opacity="0.2" d="M71.5109 78.4712H67.5049V82.4772H71.5109V78.4712Z" fill="white"/>
<path opacity="0.2" d="M80.2169 65.4155H76.2109V69.4215H80.2169V65.4155Z" fill="white"/>
<path opacity="0.2" d="M80.2169 69.7649H76.2109V73.7709H80.2169V69.7649Z" fill="white"/>
<path opacity="0.2" d="M75.8673 65.4155H71.8613V69.4215H75.8673V65.4155Z" fill="white"/>
<path opacity="0.2" d="M75.8673 56.4893H71.8613V60.722H75.8673V56.4893Z" fill="white"/>
<path opacity="0.2" d="M71.5109 74.1147H67.5049V78.1208H71.5109V74.1147Z" fill="white"/>
<path opacity="0.2" d="M75.8673 61.0659H71.8613V65.0719H75.8673V61.0659Z" fill="white"/>
<path opacity="0.2" d="M75.8673 78.4712H71.8613V82.4772H75.8673V78.4712Z" fill="white"/>
<path opacity="0.2" d="M80.2169 78.4712H76.2109V82.4772H80.2169V78.4712Z" fill="white"/>
<path opacity="0.2" d="M75.8673 69.7649H71.8613V73.7709H75.8673V69.7649Z" fill="white"/>
<path opacity="0.2" d="M80.2169 56.4893H76.2109V60.722H80.2169V56.4893Z" fill="white"/>
<path opacity="0.2" d="M62.8189 74.1147H59.3145V78.1208H62.8189V74.1147Z" fill="white"/>
<path opacity="0.2" d="M62.8189 61.0659H59.3145V65.0719H62.8189V61.0659Z" fill="white"/>
<path opacity="0.2" d="M62.8189 69.7649H59.3145V73.7709H62.8189V69.7649Z" fill="white"/>
<path opacity="0.2" d="M62.8189 65.4155H59.3145V69.4215H62.8189V65.4155Z" fill="white"/>
<path opacity="0.2" d="M80.2169 74.1147H76.2109V78.1208H80.2169V74.1147Z" fill="white"/>
<path opacity="0.2" d="M84.9102 60.7224H88.4146V57.9738C88.4146 57.5747 88.256 57.192 87.9738 56.9098C87.6916 56.6275 87.3088 56.469 86.9097 56.469H84.9102V60.7224Z" fill="white"/>
<path opacity="0.2" d="M84.5666 61.0659H80.5605V65.0719H84.5666V61.0659Z" fill="white"/>
<path opacity="0.2" d="M62.8189 78.4712H59.3145V82.4772H62.8189V78.4712Z" fill="white"/>
<path opacity="0.2" d="M84.5666 65.4155H80.5605V69.4215H84.5666V65.4155Z" fill="white"/>
<path opacity="0.2" d="M84.5666 69.7649H80.5605V73.7709H84.5666V69.7649Z" fill="white"/>
<path opacity="0.2" d="M84.5666 74.1147H80.5605V78.1208H84.5666V74.1147Z" fill="white"/>
<path opacity="0.2" d="M84.5666 78.4712H80.5605V82.4772H84.5666V78.4712Z" fill="white"/>
<path opacity="0.2" d="M88.4146 78.4712H84.9102V82.4772H88.4146V78.4712Z" fill="white"/>
<path opacity="0.2" d="M84.5666 56.4893H80.5605V60.722H84.5666V56.4893Z" fill="white"/>
<path opacity="0.2" d="M75.8673 82.8206H71.8613V87.0533H75.8673V82.8206Z" fill="white"/>
<path opacity="0.2" d="M80.2169 82.8206H76.2109V87.0533H80.2169V82.8206Z" fill="white"/>
<path opacity="0.2" d="M88.4146 69.7649H84.9102V73.7709H88.4146V69.7649Z" fill="white"/>
<path opacity="0.2" d="M84.5666 82.8206H80.5605V87.0533H84.5666V82.8206Z" fill="white"/>
<path opacity="0.2" d="M88.4146 74.1147H84.9102V78.1208H88.4146V74.1147Z" fill="white"/>
<path opacity="0.2" d="M62.812 82.8206H59.3145V85.5691C59.3163 85.9658 59.4747 86.3458 59.7552 86.6263C60.0357 86.9069 60.4157 87.0653 60.8124 87.0671H62.812V82.8206Z" fill="white"/>
<path opacity="0.2" d="M84.9102 82.8204V87.0463H86.9097C87.3076 87.0463 87.6894 86.8887 87.9714 86.608C88.2534 86.3273 88.4127 85.9463 88.4146 85.5484V82.7998L84.9102 82.8204Z" fill="white"/>
<path opacity="0.2" d="M62.812 60.722V56.4893H60.8124C60.4145 56.4911 60.0335 56.6504 59.7528 56.9324C59.472 57.2144 59.3144 57.5962 59.3145 57.9941V60.7426L62.812 60.722Z" fill="white"/>
<path opacity="0.2" d="M88.4146 65.4155H84.9102V69.4215H88.4146V65.4155Z" fill="white"/>
<path opacity="0.2" d="M88.4146 61.0659H84.9102V65.0719H88.4146V61.0659Z" fill="white"/>
<path opacity="0.2" d="M67.1613 69.7649H63.1553V73.7709H67.1613V69.7649Z" fill="white"/>
<path opacity="0.2" d="M67.1613 78.4712H63.1553V82.4772H67.1613V78.4712Z" fill="white"/>
<path opacity="0.2" d="M71.5109 56.4893H67.5049V60.722H71.5109V56.4893Z" fill="white"/>
<path opacity="0.2" d="M67.1613 74.1147H63.1553V78.1208H67.1613V74.1147Z" fill="white"/>
<path opacity="0.2" d="M71.5109 65.4155H67.5049V69.4215H71.5109V65.4155Z" fill="white"/>
<path opacity="0.2" d="M71.5109 61.0659H67.5049V65.0719H71.5109V61.0659Z" fill="white"/>
<path opacity="0.2" d="M71.5109 82.8206H67.5049V87.0533H71.5109V82.8206Z" fill="white"/>
<path opacity="0.2" d="M67.1613 82.8206H63.1553V87.0533H67.1613V82.8206Z" fill="white"/>
<path opacity="0.2" d="M67.1613 56.4893H63.1553V60.722H67.1613V56.4893Z" fill="white"/>
<path opacity="0.2" d="M71.5109 69.7649H67.5049V73.7709H71.5109V69.7649Z" fill="white"/>
<path opacity="0.2" d="M67.1613 65.4155H63.1553V69.4215H67.1613V65.4155Z" fill="white"/>
<path opacity="0.2" d="M67.1613 61.0659H63.1553V65.0719H67.1613V61.0659Z" fill="white"/>
<path d="M73.8617 82.1678C71.9336 82.166 70.0848 81.3997 68.7207 80.0369C67.3566 78.6741 66.5886 76.8261 66.585 74.8979V68.6449C66.585 66.715 67.3516 64.8642 68.7163 63.4995C70.0809 62.1348 71.9318 61.3682 73.8617 61.3682C75.7917 61.3682 77.6425 62.1348 79.0072 63.4995C80.3719 64.8642 81.1385 66.715 81.1385 68.6449V74.8979C81.1349 76.8261 80.3668 78.6741 79.0028 80.0369C77.6387 81.3997 75.7899 82.166 73.8617 82.1678ZM73.8617 62.0622C72.1158 62.064 70.4418 62.7579 69.2066 63.9918C67.9714 65.2257 67.2757 66.899 67.2721 68.6449V74.8979C67.2721 76.6456 67.9664 78.3217 69.2022 79.5575C70.438 80.7933 72.1141 81.4875 73.8617 81.4875C75.6094 81.4875 77.2855 80.7933 78.5213 79.5575C79.7571 78.3217 80.4514 76.6456 80.4514 74.8979V68.6449C80.4478 66.899 79.7521 65.2257 78.5169 63.9918C77.2817 62.7579 75.6077 62.064 73.8617 62.0622Z" fill="white"/>
<path d="M77.1456 70.9192C77.5706 70.9192 77.9152 70.4516 77.9152 69.8748C77.9152 69.2979 77.5706 68.8303 77.1456 68.8303C76.7205 68.8303 76.376 69.2979 76.376 69.8748C76.376 70.4516 76.7205 70.9192 77.1456 70.9192Z" fill="white"/>
<path d="M71.3458 69.8748C71.3458 70.4451 71.0023 70.9123 70.5762 70.9123C70.1502 70.9123 69.8066 70.4451 69.8066 69.8748C69.8066 69.3045 70.1502 68.8303 70.5762 68.8303C71.0023 68.8303 71.3458 69.2976 71.3458 69.8748Z" fill="white"/>
<path d="M73.902 70.9124L72.4521 74.6298H73.902V70.9124Z" fill="white"/>
<path d="M73.5998 77.2064C72.9444 77.2409 72.289 77.1379 71.6758 76.9041L71.9713 76.2856L71.8201 76.5949L71.9713 76.2856C71.9713 76.2856 73.2012 76.8285 75.8261 76.2856L75.9704 76.9728C75.1906 77.1341 74.396 77.2125 73.5998 77.2064Z" fill="white"/>
<path d="M273.467 10.5056H198.603C196.656 10.5056 195.078 12.0838 195.078 14.0306V88.8942C195.078 90.8411 196.656 92.4193 198.603 92.4193H273.467C275.414 92.4193 276.992 90.8411 276.992 88.8942V14.0306C276.992 12.0838 275.414 10.5056 273.467 10.5056Z" fill="#407BFF"/>
<path opacity="0.5" d="M264.995 60.9968H207.076C205.319 60.9968 203.895 62.4212 203.895 64.1783V74.7739C203.895 76.531 205.319 77.9554 207.076 77.9554H264.995C266.752 77.9554 268.176 76.531 268.176 74.7739V64.1783C268.176 62.4212 266.752 60.9968 264.995 60.9968Z" fill="white"/>
<path d="M215.383 69.4829L217.259 70.4999L216.448 71.9085L214.517 70.7747L214.551 72.8361H212.937V70.7335L211.04 71.8673L210.264 70.4999L212.14 69.4829L210.264 68.4522L211.088 67.0367L212.985 68.1773V66.0747H214.6L214.565 68.1773L216.462 67.0367L217.307 68.4522L215.383 69.4829Z" fill="white"/>
<path d="M226.521 69.4831L228.397 70.5001L227.559 71.9087L225.662 70.7749V72.8363H224.047V70.7337L222.158 71.8675L221.326 70.4588L223.202 69.4419L221.326 68.4112L222.158 66.9957L224.047 68.1363V66.0337H225.662V68.1363L227.559 66.9957L228.397 68.4112L226.521 69.4831Z" fill="white"/>
<path d="M237.667 69.4831L239.543 70.5001L238.698 71.9087L236.808 70.7749L236.843 72.8363H235.221V70.7337L233.325 71.8675L232.5 70.4588L234.376 69.4419L232.5 68.4112L233.325 66.9957L235.221 68.1363V66.0337H236.843L236.808 68.1363L238.698 66.9957L239.543 68.4112L237.667 69.4831Z" fill="white"/>
<path d="M248.813 69.4831L250.689 70.5001L249.843 71.9087L247.947 70.7749L247.981 72.8363H246.367V70.7337L244.477 71.8675L243.652 70.4588L245.528 69.4419L243.652 68.4112L244.477 66.9957L246.367 68.1363V66.0337H247.981L247.947 68.1363L249.843 66.9957L250.689 68.4112L248.813 69.4831Z" fill="white"/>
<path d="M259.951 69.4829L261.8 70.4999L260.962 71.9085L259.093 70.7747L259.127 72.8361H257.512V70.7335L255.616 71.9085L254.784 70.4999L256.66 69.4829L254.784 68.4522L255.616 67.0367L257.505 68.1773V66.0747H259.12L259.086 68.1773L260.982 67.0367L261.82 68.4522L259.951 69.4829Z" fill="white"/>
<path opacity="0.5" d="M249.018 48.8399C256.191 41.667 256.191 30.0376 249.018 22.8647C241.846 15.6919 230.216 15.6919 223.043 22.8647C215.87 30.0376 215.87 41.667 223.043 48.8399C230.216 56.0127 241.846 56.0127 249.018 48.8399Z" fill="white"/>
<path d="M243.246 34.8242H228.885C228.626 34.8233 228.369 34.8737 228.129 34.9725C227.89 35.0713 227.672 35.2165 227.489 35.3998C227.305 35.5831 227.16 35.8009 227.061 36.0406C226.963 36.2802 226.912 36.5371 226.913 36.7963V45.5436C226.913 46.0666 227.121 46.5682 227.491 46.938C227.861 47.3079 228.362 47.5157 228.885 47.5157H243.246C243.769 47.5157 244.271 47.3079 244.641 46.938C245.011 46.5682 245.218 46.0666 245.218 45.5436V36.7963C245.219 36.5371 245.169 36.2802 245.07 36.0406C244.971 35.8009 244.826 35.5831 244.643 35.3998C244.46 35.2165 244.242 35.0713 244.002 34.9725C243.762 34.8737 243.506 34.8233 243.246 34.8242ZM237.385 44.561H234.746L235.296 40.981C234.942 40.8072 234.658 40.5187 234.489 40.1625C234.32 39.8063 234.277 39.4034 234.366 39.0194C234.455 38.6355 234.672 38.293 234.98 38.0478C235.289 37.8026 235.672 37.6692 236.066 37.6692C236.46 37.6692 236.843 37.8026 237.151 38.0478C237.46 38.293 237.677 38.6355 237.766 39.0194C237.855 39.4034 237.812 39.8063 237.643 40.1625C237.474 40.5187 237.189 40.8072 236.835 40.981L237.385 44.561Z" fill="#407BFF"/>
<path d="M231.896 33.4219L231.628 32.0477C231.397 30.8968 231.633 29.7015 232.284 28.7247C232.935 27.7479 233.947 27.0697 235.098 26.8391C236.249 26.6086 237.444 26.8447 238.421 27.4955C239.397 28.1462 240.076 29.1583 240.306 30.3092L240.574 31.6491L243.11 31.1406L242.835 29.7664C242.67 28.8491 242.324 27.9739 241.817 27.192C241.31 26.41 240.652 25.7371 239.881 25.2126C239.111 24.688 238.244 24.3224 237.33 24.1371C236.417 23.9517 235.476 23.9504 234.562 24.1332C233.648 24.316 232.78 24.6792 232.008 25.2015C231.236 25.7239 230.576 26.395 230.067 27.1755C229.558 27.9559 229.209 28.8302 229.042 29.747C228.874 30.6638 228.891 31.6048 229.092 32.5149L229.36 33.8892L231.896 33.4219Z" fill="#407BFF"/>
<path opacity="0.2" d="M246.269 84.064H225.793C225.552 84.064 225.322 83.9684 225.151 83.7983C224.981 83.6282 224.886 83.3975 224.886 83.157C224.888 82.9176 224.984 82.6887 225.154 82.5201C225.324 82.3514 225.553 82.2568 225.793 82.2568H246.269C246.509 82.2568 246.739 82.3514 246.908 82.5201C247.078 82.6887 247.175 82.9176 247.176 83.157C247.176 83.3975 247.081 83.6282 246.911 83.7983C246.741 83.9684 246.51 84.064 246.269 84.064Z" fill="black"/>
<path d="M178.443 83.6863L185.48 77.7082C185.48 77.7082 191.471 71.359 192.736 71.2216C194 71.0842 196.728 71.627 197.45 72.534C198.171 73.4411 192.763 79.3367 191.492 80.4224C190.221 81.508 187.685 81.3294 187.685 81.3294L180.979 87.8091L178.443 83.6863Z" fill="#EBB376"/>
<path d="M124.158 243.322H117.356C117.245 243.325 117.139 243.365 117.053 243.434C116.968 243.504 116.907 243.6 116.882 243.707L115.775 248.696C115.73 248.911 115.773 249.135 115.892 249.319C116.012 249.503 116.2 249.632 116.414 249.678H116.593C118.792 249.644 120.4 249.507 123.162 249.507C124.866 249.507 129.999 249.685 132.349 249.685C134.699 249.685 135.008 247.363 134.046 247.15C129.731 246.208 126.488 244.91 125.114 243.666C124.851 243.434 124.509 243.311 124.158 243.322Z" fill="#263238"/>
<path d="M153.005 243.151H146.202C146.091 243.151 145.984 243.19 145.898 243.26C145.812 243.33 145.752 243.427 145.728 243.535L144.622 248.517C144.577 248.732 144.619 248.956 144.739 249.14C144.859 249.324 145.046 249.454 145.261 249.5H145.44C147.645 249.465 149.246 249.328 152.009 249.328C153.713 249.328 158.846 249.507 161.196 249.507C163.546 249.507 163.855 247.184 162.893 246.971C158.578 246.03 155.334 244.731 153.96 243.487C153.696 243.258 153.355 243.137 153.005 243.151Z" fill="#263238"/>
<path d="M120.552 117.239H150.27C153.095 132.665 161.175 195.113 154.833 243.762L144.911 244.848C144.911 244.848 146.464 170.087 137.586 146.209C136.562 158.99 135.346 172.581 134.294 179.817C131.711 197.627 125.884 244.03 125.884 244.03L115.824 244.305C115.824 244.305 118.03 199.29 118.992 181.775C120.057 162.79 120.51 121.135 120.552 117.239Z" fill="#263238"/>
<path opacity="0.2" d="M120.552 117.239H150.27C153.095 132.665 161.175 195.113 154.833 243.762L144.911 244.848C144.911 244.848 146.464 170.087 137.586 146.209C136.562 158.99 135.346 172.581 134.294 179.817C131.711 197.627 125.884 244.03 125.884 244.03L115.824 244.305C115.824 244.305 118.03 199.29 118.992 181.775C120.057 162.79 120.51 121.135 120.552 117.239Z" fill="white"/>
<path opacity="0.2" d="M137.585 146.209C139.047 150.395 140.157 154.695 140.904 159.066C141.735 147.694 138.41 135.634 138.41 135.634L137.585 146.209Z" fill="black"/>
<path d="M147.555 65.821C152.249 66.3914 161.491 87.727 165.022 89.6304C168.554 91.5337 182.558 79.5707 182.558 79.5707L186.09 83.9203C186.09 83.9203 170.19 100.913 163.937 99.0373C157.684 97.1614 148.82 81.0961 146.133 76.0663C143.446 71.0364 147.555 65.821 147.555 65.821Z" fill="#407BFF"/>
<path opacity="0.5" d="M186.09 83.9201C186.09 83.9201 170.189 100.906 163.937 99.0371C161.188 98.2057 157.986 94.6807 155.004 90.5578C151.753 85.9169 148.793 81.0794 146.14 76.073C145.56 74.9264 145.246 73.6641 145.22 72.3797C145.193 71.0952 145.456 69.8212 145.988 68.6519C146.39 67.6534 146.919 66.7111 147.562 65.8484C152.255 66.4187 161.497 87.7612 165.029 89.6646C168.561 91.5679 182.565 79.6049 182.565 79.6049L186.09 83.9201Z" fill="white"/>
<path opacity="0.2" d="M154.998 90.5236C151.747 85.8827 148.787 81.0452 146.134 76.0388C145.554 74.8921 145.24 73.6299 145.214 72.3454C145.188 71.0609 145.45 69.787 145.983 68.6177C148.656 71.9091 154.091 79.8111 154.998 90.5236Z" fill="black"/>
<path d="M147.556 65.821C147.556 65.821 128.653 64.9277 114.573 68.4802C114.573 68.4802 119.85 109.372 119.617 127.182L153.287 125.368C153.287 125.368 152.469 84.195 147.556 65.821Z" fill="#407BFF"/>
<path opacity="0.6" d="M119.616 127.182C119.726 118.902 118.64 105.634 117.452 93.8012C116.998 89.2867 116.531 84.9783 116.077 81.2403C115.218 73.7161 114.545 68.487 114.545 68.487C128.624 64.9345 147.528 65.8278 147.528 65.8278C152.441 84.2019 153.293 125.375 153.293 125.375L119.616 127.182Z" fill="white"/>
<path opacity="0.2" d="M117.452 93.7945C116.999 89.2801 116.532 84.9717 116.078 81.2337L118.243 79.5708C118.243 79.5708 120.153 87.0194 117.452 93.7945Z" fill="black"/>
<path opacity="0.2" d="M147.309 109.942L145.46 110.032L140.444 110.265L137.366 110.41L130.955 110.712C130.955 110.712 130.955 110.396 130.92 109.819C130.866 108.575 130.756 106.115 130.57 103.016C130.439 100.707 130.261 98.0413 130.041 95.2515C129.883 93.3275 129.711 91.3485 129.512 89.3902C129.216 86.4836 128.873 83.6114 128.467 81.0277C128.254 79.6535 128.021 78.341 127.78 77.1592L143.729 76.1216C143.729 76.1216 143.935 77.1317 144.244 78.8701C144.45 80.0108 144.698 81.4675 144.966 83.1716C146.403 92.0256 147.186 100.973 147.309 109.942Z" fill="black"/>
<path opacity="0.2" d="M140.444 110.279L137.365 110.423C139.557 104.851 140.416 96.9967 138.946 94.5505C136.953 91.2385 134.507 97.5876 132.761 105.201C132.434 106.844 131.805 108.412 130.906 109.826C130.851 108.582 130.741 106.122 130.556 103.023C131.539 101.39 132.282 99.6246 132.761 97.78C135.214 89.1702 137.393 87.631 140.196 89.8917C142.78 91.96 143.536 101.992 140.444 110.279Z" fill="black"/>
<path opacity="0.2" d="M145.46 110.045C146.085 102.741 145.123 90.4342 142.98 86.6481C140.527 82.3054 135.112 82.2092 132.508 90.0838C131.936 91.9215 131.105 93.6683 130.041 95.2716C129.883 93.3477 129.711 91.3687 129.512 89.4104C130.245 88.4931 130.9 87.5162 131.47 86.49C134.438 81.2334 139.029 78.7872 143.564 81.845C144.094 82.2251 144.558 82.6894 144.938 83.2193C146.382 92.0567 147.175 100.988 147.309 109.942L145.46 110.045Z" fill="black"/>
<path opacity="0.2" d="M144.237 78.8976C140.671 76.204 135.854 76.9324 132.776 79.4817C131.6 80.5456 130.051 81.1013 128.467 81.0277C128.254 79.6535 128.021 78.341 127.78 77.1592L143.729 76.1216C143.729 76.1216 143.928 77.1317 144.237 78.8976Z" fill="black"/>
<path d="M125.608 67.0649C128.323 69.5317 134.974 68.6178 134.974 68.6178C134.974 68.6178 139.097 67.484 138.252 66.1853C135.806 65.7799 134.624 64.6393 134.129 63.1825C133.857 62.2769 133.773 61.3252 133.882 60.3859C133.92 59.8624 133.989 59.3416 134.088 58.8261L125.842 52.738C126.948 56.7578 128.268 64.1514 125.608 67.0649Z" fill="#EBB376"/>
<path opacity="0.2" d="M127.766 56.6064C128.095 61.5401 132.15 62.9006 134.135 63.1823C133.863 62.2767 133.779 61.325 133.888 60.3857L127.766 56.6064Z" fill="black"/>
<path d="M139.784 39.9575C139.784 39.9575 142.079 47.3786 138.486 50.9036C134.892 54.4286 132.775 40.2942 132.775 40.2942L139.784 39.9575Z" fill="#263238"/>
<path d="M127.691 58.6885C128.722 59.8131 130.095 60.5675 131.597 60.8357C133.1 61.1039 134.648 60.8709 136.005 60.1727C137.78 59.3062 139.156 57.7945 139.853 55.9468C139.951 55.6902 140.036 55.4287 140.107 55.1635C141.392 50.2298 140.795 42.0185 135.442 39.7098C134.259 39.1956 132.965 38.9925 131.682 39.1196C130.399 39.2467 129.17 39.6999 128.112 40.436C127.053 41.1722 126.201 42.1668 125.635 43.3254C125.07 44.484 124.81 45.7679 124.88 47.0553C125.093 52.5661 124.956 55.8231 127.691 58.6885Z" fill="#EBB376"/>
<path d="M133.222 48.7864C133.181 49.2259 133.442 49.6036 133.737 49.6036C134.032 49.6036 134.273 49.2465 134.287 48.8001C134.3 48.3537 134.06 47.9829 133.771 47.9829C133.483 47.9829 133.236 48.3125 133.222 48.7864Z" fill="#263238"/>
<path d="M138.3 48.8689C138.259 49.3084 138.527 49.6861 138.815 49.6861C139.104 49.6861 139.351 49.329 139.365 48.8826C139.378 48.4363 139.138 48.0654 138.849 48.0654C138.561 48.0654 138.314 48.4431 138.3 48.8689Z" fill="#263238"/>
<path d="M136.685 49.0547C137.187 50.4409 137.881 51.75 138.747 52.9439C138.432 53.1575 138.075 53.3001 137.7 53.3618C137.325 53.4235 136.941 53.4028 136.575 53.3012L136.685 49.0547Z" fill="#D58745"/>
<path d="M131.675 47.0898C131.724 47.0978 131.773 47.0931 131.819 47.0762C131.864 47.0593 131.905 47.0309 131.937 46.9936C132.135 46.7287 132.392 46.5137 132.688 46.3657C132.983 46.2178 133.31 46.141 133.641 46.1416C133.711 46.1473 133.78 46.1253 133.834 46.0803C133.888 46.0354 133.922 45.971 133.929 45.9011C133.932 45.8668 133.928 45.8322 133.917 45.7995C133.907 45.7667 133.89 45.7364 133.868 45.7102C133.845 45.684 133.818 45.6625 133.787 45.6469C133.757 45.6313 133.723 45.6219 133.689 45.6193C133.271 45.6068 132.856 45.6951 132.479 45.877C132.102 46.0588 131.775 46.3286 131.524 46.6638C131.481 46.7169 131.461 46.7848 131.467 46.8529C131.473 46.921 131.506 46.9839 131.559 47.028C131.595 47.0532 131.634 47.074 131.675 47.0898Z" fill="#263238"/>
<path d="M140.519 47.1583C140.568 47.175 140.622 47.175 140.671 47.1583C140.702 47.1448 140.731 47.1252 140.755 47.1006C140.779 47.076 140.798 47.0469 140.811 47.015C140.823 46.9831 140.83 46.949 140.829 46.9146C140.829 46.8802 140.822 46.8463 140.808 46.8147C140.64 46.4296 140.382 46.0907 140.055 45.8264C139.729 45.562 139.344 45.3802 138.932 45.2961C138.864 45.2863 138.794 45.3039 138.739 45.3451C138.684 45.3863 138.647 45.4477 138.637 45.516C138.629 45.584 138.647 45.6526 138.688 45.7075C138.729 45.7625 138.789 45.7997 138.857 45.8115C139.18 45.8873 139.481 46.0381 139.735 46.2518C139.989 46.4655 140.19 46.736 140.32 47.0415C140.343 47.0739 140.373 47.1011 140.407 47.1212C140.442 47.1414 140.48 47.154 140.519 47.1583Z" fill="#263238"/>
<path d="M129.065 40.2527L129.429 42.6714C129.024 42.8798 128.713 43.233 128.556 43.6608C128.399 44.0885 128.41 44.5595 128.584 44.9802C129.423 47.0416 128.351 50.2093 126.818 51.5149C126.818 51.5149 126.743 50.6353 126.001 50.8621C125.259 51.0888 125.588 55.6721 127.114 57.864C125.175 55.8611 123.79 53.3892 123.094 50.6903C121.823 46.2445 121.953 42.9463 122.826 41.1872L129.065 40.2527Z" fill="#263238"/>
<path d="M136.994 54.648C136.765 55.2863 136.583 55.9409 136.452 56.6064C136.333 56.6133 136.213 56.6133 136.094 56.6064C134.473 56.5377 133.744 55.9674 133.428 55.3558C133.282 55.0542 133.209 54.7222 133.215 54.3869C133.214 54.1965 133.239 54.0068 133.291 53.8235C134.269 54.3164 135.343 54.5907 136.438 54.6274C136.781 54.648 136.994 54.648 136.994 54.648Z" fill="#263238"/>
<path d="M136.438 54.6138L136.266 55.191C134.74 55.1154 133.675 54.8611 133.215 54.3733C133.213 54.1828 133.239 53.9931 133.29 53.8098C134.269 54.3027 135.343 54.577 136.438 54.6138Z" fill="white"/>
<path d="M136.095 56.5924C134.473 56.5237 133.745 55.9533 133.429 55.3418C134.046 55.3818 134.65 55.5307 135.215 55.7816C135.587 55.9515 135.895 56.2355 136.095 56.5924Z" fill="#DE5753"/>
<path d="M132.7 41.7575C132.877 41.5168 133.132 41.3449 133.422 41.271C133.711 41.1971 134.017 41.2257 134.288 41.3521C135.449 41.6888 136.473 42.8569 137.668 44.3411C138.864 45.8254 141.228 45.8322 141.791 44.9527C142.355 44.0732 141.248 42.8432 141.248 42.8432C141.248 42.8432 142.265 37.2018 136.115 35.91C129.966 34.6182 126.729 37.3392 126.729 37.3392C126.729 37.3392 121.624 37.511 121.232 42.2316C121.099 44.1487 121.215 46.0749 121.576 47.9624C121.576 47.9624 120.201 49.6871 122.785 49.584C125.719 49.4672 129.244 47.873 129.416 45.0214C129.588 42.1698 132.7 41.7575 132.7 41.7575Z" fill="#263238"/>
<path d="M122.379 51.5357C122.967 52.795 124.029 53.7707 125.333 54.2499C127.065 54.8683 128.082 53.3497 127.697 51.6456C127.354 50.127 126.055 47.9351 124.262 48.0656C122.468 48.1962 121.678 49.969 122.379 51.5357Z" fill="#EBB376"/>
<path d="M114.573 68.4805C109.646 69.9166 102.761 103.442 103.668 107.792C104.575 112.141 121.877 130.467 121.877 130.467L126.687 126.818C126.687 126.818 111.983 105.998 111.804 101.649C111.625 97.299 118.325 81.1719 118.325 81.1719C118.325 81.1719 118.146 75.7366 117.418 73.0156C116.907 71.2702 115.922 69.7004 114.573 68.4805Z" fill="#407BFF"/>
<path opacity="0.5" d="M114.573 68.4805C109.646 69.9166 102.761 103.442 103.668 107.792C104.575 112.141 121.877 130.467 121.877 130.467L126.687 126.818C126.687 126.818 111.983 105.998 111.804 101.649C111.625 97.299 118.325 81.1719 118.325 81.1719C118.325 81.1719 118.146 75.7366 117.418 73.0156C116.907 71.2702 115.922 69.7004 114.573 68.4805Z" fill="white"/>
</svg>
