<svg width="500" height="379" viewBox="0 0 500 379" fill="none" xmlns="http://www.w3.org/2000/svg">
<path d="M500 332.9H0V333.15H500V332.9Z" fill="#EBEBEB"/>
<path d="M85.58 342.42H52.46V342.67H85.58V342.42Z" fill="#EBEBEB"/>
<path d="M179.83 339.71H145.33V339.96H179.83V339.71Z" fill="#EBEBEB"/>
<path d="M131.5 347.25H76.08V347.5H131.5V347.25Z" fill="#EBEBEB"/>
<path d="M448.83 348.17H405.64V348.42H448.83V348.17Z" fill="#EBEBEB"/>
<path d="M393.33 341.92H370.43V342.17H393.33V341.92Z" fill="#EBEBEB"/>
<path d="M289.31 345.93H195.63V346.18H289.31V345.93Z" fill="#EBEBEB"/>
<path d="M237 288.3H43.91C42.3973 288.297 40.9476 287.695 39.8789 286.624C38.8102 285.554 38.21 284.103 38.21 282.59V11.16C38.2232 9.65603 38.8292 8.21798 39.8964 7.15822C40.9637 6.09846 42.406 5.50258 43.91 5.5H237C238.514 5.5 239.967 6.10159 241.038 7.17242C242.108 8.24325 242.71 9.69561 242.71 11.21V282.59C242.71 284.104 242.108 285.557 241.038 286.628C239.967 287.698 238.514 288.3 237 288.3ZM43.91 5.7C42.4637 5.70265 41.0774 6.27907 40.0557 7.30273C39.0339 8.32639 38.46 9.71365 38.46 11.16V282.59C38.46 284.036 39.0339 285.424 40.0557 286.447C41.0774 287.471 42.4637 288.047 43.91 288.05H237C238.447 288.047 239.835 287.471 240.858 286.448C241.881 285.424 242.457 284.037 242.46 282.59V11.16C242.457 9.71273 241.881 8.32549 240.858 7.30212C239.835 6.27874 238.447 5.70264 237 5.7H43.91Z" fill="#EBEBEB"/>
<path d="M453.31 288.3H260.21C258.696 288.297 257.246 287.695 256.175 286.625C255.105 285.554 254.503 284.104 254.5 282.59V11.16C254.516 9.65511 255.124 8.21708 256.193 7.15759C257.262 6.09811 258.705 5.50255 260.21 5.5H453.31C454.812 5.5052 456.252 6.10225 457.317 7.16173C458.382 8.22121 458.987 9.65775 459 11.16V282.59C459 284.101 458.401 285.55 457.335 286.621C456.268 287.691 454.821 288.295 453.31 288.3ZM260.21 5.7C258.763 5.70264 257.375 6.27874 256.352 7.30212C255.329 8.32549 254.753 9.71273 254.75 11.16V282.59C254.753 284.037 255.329 285.424 256.352 286.448C257.375 287.471 258.763 288.047 260.21 288.05H453.31C454.757 288.047 456.145 287.471 457.168 286.448C458.191 285.424 458.767 284.037 458.77 282.59V11.16C458.767 9.71273 458.191 8.32549 457.168 7.30212C456.145 6.27874 454.757 5.70264 453.31 5.7H260.21Z" fill="#EBEBEB"/>
<path d="M311.76 202.09H283.42V324.99H311.76V202.09Z" fill="#F0F0F0"/>
<path d="M428.61 324.99H288.86V332.78H428.61V324.99Z" fill="#F0F0F0"/>
<path d="M311.76 324.99H434.05V202.09H311.76V324.99Z" fill="#F5F5F5"/>
<path d="M322.9 257.52H422.91V217.21H322.9V257.52Z" fill="#F0F0F0"/>
<path d="M322.9 309.87H422.91V269.56H322.9V309.87Z" fill="#F0F0F0"/>
<path d="M384.13 220.62H361.68C360.946 220.617 360.243 220.325 359.724 219.806C359.205 219.287 358.913 218.584 358.91 217.85C358.913 217.117 359.206 216.415 359.725 215.898C360.244 215.38 360.947 215.09 361.68 215.09H384.13C384.863 215.09 385.566 215.38 386.085 215.898C386.604 216.415 386.897 217.117 386.9 217.85C386.897 218.584 386.605 219.287 386.086 219.806C385.567 220.325 384.864 220.617 384.13 220.62Z" fill="#F5F5F5"/>
<path d="M384.13 272.95H361.68C360.947 272.95 360.244 272.66 359.725 272.142C359.206 271.625 358.913 270.923 358.91 270.19C358.913 269.457 359.206 268.755 359.725 268.238C360.244 267.72 360.947 267.43 361.68 267.43H384.13C384.863 267.43 385.566 267.72 386.085 268.238C386.604 268.755 386.897 269.457 386.9 270.19C386.897 270.923 386.604 271.625 386.085 272.142C385.566 272.66 384.863 272.95 384.13 272.95Z" fill="#F5F5F5"/>
<path d="M372.3 32.58H321.34V88.16H372.3V32.58Z" fill="#E0E0E0"/>
<path d="M375.35 32.58H323.06V88.16H375.35V32.58Z" fill="#F5F5F5"/>
<path d="M370.96 83.78V36.96H327.44V83.78H370.96Z" fill="white"/>
<path d="M354.53 68.72L359.69 59.78C360.231 58.8454 360.516 57.7849 360.517 56.7051C360.518 55.6253 360.234 54.5644 359.695 53.6289C359.156 52.6934 358.38 51.9163 357.445 51.3758C356.51 50.8354 355.45 50.5505 354.37 50.55H344C342.921 50.5518 341.861 50.8373 340.926 51.3777C339.992 51.9182 339.216 52.6947 338.676 53.6295C338.136 54.5643 337.852 55.6245 337.85 56.7039C337.849 57.7834 338.132 58.8442 338.67 59.78L343.84 68.72C344.377 69.6638 345.155 70.4486 346.094 70.9945C347.032 71.5405 348.099 71.828 349.185 71.828C350.271 71.828 351.338 71.5405 352.276 70.9945C353.215 70.4486 353.993 69.6638 354.53 68.72Z" fill="#F5F5F5"/>
<path d="M126.28 129.37H94.81V332.9H126.28V129.37Z" fill="#E0E0E0"/>
<path d="M206.48 332.9H101.11L90.04 82.39H195.41L206.48 332.9Z" fill="#E6E6E6"/>
<path d="M221.85 332.9H105.3L94.23 82.39H210.78L221.85 332.9Z" fill="#F0F0F0"/>
<path d="M116.71 320.62L107.38 94.67H199.37L208.7 320.62H116.71Z" fill="white"/>
<path d="M156.23 320.62L124.96 94.67H134.77L166.04 320.62H156.23Z" fill="#FAFAFA"/>
<path d="M170.2 320.62L138.93 94.67H155.66L186.93 320.62H170.2Z" fill="#FAFAFA"/>
<path d="M378.7 197.02H381C381 192.28 381 180.25 381.24 152.68C381.65 102.68 382.45 99.68 382.45 99.68L377 122.74C373.49 148.28 378 173.95 378.7 197.02Z" fill="#E6E6E6"/>
<path d="M374.15 119.3C366.26 109.9 349.4 107.16 332.15 104.82C325.38 103.9 349.96 119.38 361.97 130.38C371.31 138.92 377.27 141.28 379.83 149.79C381.16 139.18 380.94 127.4 374.15 119.3Z" fill="#E6E6E6"/>
<path d="M384.61 136.1C392.5 126.7 409.35 123.96 426.61 121.62C433.39 120.71 408.81 136.19 396.79 147.18C387.46 155.73 381.49 158.09 378.93 166.6C377.6 155.98 377.81 144.2 384.61 136.1Z" fill="#E6E6E6"/>
<path d="M381.23 97.5C387.15 86.26 402.03 75.68 418.73 71.67C425.29 70.09 403.54 92.42 395.28 106.82C388.86 117.96 380.34 131.1 379 140.5C377 121.84 375.32 108.7 381.23 97.5Z" fill="#E6E6E6"/>
<path d="M380.53 202.41C373.53 202.41 367.66 198.88 367.26 194.41L366.09 186.69H395L393.83 194.41C393.4 198.88 387.58 202.41 380.53 202.41Z" fill="#F0F0F0"/>
<path d="M396.85 189.61H364.21L363.28 181.01H397.79L396.85 189.61Z" fill="#F0F0F0"/>
<path d="M250 378.06C357.082 378.06 443.89 372.992 443.89 366.74C443.89 360.488 357.082 355.42 250 355.42C142.918 355.42 56.11 360.488 56.11 366.74C56.11 372.992 142.918 378.06 250 378.06Z" fill="#F5F5F5"/>
<path d="M280.92 105C280.92 77.1523 269.858 50.4451 250.166 30.7538C230.475 11.0625 203.768 0 175.92 0C148.072 0 121.365 11.0625 101.674 30.7538C81.9825 50.4451 70.92 77.1523 70.92 105C70.92 150.53 99.04 187.75 140.41 203.84L212.56 231.84L198.87 207.5C222.155 202.275 242.967 189.278 257.881 170.647C272.794 152.017 280.92 128.864 280.92 105Z" fill="#407BFF"/>
<path d="M173.57 200.5C154.22 200.498 135.304 194.758 119.216 184.006C103.127 173.254 90.5885 157.973 83.1848 140.095C75.781 122.217 73.8449 102.545 77.6212 83.5662C81.3975 64.5878 90.7166 47.1553 104.4 33.4731C118.084 19.791 135.517 10.4736 154.496 6.69923C173.475 2.92486 193.147 4.863 211.024 12.2686C228.901 19.6741 244.181 32.2145 254.932 48.304C265.682 64.3935 271.42 83.3095 271.42 102.66C271.391 128.602 261.072 153.472 242.728 171.815C224.383 190.157 199.512 200.474 173.57 200.5ZM173.57 5.81999C154.417 5.82197 135.695 11.5032 119.771 22.1453C103.847 32.7874 91.4367 47.9125 84.1086 65.6079C76.7806 83.3032 74.8643 102.774 78.602 121.559C82.3397 140.343 91.5636 157.597 105.107 171.14C118.651 184.682 135.906 193.904 154.691 197.64C173.476 201.376 192.947 199.457 210.641 192.128C228.336 184.798 243.46 172.385 254.1 156.46C264.741 140.535 270.42 121.813 270.42 102.66C270.378 76.9877 260.16 52.3791 242.006 34.227C223.852 16.0748 199.242 5.85965 173.57 5.81999Z" fill="white"/>
<path d="M104.92 109.77C104.92 96.21 107.677 85.3533 113.19 77.2C115.725 73.2913 119.119 70.0134 123.114 67.6165C127.109 65.2197 131.598 63.7672 136.24 63.37C146.327 62.2767 154.103 65.1467 159.57 71.98C165.037 78.8133 167.767 88.9133 167.76 102.28C167.76 111.993 166.567 120.083 164.18 126.55C162.114 132.549 158.556 137.924 153.84 142.17C149.092 146.213 143.195 148.661 136.98 149.17C130.14 149.91 124.473 149.03 119.98 146.53C115.487 144.03 111.853 139.697 109.08 133.53C106.307 127.397 104.92 119.477 104.92 109.77ZM123.66 107.85C123.66 116.243 124.797 122.147 127.07 125.56C128.003 127.141 129.383 128.411 131.036 129.21C132.689 130.009 134.541 130.301 136.36 130.05C138.328 129.845 140.213 129.152 141.846 128.034C143.478 126.917 144.806 125.41 145.71 123.65C147.903 119.817 149 113.257 149 103.97C149 96.15 147.85 90.5633 145.55 87.21C144.586 85.6419 143.184 84.3899 141.518 83.6082C139.851 82.8264 137.992 82.549 136.17 82.81C132.397 83.2233 129.363 85.3833 127.07 89.29C124.777 93.1967 123.64 99.3833 123.66 107.85Z" fill="white"/>
<path d="M177.94 60.27L196.68 58.27V89.66L216.31 56.15L241.24 53.44L219.11 87.19L242.23 136.4L219.15 138.9L206.36 106.13L196.68 121.07V141.3L177.94 143.3V60.27Z" fill="white"/>
<path d="M85.62 24.96C84.1105 24.962 82.6343 24.5162 81.3783 23.679C80.1222 22.8418 79.1427 21.6508 78.5637 20.2568C77.9846 18.8628 77.8321 17.3283 78.1254 15.8476C78.4187 14.3669 79.1446 13.0064 80.2112 11.9383C81.2779 10.8703 82.6374 10.1426 84.1178 9.84736C85.5981 9.55214 87.1328 9.70265 88.5276 10.2799C89.9223 10.8571 91.1146 11.835 91.9534 13.09C92.7923 14.3449 93.24 15.8205 93.24 17.33C93.2374 19.3511 92.434 21.2887 91.0058 22.7188C89.5777 24.1488 87.6411 24.9547 85.62 24.96ZM85.62 10.71C84.3079 10.708 83.0246 11.0954 81.9328 11.8232C80.841 12.551 79.9897 13.5863 79.4866 14.7982C78.9836 16.0101 78.8514 17.344 79.1069 18.631C79.3624 19.918 79.9941 21.1003 80.9219 22.0281C81.8497 22.9559 83.032 23.5876 84.319 23.8431C85.606 24.0986 86.9399 23.9665 88.1518 23.4634C89.3637 22.9604 90.3991 22.109 91.1268 21.0172C91.8546 19.9254 92.242 18.6422 92.24 17.33C92.2374 15.5751 91.539 13.8928 90.2981 12.6519C89.0572 11.411 87.3749 10.7127 85.62 10.71Z" fill="#407BFF"/>
<path d="M159.79 228.1C158.781 228.1 157.794 227.801 156.956 227.24C156.117 226.679 155.463 225.882 155.077 224.949C154.692 224.017 154.591 222.991 154.789 222.001C154.986 221.012 155.473 220.103 156.187 219.39C156.902 218.677 157.811 218.192 158.801 217.997C159.791 217.801 160.817 217.904 161.749 218.291C162.68 218.679 163.476 219.334 164.035 220.174C164.595 221.014 164.892 222.001 164.89 223.01C164.887 224.361 164.349 225.656 163.393 226.61C162.437 227.564 161.141 228.1 159.79 228.1ZM159.79 218.91C158.979 218.91 158.186 219.151 157.512 219.601C156.838 220.052 156.312 220.692 156.002 221.441C155.692 222.19 155.611 223.015 155.769 223.81C155.927 224.605 156.317 225.336 156.891 225.909C157.464 226.483 158.195 226.873 158.99 227.031C159.785 227.189 160.61 227.108 161.359 226.798C162.108 226.488 162.749 225.962 163.199 225.288C163.65 224.614 163.89 223.821 163.89 223.01C163.89 221.923 163.458 220.88 162.689 220.111C161.92 219.342 160.877 218.91 159.79 218.91Z" fill="#407BFF"/>
<path d="M254.82 22.62C254.82 22.9848 254.712 23.3413 254.508 23.6443C254.305 23.9473 254.017 24.1831 253.679 24.3218C253.342 24.4604 252.971 24.4957 252.614 24.4231C252.256 24.3504 251.928 24.1732 251.672 23.9139C251.415 23.6545 251.242 23.3248 251.173 22.9666C251.104 22.6083 251.144 22.2378 251.286 21.9019C251.428 21.5661 251.667 21.2801 251.972 21.0803C252.278 20.8806 252.635 20.7761 253 20.78C253.485 20.7853 253.947 20.9815 254.288 21.326C254.629 21.6705 254.82 22.1355 254.82 22.62Z" fill="#407BFF"/>
<path d="M141.22 221.17C141.22 221.534 141.112 221.89 140.909 222.193C140.707 222.496 140.419 222.732 140.082 222.871C139.745 223.01 139.375 223.046 139.017 222.974C138.66 222.902 138.332 222.726 138.075 222.467C137.818 222.209 137.644 221.88 137.574 221.523C137.504 221.165 137.542 220.795 137.683 220.459C137.824 220.123 138.061 219.836 138.365 219.635C138.669 219.434 139.026 219.328 139.39 219.33C139.876 219.333 140.342 219.528 140.685 219.872C141.028 220.217 141.22 220.684 141.22 221.17Z" fill="#407BFF"/>
<path d="M328.42 336.78L334.44 360.34L345.73 357.57L339.7 334L328.42 336.78Z" fill="#FF8B7B"/>
<path d="M346 352.76L333.21 355.5C333.011 355.539 332.834 355.651 332.714 355.814C332.594 355.977 332.539 356.179 332.56 356.38L333.44 365.74C333.468 365.975 333.545 366.202 333.666 366.406C333.787 366.61 333.949 366.786 334.142 366.924C334.335 367.061 334.555 367.157 334.787 367.204C335.019 367.252 335.258 367.25 335.49 367.2C339.49 366.2 340.7 365.66 345.76 364.56C351.68 363.26 353.76 363.61 360.76 362.09C364.96 361.17 364.76 356.77 362.89 356.76C357.913 356.767 353.023 355.463 348.71 352.98C347.868 352.561 346.898 352.483 346 352.76Z" fill="#263238"/>
<path opacity="0.2" d="M328.41 336.79L331.52 348.93L342.81 346.16L339.7 334.01L328.41 336.79Z" fill="black"/>
<path d="M308.3 246.02C294.86 206.47 284.21 159.82 284.21 159.82L322.56 157.4C322.56 157.4 328.21 217.96 331.16 245.88C334.22 274.88 343.75 340.43 343.75 340.43L326.45 343.94C326.45 343.94 310.22 282.21 308.3 246.02Z" fill="#407BFF"/>
<path opacity="0.2" d="M301.9 181.8L292.59 193.31C294.96 202.19 297.74 212.17 300.78 222.38C302.528 208.926 302.903 195.33 301.9 181.8Z" fill="black"/>
<path d="M343.49 342.86L327.63 346.34C327.314 346.407 326.985 346.356 326.703 346.198C326.421 346.04 326.207 345.785 326.1 345.48L324.35 340.36C324.292 340.187 324.271 340.004 324.288 339.822C324.304 339.64 324.359 339.464 324.447 339.304C324.535 339.144 324.656 339.004 324.801 338.894C324.946 338.783 325.113 338.703 325.29 338.66L342.51 334.61C342.695 334.566 342.888 334.563 343.075 334.601C343.262 334.639 343.438 334.718 343.591 334.831C343.745 334.944 343.871 335.09 343.963 335.257C344.054 335.424 344.108 335.61 344.12 335.8L344.52 341.49C344.544 341.804 344.452 342.117 344.263 342.369C344.073 342.621 343.799 342.795 343.49 342.86Z" fill="#263238"/>
<path opacity="0.1" d="M343.49 342.86L327.63 346.34C327.314 346.407 326.985 346.356 326.703 346.198C326.421 346.04 326.207 345.785 326.1 345.48L324.35 340.36C324.292 340.187 324.271 340.004 324.288 339.822C324.304 339.64 324.359 339.464 324.447 339.304C324.535 339.144 324.656 339.004 324.801 338.894C324.946 338.783 325.113 338.703 325.29 338.66L342.51 334.61C342.695 334.566 342.888 334.563 343.075 334.601C343.262 334.639 343.438 334.718 343.591 334.831C343.745 334.944 343.871 335.09 343.963 335.257C344.054 335.424 344.108 335.61 344.12 335.8L344.52 341.49C344.544 341.804 344.452 342.117 344.263 342.369C344.073 342.621 343.799 342.795 343.49 342.86Z" fill="white"/>
<path d="M265.16 335.96L264.45 360.27L276.08 360.11L276.79 335.8L265.16 335.96Z" fill="#FF8B7B"/>
<path d="M276.36 355.12L264 355.3C263.798 355.299 263.604 355.373 263.454 355.508C263.304 355.643 263.21 355.829 263.19 356.03L262.19 365.38C262.172 365.616 262.203 365.853 262.282 366.077C262.36 366.3 262.484 366.505 262.646 366.678C262.808 366.851 263.003 366.988 263.221 367.082C263.439 367.175 263.673 367.222 263.91 367.22C268.02 367.09 269.32 366.75 274.5 366.67C280.56 366.57 281.87 367.33 288.97 367.22C293.27 367.15 293.97 362.8 292.12 362.42C287.252 361.432 282.728 359.183 279 355.9C278.253 355.31 277.308 355.031 276.36 355.12Z" fill="#263238"/>
<path opacity="0.2" d="M265.16 335.97L264.79 348.5L276.43 348.33L276.79 335.8L265.16 335.97Z" fill="black"/>
<path d="M268.06 245.22C271.34 203.61 268.57 181.17 273.4 160.5L308.3 158.34C308.3 158.34 297.47 219.5 291.48 247.16C285.49 274.82 279.07 342.01 279.07 342.01L261.92 342.22C261.92 342.22 259.82 277.68 268.06 245.22Z" fill="#407BFF"/>
<path d="M279 345.09L262.78 345.34C262.442 345.344 262.116 345.218 261.867 344.99C261.618 344.761 261.465 344.447 261.44 344.11L261.09 338.75C261.079 338.574 261.104 338.398 261.162 338.232C261.22 338.066 261.311 337.913 261.43 337.782C261.548 337.652 261.691 337.546 261.851 337.472C262.011 337.398 262.184 337.356 262.36 337.35L280.03 336.8C280.227 336.795 280.423 336.834 280.604 336.915C280.784 336.996 280.944 337.116 281.071 337.266C281.199 337.417 281.291 337.594 281.341 337.785C281.391 337.976 281.397 338.176 281.36 338.37L280.27 344.02C280.215 344.318 280.058 344.587 279.826 344.782C279.595 344.977 279.303 345.086 279 345.09Z" fill="#263238"/>
<path opacity="0.1" d="M279 345.09L262.78 345.34C262.442 345.344 262.116 345.218 261.867 344.99C261.618 344.761 261.465 344.447 261.44 344.11L261.09 338.75C261.079 338.574 261.104 338.398 261.162 338.232C261.22 338.066 261.311 337.913 261.43 337.782C261.548 337.652 261.691 337.546 261.851 337.472C262.011 337.398 262.184 337.356 262.36 337.35L280.03 336.8C280.227 336.795 280.423 336.834 280.604 336.915C280.784 336.996 280.944 337.116 281.071 337.266C281.199 337.417 281.291 337.594 281.341 337.785C281.391 337.976 281.397 338.176 281.36 338.37L280.27 344.02C280.215 344.318 280.058 344.587 279.826 344.782C279.595 344.977 279.303 345.086 279 345.09Z" fill="white"/>
<path d="M321.79 87.85L323.79 91.13L326 94.5C327.43 96.71 328.92 98.87 330.41 100.98C331.9 103.09 333.48 105.09 335.07 106.98C336.483 108.664 338.064 110.199 339.79 111.56L334.9 110.83C336.884 110.422 338.824 109.819 340.69 109.03C342.74 108.155 344.743 107.174 346.69 106.09C348.69 105 350.69 103.79 352.69 102.53C354.69 101.27 356.69 99.9 358.58 98.62L358.74 98.52C359.424 98.0392 360.258 97.82 361.091 97.9024C361.923 97.9848 362.698 98.3633 363.274 98.969C363.851 99.5747 364.191 100.367 364.232 101.203C364.274 102.038 364.014 102.86 363.5 103.52C361.929 105.629 360.222 107.634 358.39 109.52C356.571 111.406 354.644 113.186 352.62 114.85C350.528 116.568 348.312 118.129 345.99 119.52C343.498 121.029 340.836 122.237 338.06 123.12C337.314 123.35 336.528 123.423 335.752 123.335C334.976 123.247 334.226 123 333.55 122.61L333.17 122.39C330.302 120.68 327.673 118.599 325.35 116.2C324.263 115.107 323.22 114 322.22 112.88C321.22 111.76 320.27 110.617 319.37 109.45C317.53 107.15 315.84 104.79 314.23 102.38C313.43 101.18 312.64 99.97 311.89 98.73C311.14 97.49 310.42 96.29 309.66 94.91C308.936 93.3348 308.822 91.547 309.341 89.8927C309.859 88.2384 310.973 86.8355 312.467 85.9554C313.961 85.0754 315.728 84.781 317.426 85.1291C319.124 85.4773 320.633 86.4433 321.66 87.84L321.79 87.85Z" fill="#FF8B7B"/>
<path d="M306.63 74.5C320.18 76.04 330.43 97.02 330.43 97.02L316.43 111.89C316.43 111.89 310.21 104.47 303.52 95.08C296.25 84.88 295.91 73.29 306.63 74.5Z" fill="#263238"/>
<path d="M305.56 77.67C300.35 75.82 284.03 78.59 284.03 78.59C288.6 84.44 291.64 132.9 292.03 160.77C296.98 161.45 308.74 161.36 313.15 160.34C312.6 149.4 309 97.12 305.56 77.67Z" fill="white"/>
<path d="M323.36 92.35C322.745 87.3098 320.302 82.6706 316.494 79.3122C312.686 75.9538 307.777 74.1098 302.7 74.13C292.95 74.2114 283.233 75.2836 273.7 77.33C272.22 77.6505 270.82 78.2633 269.58 79.1324C268.341 80.0014 267.287 81.1093 266.481 82.391C265.676 83.6726 265.134 85.1023 264.888 86.5961C264.642 88.0899 264.697 89.6177 265.05 91.09C272.23 121.22 270.34 149.8 272.26 163.09C280.084 165.039 288.128 165.963 296.19 165.84C296.19 165.84 295.9 162.14 295.54 156.15C295.41 153.81 292.4 83.67 287.71 77.64C287.71 77.64 297.77 76.64 302.98 78.46C306.85 100.3 310.47 165.87 310.47 165.88C318.7 165.29 324.47 160.49 324.36 159.12C326 132.31 325.2 108.04 323.36 92.35Z" fill="#263238"/>
<path d="M282.35 52.98C283.88 58.87 285.67 69.23 282.86 74.89C282.572 75.4418 282.485 76.0762 282.613 76.6852C282.74 77.2942 283.075 77.8401 283.56 78.23C287.17 81.02 291.81 83.61 298.56 83.23C305.65 82.8 305.12 78.56 303.32 75.73C303.136 75.4303 302.893 75.1711 302.606 74.9682C302.319 74.7653 301.994 74.623 301.65 74.55C294.95 73.17 294.87 67.84 295.83 62.72L282.35 52.98Z" fill="#FF8B7B"/>
<path opacity="0.2" d="M287.84 56.94L295.84 62.68C295.589 63.9184 295.448 65.1767 295.42 66.44C292.53 66.31 288.42 63.55 287.92 60.58C287.674 59.3814 287.647 58.1483 287.84 56.94Z" fill="black"/>
<path d="M304.47 45.5C306.28 44.3 307.24 36.03 304.47 33.35C307.33 30.83 305.68 25.22 301.76 24.27C297.84 23.32 294.96 25.9 289.91 22.66C289.04 23.84 289.54 25.35 291.05 26.23C293.23 27.5 304.47 45.5 304.47 45.5Z" fill="#263238"/>
<path d="M279.89 42.98C281.25 51.98 281.58 57.37 286.58 61.59C294.11 67.94 304.96 62.69 306.33 53.41C307.57 45.06 305.14 31.69 295.93 28.93C293.889 28.3194 291.726 28.2369 289.644 28.6901C287.562 29.1433 285.629 30.1175 284.026 31.5214C282.424 32.9253 281.203 34.713 280.48 36.7171C279.757 38.7212 279.554 40.8761 279.89 42.98Z" fill="#FF8B7B"/>
<path d="M282.65 50.62C285.06 49.49 283.74 39.83 283.15 37.93C289.48 38.81 307.28 34.06 301.42 27.14C297.14 22.14 284.65 27.86 279.33 23.55C277.75 25.24 279.95 27.24 279.95 27.24C279.95 27.24 271.5 29.24 274.95 35.24C268.09 34.93 272.79 51.62 282.65 50.62Z" fill="#263238"/>
<path d="M276.54 31.42C273.21 34.03 271.9 32.86 269.97 31.1C269.51 36.23 273.59 36.89 275.48 36.36C276.72 34.76 276.54 31.42 276.54 31.42Z" fill="#263238"/>
<path d="M276.93 51.28C278.043 53.1594 279.831 54.5435 281.93 55.15C284.58 55.84 285.58 53.15 284.57 50.5C283.66 48.07 281.18 44.79 278.65 45.3C276.12 45.81 275.49 48.9 276.93 51.28Z" fill="#FF8B7B"/>
<path d="M292.31 43.78C292.38 44.52 292.82 45.08 293.31 45.03C293.8 44.98 294.13 44.35 294.06 43.61C293.99 42.87 293.55 42.31 293.06 42.36C292.57 42.41 292.25 43.04 292.31 43.78Z" fill="#263238"/>
<path d="M300.64 42.35C300.71 43.09 301.15 43.65 301.64 43.61C302.13 43.57 302.46 42.92 302.39 42.18C302.32 41.44 301.88 40.88 301.39 40.93C300.9 40.98 300.58 41.61 300.64 42.35Z" fill="#263238"/>
<path d="M297.67 43.22C297.67 43.22 299.73 47.33 301.76 49.22C300.56 50.57 298.28 50.22 298.28 50.22L297.67 43.22Z" fill="#FF5652"/>
<path d="M296 53.82C295.171 53.8894 294.337 53.7857 293.55 53.5154C292.763 53.2451 292.041 52.8142 291.43 52.25C291.403 52.2315 291.381 52.2073 291.364 52.1791C291.348 52.1509 291.338 52.1195 291.336 52.087C291.333 52.0546 291.337 52.0219 291.349 51.9915C291.36 51.961 291.378 51.9334 291.402 51.9108C291.425 51.8881 291.453 51.871 291.484 51.8605C291.515 51.8501 291.548 51.8466 291.58 51.8503C291.613 51.8541 291.644 51.865 291.671 51.8822C291.699 51.8994 291.722 51.9226 291.74 51.95C292.433 52.5582 293.259 52.9947 294.152 53.224C295.045 53.4533 295.98 53.4691 296.88 53.27C296.937 53.2581 296.996 53.2694 297.045 53.3013C297.094 53.3331 297.128 53.383 297.14 53.44C297.149 53.4981 297.135 53.5575 297.102 53.6058C297.068 53.6542 297.018 53.6879 296.96 53.7C296.643 53.7584 296.322 53.7985 296 53.82Z" fill="#263238"/>
<path d="M289.19 42.56C289.118 42.5801 289.042 42.5801 288.97 42.56C288.864 42.5118 288.781 42.4245 288.738 42.3163C288.695 42.2082 288.696 42.0877 288.74 41.98C289.006 41.3361 289.422 40.7646 289.952 40.3126C290.482 39.8606 291.112 39.5409 291.79 39.38C291.847 39.37 291.905 39.3715 291.96 39.3843C292.016 39.3971 292.069 39.421 292.116 39.4545C292.163 39.4881 292.202 39.5306 292.232 39.5797C292.262 39.6287 292.282 39.6832 292.29 39.74C292.308 39.8551 292.28 39.9725 292.213 40.0676C292.146 40.1627 292.044 40.2281 291.93 40.25C291.395 40.3828 290.9 40.6406 290.485 41.0022C290.069 41.3638 289.745 41.8189 289.54 42.33C289.506 42.395 289.456 42.4503 289.395 42.4905C289.334 42.5308 289.263 42.5547 289.19 42.56Z" fill="#263238"/>
<path d="M303.81 38.38C303.741 38.3969 303.669 38.3976 303.599 38.382C303.53 38.3664 303.465 38.3349 303.41 38.29C303.012 37.9235 302.532 37.6571 302.01 37.5127C301.489 37.3684 300.94 37.3503 300.41 37.46C300.299 37.491 300.18 37.4768 300.078 37.4207C299.977 37.3646 299.903 37.2709 299.87 37.16C299.842 37.0487 299.857 36.9308 299.913 36.8304C299.968 36.73 300.061 36.6547 300.17 36.62C300.843 36.4669 301.544 36.4778 302.212 36.6518C302.88 36.8258 303.497 37.1579 304.01 37.62C304.089 37.7036 304.134 37.8146 304.134 37.93C304.134 38.0454 304.089 38.1564 304.01 38.24C303.955 38.3019 303.887 38.3499 303.81 38.38Z" fill="#263238"/>
<path d="M274.83 96.7L273.25 100.24L271.68 103.91C270.68 106.37 269.68 108.84 268.73 111.33C266.847 116.234 265.248 121.242 263.94 126.33L263.51 128.2L263.3 129.14L263.25 129.37C263.189 130.093 263.257 130.821 263.45 131.52C263.713 132.653 264.047 133.769 264.45 134.86C264.85 136.03 265.31 137.23 265.81 138.43C267.81 143.25 270.29 148.2 272.63 153.09L272.68 153.18C273.065 153.93 273.167 154.794 272.966 155.613C272.765 156.432 272.275 157.151 271.587 157.637C270.898 158.124 270.057 158.346 269.218 158.262C268.379 158.178 267.598 157.793 267.02 157.18C262.983 152.985 259.372 148.399 256.24 143.49C254.524 140.854 253.09 138.045 251.96 135.11C251.21 133.196 250.797 131.165 250.74 129.11C250.74 128.76 250.74 128.39 250.8 128.03V127.53V127.25L250.96 126.13L251.27 123.9C252.262 118.095 253.71 112.377 255.6 106.8C256.527 104.04 257.527 101.32 258.6 98.64C259.15 97.3 259.72 95.97 260.33 94.64C260.94 93.31 261.53 92.05 262.26 90.64C263.132 89.0993 264.556 87.9464 266.244 87.4134C267.933 86.8805 269.76 87.0071 271.359 87.7678C272.958 88.5285 274.209 89.8668 274.86 91.513C275.512 93.1593 275.515 94.9913 274.87 96.64L274.83 96.7Z" fill="#FF8B7B"/>
<path d="M272.54 77.65C257.43 81.46 253.23 100.78 253.23 100.78L272 114.24C272 114.24 276.65 109.37 278.05 97.94C278.72 92.5 275.6 77.5 272.54 77.65Z" fill="#263238"/>
<path d="M270.21 150.87L278.94 154.13L272.26 163.13C272.26 163.13 264.71 159.22 266.13 154.87L270.21 150.87Z" fill="#FF8B7B"/>
<path d="M283 162.9L280.13 165.65C279.577 166.179 278.855 166.494 278.091 166.54C277.327 166.586 276.572 166.359 275.96 165.9L272.23 163.09L278.91 154.09L283.06 158.25C283.37 158.555 283.615 158.919 283.78 159.32C283.946 159.722 284.028 160.153 284.022 160.588C284.017 161.022 283.923 161.451 283.748 161.848C283.572 162.246 283.318 162.603 283 162.9Z" fill="#FF8B7B"/>
<path d="M369.43 101.82L368.36 96.94C368.248 96.4366 367.957 95.9909 367.542 95.6857C367.126 95.3804 366.614 95.2363 366.1 95.28C364.55 95.4109 363.05 95.8894 361.71 96.68L355.71 100.24L356.24 105.9C358.73 109.74 366.51 106.3 366.51 106.3L367.15 106.05C367.973 105.733 368.655 105.133 369.073 104.357C369.491 103.581 369.618 102.681 369.43 101.82Z" fill="#FF8B7B"/>
<path d="M354.94 102.42C354.57 100.51 355.4 98.97 355.21 97.17C355.05 95.6 355.47 93.84 354.97 91.7C355.57 90.7 357.74 91.52 357.77 94.17C358.44 96.89 361.43 96.5 362.62 96.17C362.62 96.2 358.58 103.23 354.94 102.42Z" fill="#FF8B7B"/>
</svg>
