<svg xmlns="http://www.w3.org/2000/svg" width="512" height="512" style="shape-rendering:geometricPrecision;text-rendering:geometricPrecision;image-rendering:optimizeQuality;fill-rule:evenodd;clip-rule:evenodd">
    <path style="opacity:.974" fill="#c9dbf0" d="M298.5 51.5c-14.765 1.322-29.431 1.322-44 0 6.504-23.413 21.837-34.246 46-32.5 8.019 3.922 10.186 10.089 6.5 18.5a146.225 146.225 0 0 1-8.5 14Z"/>
    <path style="opacity:.989" fill="#347bfa" d="M254.5 51.5c14.569 1.322 29.235 1.322 44 0 5.242-.477 10.242.356 15 2.5 2.442 4.052 2.609 8.22.5 12.5a9.465 9.465 0 0 1-2.5 1.5c-4.655.5-9.321.666-14 .5h-43c-8.128-.911-10.628-5.245-7.5-13 1.992-2.29 4.492-3.623 7.5-4Z"/>
    <path style="opacity:.965" fill="#347afa" d="M332.5 56.5a40.939 40.939 0 0 1 9 .5c8.407 6.072 14.074 14.072 17 24-1.935 7.634-6.602 9.968-14 7-3.506-7.164-8.339-13.33-14.5-18.5-2.394-4.973-1.56-9.306 2.5-13Z"/>
    <path style="opacity:.972" fill="#cadcf0" d="M254.5 68.5h43a67.955 67.955 0 0 1 9.5 14c4.631 13.004.131 19.67-13.5 20-21.091-2.093-34.091-13.426-39-34Z"/>
    <path style="opacity:.957" fill="#337afa" d="M349.5 99.5c9.149-.344 12.649 3.99 10.5 13-1.654 6.143-4.488 11.643-8.5 16.5-9.528 3.794-14.028.627-13.5-9.5a85.275 85.275 0 0 0 7-16c1.397-1.57 2.897-2.904 4.5-4Z"/>
    <path style="opacity:.952" fill="#347afa" d="M323.5 130.5c10.615 2.395 12.615 7.895 6 16.5a108.37 108.37 0 0 1-13 5c-10.376 1.721-14.209-2.446-11.5-12.5a11.532 11.532 0 0 1 4.5-3.5c4.964-1.371 9.631-3.204 14-5.5Z"/>
    <path style="opacity:.957" fill="#347afa" d="M232.5 140.5c9.872.027 13.372 4.694 10.5 14a6.978 6.978 0 0 1-3.5 2.5l-15 2.5c-7.775-1.887-9.941-6.554-6.5-14a6.978 6.978 0 0 1 3.5-2.5 305.962 305.962 0 0 0 11-2.5Z"/>
    <path style="opacity:.937" fill="#347afa" d="M264.5 140.5a87.062 87.062 0 0 1 22 1.5c3.303 3.795 3.803 7.962 1.5 12.5-1.171 1.393-2.671 2.227-4.5 2.5-7.108.924-14.108.591-21-1-4.417-5.913-3.75-11.079 2-15.5Z"/>
    <path style="opacity:.943" fill="#347afa" d="M193.5 155.5c9.205-.294 12.705 4.04 10.5 13l-8.5 8.5c-10.917 3.415-15.084-.418-12.5-11.5a146.475 146.475 0 0 1 10.5-10Z"/>
    <path style="opacity:.994" fill="#a3badb" d="M414.5 225.5h-321c-1.428-17.059 6.238-26.892 23-29.5 18.33-.5 36.664-.667 55-.5a68.766 68.766 0 0 0 1.5 15c4.171 6.229 8.837 6.562 14 1 .499-5.323.666-10.656.5-16 24.336.167 48.669 0 73-.5a346.74 346.74 0 0 1 7.5-19.5c4.135-5.651 9.635-9.151 16.5-10.5 36.667-.667 73.333-.667 110 0 8.896 1.895 15.063 7.062 18.5 15.5a361.554 361.554 0 0 1 1.5 45Z"/>
    <path style="opacity:.985" fill="#357bf9" d="M187.5 195.5a128.507 128.507 0 0 1-.5 16c-5.163 5.562-9.829 5.229-14-1a68.766 68.766 0 0 1-1.5-15c5.333-6.667 10.667-6.667 16 0Z"/>
    <path style="opacity:1" fill="#8ea4bf" d="M93.5 225.5h321v13a42.47 42.47 0 0 1-5-1.5 23704.398 23704.398 0 0 0-308 0c-2.654.941-5.32 1.774-8 2.5v-14Z"/>
    <path style="opacity:1" fill="#e8f2fb" d="M414.5 238.5c13.281 5.705 19.947 15.872 20 30.5-.761 8.726-2.094 17.226-4 25.5-2.275-16.687-11.609-27.187-28-31.5-98.333-.667-196.667-.667-295 0-16.146 4.973-25.146 15.806-27 32.5a119.025 119.025 0 0 1-3.5-34c2.292-9.786 7.792-17.119 16.5-22 2.68-.726 5.346-1.559 8-2.5 102.667-.667 205.333-.667 308 0a42.47 42.47 0 0 0 5 1.5Z"/>
    <path style="opacity:.998" fill="#c9dbf0" d="M430.5 294.5a15340.408 15340.408 0 0 1-26.5 172c-3.065 13.398-11.232 21.898-24.5 25.5-83 .667-166 .667-249 0-12.709-4.041-20.542-12.541-23.5-25.5a22746.868 22746.868 0 0 1-26.5-171c1.854-16.694 10.854-27.527 27-32.5 98.333-.667 196.667-.667 295 0 16.391 4.313 25.725 14.813 28 31.5Z"/>
    <path style="opacity:1" fill="#357bf9" d="M151.5 411.5c25.731-.472 51.398.028 77 1.5 4.317 2.315 7.15 5.815 8.5 10.5 1.145 9.505.478 18.838-2 28-2.803 4.146-6.636 6.646-11.5 7.5a681.34 681.34 0 0 1-73-1c-8.175-5.67-11.175-13.504-9-23.5-2.318-10.346 1.015-18.013 10-23Z"/>
</svg>
