<svg width="997" height="743" fill="none" xmlns="http://www.w3.org/2000/svg">
    <path
        d="M996.543 652.633H.057v.498h996.486v-.498zM896.696 684.7h-66.008v.498h66.008v-.498zM660.17 690.121h-17.319v.498h17.319v-.498zM828.695 666.205H790.45v.498h38.245v-.498zM190.685 669.553h-86.077v.498h86.077v-.498zM221.058 669.553h-12.616v.498h12.616v-.498zM448.775 677.963H262.073v.499h186.702v-.499zM472.392 563.746H87.568a11.377 11.377 0 01-11.36-11.38V11.414A11.38 11.38 0 0187.569.134h384.824a11.378 11.378 0 0111.379 11.38v540.852a11.38 11.38 0 01-11.379 11.38zM87.568.532a10.882 10.882 0 00-10.861 10.882v540.952a10.882 10.882 0 0010.861 10.882h384.824a10.9 10.9 0 0010.881-10.882V11.414A10.899 10.899 0 00472.392.532H87.568zM903.491 563.746H518.648a11.4 11.4 0 01-11.379-11.38V11.414A11.398 11.398 0 01518.648.134h384.843a11.379 11.379 0 0111.34 11.28v540.952a11.377 11.377 0 01-11.34 11.38zM518.648.532a10.9 10.9 0 00-10.881 10.882v540.952a10.9 10.9 0 0010.881 10.882h384.843a10.9 10.9 0 0010.882-10.882V11.414A10.899 10.899 0 00903.491.532H518.648z"
        fill="#EBEBEB" />
    <path d="M577.401 237.417h274.592V57.591H577.401v179.826z" fill="#E6E6E6" />
    <path d="M569.011 237.417h279.056V57.591H569.011v179.826z" fill="#F0F0F0" />
    <path d="M577.401 272.692h274.592v-35.295H577.401v35.295z" fill="#E6E6E6" />
    <path d="M555.08 272.692h279.056v-35.295H555.08v35.295z" fill="#F0F0F0" />
    <path d="M836.348 225.698V69.33H580.749v156.368h255.599z" fill="#FAFAFA" />
    <path d="M778.712 225.678L746.067 69.33h-50.941l32.645 156.348h50.941z" fill="#fff" />
    <path
        d="M830.928 214.019a.845.845 0 00.599-.252.837.837 0 00.238-.605v-136.2a.84.84 0 00-.837-.837.82.82 0 00-.779.514.814.814 0 00-.058.324v136.199a.84.84 0 00.837.857z"
        fill="#F0F0F0" />
    <path d="M716.83 225.678L684.185 69.33h-19.87l32.665 156.348h19.85z" fill="#fff" />
    <path d="M582.244 225.698V69.33h-1.495v156.368h1.495z" fill="#E6E6E6" />
    <path opacity=".6"
        d="M566.261 87.007h274.592l1.076-13.133H567.337l-1.076 13.133zM566.261 108.531h274.592l1.076-13.114H567.337l-1.076 13.114zM566.261 130.055h274.592l1.076-13.113H567.337l-1.076 13.113zM566.261 151.6h274.592l1.076-13.134H567.337l-1.076 13.134zM566.261 173.124h274.592l1.076-13.134H567.337l-1.076 13.134zM566.261 194.648h274.592l1.076-13.134H567.337l-1.076 13.134z"
        fill="#EBEBEB" />
    <path d="M812.572 521.854h-57.577v11.36h57.577v-11.36zM646.398 652.633h10.623V391.414h-10.623v261.219z"
        fill="#E6E6E6" />
    <path d="M609.568 533.214h145.407v-11.36H609.568v11.36z" fill="#F5F5F5" />
    <path d="M812.572 583.975h-57.577v11.36h57.577v-11.36z" fill="#E6E6E6" />
    <path d="M609.568 595.315h145.407v-11.36H609.568v11.36z" fill="#F5F5F5" />
    <path d="M812.572 397.632h-57.577v11.36h57.577v-11.36z" fill="#E6E6E6" />
    <path d="M609.568 408.972h145.407v-11.36H609.568v11.36z" fill="#F5F5F5" />
    <path d="M812.572 459.733h-57.577v11.36h57.577v-11.36z" fill="#E6E6E6" />
    <path d="M609.568 471.093h145.407v-11.36H609.568v11.36z" fill="#F5F5F5" />
    <path d="M791.825 652.633h10.623V391.414h-10.623v261.219z" fill="#E6E6E6" />
    <path d="M744.353 652.633h10.622V391.414h-10.622v261.219zM609.568 652.633h10.622V391.414h-10.622v261.219z"
        fill="#F5F5F5" />
    <path d="M130.358 652.633h108.776V441.597H130.358v211.036z" fill="#E6E6E6" />
    <path d="M159.395 652.633h-29.057v-29.137h59.51l-30.453 29.137z" fill="#FAFAFA" />
    <path d="M426.912 652.633h108.776V441.597H426.912v211.036z" fill="#E6E6E6" />
    <path d="M130.358 642.588h321.925V441.577H130.358v201.011z" fill="#FAFAFA" />
    <path d="M423.225 652.633h29.038v-29.137h-59.491l30.453 29.137z" fill="#FAFAFA" />
    <path d="M152.878 566.795h276.864v-50.302H152.878v50.302zM152.878 627.84h276.864v-50.302H152.878v50.302z"
        fill="#F0F0F0" />
    <path d="M377.127 521.874H205.513a9.128 9.128 0 01-9.128-9.128v-.618h189.85v.618a9.127 9.127 0 01-9.108 9.128z"
        fill="#FAFAFA" />
    <path d="M152.878 505.731h276.864v-50.303H152.878v50.303z" fill="#F0F0F0" />
    <path
        d="M377.127 460.809H205.513a9.128 9.128 0 01-9.128-9.128v-.617h189.85v.617a9.13 9.13 0 01-9.108 9.128zM377.127 582.938H205.513a9.128 9.128 0 01-9.128-9.127v-.618h189.85v.618a9.13 9.13 0 01-9.108 9.127z"
        fill="#FAFAFA" />
    <path d="M147.677 237.417h274.592V57.591H147.677v179.826z" fill="#E6E6E6" />
    <path d="M139.306 237.417h279.056V57.591H139.306v179.826z" fill="#F0F0F0" />
    <path d="M147.677 272.692h274.592v-35.295H147.677v35.295z" fill="#E6E6E6" />
    <path d="M125.336 272.692h279.056v-35.295H125.336v35.295z" fill="#F0F0F0" />
    <path d="M406.624 225.698V69.33H151.025v156.368h255.599z" fill="#FAFAFA" />
    <path d="M348.987 225.678L316.342 69.33h-50.941l32.645 156.348h50.941z" fill="#fff" />
    <path
        d="M401.183 214.019a.842.842 0 00.599-.252.837.837 0 00.238-.605v-136.2a.814.814 0 00-.837-.837.837.837 0 00-.837.838v136.199a.83.83 0 00.238.605.845.845 0 00.599.252z"
        fill="#F0F0F0" />
    <path d="M287.105 225.678L254.46 69.33h-19.87l32.645 156.348h19.87z" fill="#fff" />
    <path d="M152.52 225.698V69.33h-1.495v156.368h1.495z" fill="#E6E6E6" />
    <path opacity=".6" d="M136.516 87.007h274.592l1.076-13.133H137.592l-1.076 13.133z" fill="#EBEBEB" />
    <path opacity=".6" d="M136.516 94.421h274.592l1.076-13.134H137.592l-1.076 13.134z" fill="#EBEBEB" />
    <path opacity=".6" d="M136.516 101.815h274.592l1.076-13.114H137.592l-1.076 13.114z" fill="#EBEBEB" />
    <path opacity=".6" d="M136.516 109.229h274.592l1.076-13.134H137.592l-1.076 13.134z" fill="#EBEBEB" />
    <path opacity=".6" d="M136.516 116.623h274.592l1.076-13.114H137.592l-1.076 13.114z" fill="#EBEBEB" />
    <path opacity=".6" d="M136.516 124.037h274.592l1.076-13.134H137.592l-1.076 13.134z" fill="#EBEBEB" />
    <path d="M191.422 435.14h9.487V329.333h-9.487V435.14z" fill="#F5F5F5" />
    <path d="M192.618 435.08h2.691V329.273h-2.691V435.08zM196.425 435.08h1.056V329.273h-1.056V435.08z" fill="#FAFAFA" />
    <path
        d="M231.302 441.597h-70.233a8.85 8.85 0 018.849-8.849h52.515a8.846 8.846 0 018.849 8.849h.02zM179.106 395.021a2.75 2.75 0 002.73-2.73v-69.296a2.732 2.732 0 00-2.73-2.73 2.723 2.723 0 00-1.944.792 2.75 2.75 0 00-.807 1.938v69.375a2.751 2.751 0 002.751 2.651z"
        fill="#F0F0F0" />
    <path d="M153.656 354.484h85l-9.785-59.39h-65.43l-9.785 59.39z" fill="#E0E0E0" />
    <path
        d="M498.3 742.636c213.413 0 386.418-10.101 386.418-22.561 0-12.46-173.005-22.56-386.418-22.56-213.412 0-386.417 10.1-386.417 22.56 0 12.46 173.005 22.561 386.417 22.561z"
        fill="#F5F5F5" />
    <path
        d="M207.563 293.816l-1.988.143 2.647 36.755 1.988-.143-2.647-36.755zM211.561 349.545l-1.988.143.996 13.835 1.988-.143-.996-13.835zM673.104 518.625H246.289a19.232 19.232 0 01-18.814-17.558l-20.966-291.233a16.148 16.148 0 019.721-16.233 16.152 16.152 0 016.562-1.305h426.815a19.233 19.233 0 0118.813 17.538l20.967 291.233a16.17 16.17 0 01-9.72 16.246 16.177 16.177 0 01-6.563 1.312z"
        fill="#407BFF" />
    <path
        d="M674.738 518.625H247.923a19.232 19.232 0 01-18.814-17.558l-20.966-291.233a16.148 16.148 0 019.721-16.233 16.149 16.149 0 016.562-1.305h426.815a19.232 19.232 0 0118.813 17.538l20.966 291.233a16.145 16.145 0 01-9.716 16.252 16.152 16.152 0 01-6.566 1.306z"
        fill="#407BFF" />
    <path opacity=".5"
        d="M674.738 518.625H247.923a19.232 19.232 0 01-18.814-17.558l-20.966-291.233a16.148 16.148 0 019.721-16.233 16.149 16.149 0 016.562-1.305h426.815a19.232 19.232 0 0118.813 17.538l20.966 291.233a16.145 16.145 0 01-9.716 16.252 16.152 16.152 0 01-6.566 1.306z"
        fill="#fff" />
    <path
        d="M651.879 201.065h-428.25c-10.902.897-8.67 17.498 2.332 17.498h427.532c11.021 0 10.862-16.601-.179-17.498h-1.435z"
        fill="#407BFF" />
    <path
        d="M236.184 209.834a3.686 3.686 0 01-3.746 3.986 4.384 4.384 0 01-4.305-3.986 3.68 3.68 0 01.981-2.817 3.678 3.678 0 012.746-1.169 4.384 4.384 0 014.324 3.986zM249.876 209.834a3.686 3.686 0 01-3.747 3.986 4.383 4.383 0 01-4.304-3.986 3.68 3.68 0 01.981-2.817 3.684 3.684 0 012.746-1.169 4.384 4.384 0 014.324 3.986zM263.548 209.834a3.688 3.688 0 01-3.727 3.986 4.367 4.367 0 01-4.305-3.986 3.681 3.681 0 01.975-2.824 3.66 3.66 0 012.752-1.162 4.386 4.386 0 014.305 3.986z"
        fill="#FAFAFA" />
    <path
        d="M663.418 489.568h-408.26a6.954 6.954 0 01-6.816-6.378l-17.24-239.495a5.837 5.837 0 011.555-4.528 5.832 5.832 0 014.424-1.83h408.36a6.936 6.936 0 016.816 6.358l17.259 239.495a5.856 5.856 0 01-6.098 6.378z"
        fill="#fff" />
    <path d="M491.384 398.329l-6.656-92.314-20.129-12.117h-55.425l7.534 104.431h74.676z" fill="#fff" />
    <path
        d="M491.385 399.286h-74.677a.956.956 0 01-.977-.897l-7.513-104.432a.923.923 0 01.259-.717.948.948 0 01.697-.319h55.425c.175.006.346.054.498.14l20.129 12.117a.963.963 0 01.479.757l6.616 92.315a.908.908 0 01-.259.737.932.932 0 01-.677.299zm-73.74-1.993h72.683l-6.537-90.78-19.371-11.659h-54.209l7.434 102.439z"
        fill="#407BFF" />
    <path d="M484.728 306.015l-20.129-12.117 7.394 16.063 12.735-3.946z" fill="#EBEBEB" />
    <path
        d="M471.993 310.918a.974.974 0 01-.877-.558l-7.394-16.064a1 1 0 01.219-1.136.999.999 0 011.156-.099l20.129 12.117a.99.99 0 01.479.956.978.978 0 01-.678.798l-12.755 3.986h-.279zm-5.202-14.589l5.72 12.456 9.965-3.049-15.685-9.407zM440.504 340.932a3.986 3.986 0 01-3.986 4.205 4.6 4.6 0 01-4.504-4.205 3.862 3.862 0 012.381-3.938 3.853 3.853 0 011.605-.287 4.624 4.624 0 014.504 4.225zM467.808 340.932a3.877 3.877 0 01-1.045 3.001 3.88 3.88 0 01-2.941 1.204 4.624 4.624 0 01-4.524-4.205 3.976 3.976 0 011.079-2.975 3.986 3.986 0 012.907-1.25 4.605 4.605 0 014.524 4.225zM475.541 368.315a.976.976 0 01-.957-.897c-.498-6.796-11.141-12.316-23.716-12.316-8.351 0-15.845 2.491-19.551 6.477a7.454 7.454 0 00-2.272 5.7.998.998 0 01-.927 1.066 1 1 0 01-1.066-.927 9.482 9.482 0 012.79-7.154c3.986-4.365 12.097-7.095 20.966-7.095 13.811 0 25.071 6.198 25.629 14.11a.962.962 0 01-.896 1.016v.02zM424.899 332.402a1.02 1.02 0 01-.658-.259.978.978 0 010-1.375l4.245-4.564a.975.975 0 011.355 0 .952.952 0 010 1.355l-4.245 4.564a.954.954 0 01-.697.279zM473.547 332.402a1.094 1.094 0 01-.657-.259l-4.883-4.564a.958.958 0 01.677-1.649c.253 0 .496.098.678.274l4.883 4.564a.956.956 0 010 1.355 1.04 1.04 0 01-.698.279zM403.156 418.957h4.504l6.497 8.649-.618-8.649h4.544l1.116 15.625h-4.604l-6.457-8.59.618 8.59h-4.544l-1.056-15.625zM421.232 426.769a7.566 7.566 0 011.714-5.979 7.493 7.493 0 015.779-2.132 8.733 8.733 0 016.159 2.092 8.614 8.614 0 012.531 5.86 9.514 9.514 0 01-.598 4.484 5.977 5.977 0 01-2.472 2.73 8.287 8.287 0 01-4.265.977 10.464 10.464 0 01-4.444-.837 7.21 7.21 0 01-2.989-2.671 9.283 9.283 0 01-1.415-4.524zm4.843 0a5.431 5.431 0 001.116 3.388 3.163 3.163 0 002.471 1.037 2.758 2.758 0 002.332-1.017 5.48 5.48 0 00.538-3.547 5.13 5.13 0 00-1.116-3.229 3.281 3.281 0 00-2.491-1.016 2.75 2.75 0 00-2.272 1.036 5.04 5.04 0 00-.578 3.388v-.04zM446.782 418.957h7.174a8.978 8.978 0 013.468.578 6.092 6.092 0 012.272 1.654 7.473 7.473 0 011.415 2.491c.323.981.524 1.999.598 3.029a10.117 10.117 0 01-.299 3.887 5.564 5.564 0 01-1.415 2.311 4.582 4.582 0 01-1.993 1.236c-.927.269-1.885.416-2.85.439h-7.155l-1.215-15.625zm5.082 3.547l.618 8.53h1.176a4.872 4.872 0 002.132-.339c.446-.258.775-.68.917-1.176a7.052 7.052 0 00.159-2.71 5.422 5.422 0 00-1.056-3.388 3.61 3.61 0 00-2.75-.917h-1.196zM473.288 431.991h-5.48l-.578 2.591h-4.923l4.743-15.625h5.342l6.995 15.625h-5.062l-1.037-2.591zm-1.255-3.368l-2.113-5.62-1.315 5.62h3.428zM477.115 418.957h14.668l.279 3.866h-4.923l.837 11.759h-4.823l-.837-11.759h-4.922l-.279-3.866zM503.023 431.991h-5.48l-.578 2.591h-4.923l4.743-15.625h5.262l6.975 15.625h-5.042l-.957-2.591zm-1.255-3.368l-2.133-5.62-1.335 5.62h3.468z"
        fill="#407BFF" />
    <path
        d="M704.952 235.464c1.773-.897 3.986-1.993 5.859-3.129 1.873-1.136 3.986-2.232 5.979-3.428 3.886-2.412 7.832-4.783 11.559-7.414a153.278 153.278 0 0020.966-17.259c.817-.758 1.535-1.595 2.312-2.412l1.136-1.215.558-.598.279-.319c-.279.538 0 .378 0-.14.175-.711.275-1.44.299-2.172a61.01 61.01 0 00-1.455-12.596c-1.774-8.928-4.464-18.136-7.115-27.144l7.733-3.388a162.008 162.008 0 0112.177 27.104 63.125 63.125 0 013.428 15.725 23.975 23.975 0 01-.159 5.002 15.36 15.36 0 01-2.432 6.557l-.339.459-.259.318-.299.379-.618.757-1.235 1.495c-.817.977-1.614 1.993-2.491 2.93a143.186 143.186 0 01-22.68 20.328 150.342 150.342 0 01-12.536 8.351 174.656 174.656 0 01-6.517 3.747 117.468 117.468 0 01-6.916 3.527l-7.234-15.465z"
        fill="#FFB573" />
    <path
        d="M687.214 704.012a20.52 20.52 0 004.425-.598.44.44 0 00.298-.319.414.414 0 00-.179-.399c-.578-.378-5.64-3.647-7.593-2.77a1.356 1.356 0 00-.777 1.116 2.252 2.252 0 00.657 2.093 4.69 4.69 0 003.169.877zm3.289-1.156c-2.89.578-5.083.478-5.979-.299a1.528 1.528 0 01-.399-1.415.587.587 0 01.339-.498c1.056-.459 3.986 1.016 6.039 2.212z"
        fill="#407BFF" />
    <path
        d="M691.619 703.414h.199a.42.42 0 00.199-.339c0-.219 0-5.022-1.833-6.617a1.98 1.98 0 00-.775-.463 1.986 1.986 0 00-.899-.075 1.38 1.38 0 00-1.335 1.096c-.379 1.993 2.65 5.481 4.245 6.398a.355.355 0 00.199 0zm-2.85-6.757c.324.002.636.122.877.339a9.025 9.025 0 011.554 5.262c-1.594-1.276-3.487-3.986-3.248-5.122 0-.18.139-.419.638-.479h.179z"
        fill="#407BFF" />
    <path
        d="M690.064 185.619c-1.993 9.965-5.979 29.895.897 36.571 0 0-2.711 9.965-21.106 9.965-20.248 0-9.666-9.965-9.666-9.965 11.041-2.63 10.743-10.821 8.829-18.534l21.046-18.037z"
        fill="#FFB573" />
    <path
        d="M656.303 226.176c-3.169.439-.458-7.792.817-8.649 2.99-1.993 41.574-4.763 41.315 0-.16 1.993-1.117 5.979-2.791 7.294-1.674 1.316-11.599-2.79-39.341 1.355z"
        fill="#263238" />
    <path
        d="M662.601 223.347c-2.531.857-2.292-7.434-1.435-8.431 1.993-2.312 33.223-10.323 34.14-5.799.358 1.993.538 5.979-.538 7.394-1.077 1.415-10.244-.917-32.167 6.836zM650.982 167.762a.789.789 0 01-.658-.298 6.327 6.327 0 00-5.162-2.452.773.773 0 01-.786-.4.778.778 0 01-.091-.297.796.796 0 01.698-.857 7.794 7.794 0 016.557 3.009.8.8 0 01-.1 1.116.99.99 0 01-.458.179z"
        fill="#263238" />
    <path d="M647.116 177.508a35.698 35.698 0 01-3.986 9.028 5.78 5.78 0 004.863.419l-.877-9.447z" fill="#FF5652" />
    <path
        d="M648.092 175.097c.14 1.335-.478 2.491-1.355 2.57-.877.08-1.694-.916-1.814-2.272-.119-1.355.479-2.491 1.336-2.57.857-.08 1.694.916 1.833 2.272z"
        fill="#263238" />
    <path d="M646.657 172.864l-3.308-.617s1.893 2.351 3.308.617z" fill="#263238" />
    <path d="M710.951 703.035H694.25l1.315-38.663h16.701l-1.315 38.663z" fill="#FFB573" />
    <path
        d="M692.934 701.102h18.754a1.318 1.318 0 011.335 1.136l2.133 14.828a2.679 2.679 0 01-.668 2.084 2.659 2.659 0 01-.907.657 2.65 2.65 0 01-1.096.228c-6.537-.099-9.686-.498-17.936-.498-5.083 0-12.496.538-19.492.538-6.995 0-7.394-6.935-4.464-7.553 13.074-2.83 15.147-6.697 19.551-10.404a4.41 4.41 0 012.79-1.016z"
        fill="#263238" />
    <path d="M712.266 664.372h-16.701l-.678 19.929h16.701l.678-19.929z" fill="#000" opacity=".2" />
    <path
        d="M644.525 245.269a323.533 323.533 0 01-29.994-13.452 181.762 181.762 0 01-28.699-17.479 68.402 68.402 0 01-6.816-6.118c-.558-.598-1.116-1.156-1.654-1.854a22.43 22.43 0 01-1.754-2.252 15.743 15.743 0 01-2.671-7.194c-.22-2.448.114-4.914.977-7.215a21.183 21.183 0 012.81-5.182 36.16 36.16 0 016.756-7.015 83.659 83.659 0 0114.549-9.307 100.009 100.009 0 017.533-3.587c2.551-1.097 5.062-2.133 7.793-3.07l3.527 7.673c-8.689 5.481-17.697 11.52-24.314 18.256a27.56 27.56 0 00-3.886 4.963c-.957 1.574-.937 2.75-.778 2.65.16-.099 0 0 .279.199l.798.857c.299.359.717.718 1.096 1.097a50.982 50.982 0 005.361 4.304c4.114 2.913 8.4 5.575 12.835 7.972 4.484 2.511 9.107 4.883 13.811 7.155a579.901 579.901 0 0028.679 12.775l-6.238 15.824z"
        fill="#FFB573" />
    <path d="M621.865 163.856l2.75-5.979-12.596-4.284s-3.985 11.778.738 17.199a12.05 12.05 0 009.108-6.936z"
        fill="#FFB573" />
    <path
        d="M624.555 144.943l-10.024-2.91-2.511 11.48 12.535 4.364v-12.934zM754.098 158.455l1.455-13.951-12.914 3.109s-.2 13.114 6.636 15.187l4.823-4.345zM749.335 134.679l-8.43 3.926 1.734 8.909 12.914-3.049-6.218-9.786zM692.695 166.049c.618 16.561 1.216 23.557-6.258 32.824-11.26 13.951-31.728 11.061-37.269-4.983-4.982-14.429-5.141-39.082 10.324-47.213a22.599 22.599 0 0133.203 19.372z"
        fill="#FFB573" />
    <path
        d="M685.48 198.853c16.263-7.035 26.945-21.923 22.441-45.001-4.325-22.142-19.272-24.335-25.45-19.751-6.178 4.584-21.584-2.252-30.831 5.521-15.944 13.492-.877 27.901 7.015 36.611 4.703 9.685 10.882 29.496 26.825 22.62z"
        fill="#263238" />
    <path
        d="M678.724 149.885a16.526 16.526 0 0017.196 5.831 16.524 16.524 0 0010.856-22.867 16.524 16.524 0 00-24.405-6.72 16.998 16.998 0 00-3.647 23.756z"
        fill="#407BFF" />
    <path
        d="M682.949 135.656c-2.331-13.353 10.284-23.637 27.185-18.675 16.9 4.963 7.972 19.93 4.484 31.888-3.488 11.958 5.64 23.358 9.427 14.25 3.786-9.108-2.591-11.958-2.591-11.958s17.936 4.644 1.275 24.872c-16.661 20.229-31.748-2.112-27.662-15.286 3.308-10.583-9.905-12.476-12.118-25.091zM666.069 140.698c-7.713-3.986-20.767-7.274-28.201 5.241-3.507 5.979-2.152 13.951-2.152 13.951l22.7 1.495 7.653-20.687z"
        fill="#263238" />
    <path
        d="M633.045 155.944a.52.52 0 01-.478-.538c0-.339.578-8.35 5.421-13.373 11.698-12.157 25.41-1.993 29.316 1.296a.495.495 0 01.02.663.496.496 0 01-.657.094c-3.767-3.229-16.881-12.895-27.902-1.375-4.584 4.763-5.142 12.675-5.142 12.755a.503.503 0 01-.18.37.485.485 0 01-.398.108z"
        fill="#263238" />
    <path
        d="M661.425 175.515a13.732 13.732 0 01-3.288 8.53c-2.751 3.229-5.979 1.634-6.637-1.993-.658-3.209 0-8.769 3.468-10.702 3.468-1.933 6.497.538 6.457 4.165z"
        fill="#FFB573" />
    <path
        d="M657.838 327.22s1.076 115.892 11.121 180.464c8.131 52.156 23.138 172.771 23.138 172.771h22.78s2.212-116.45-1.993-168.028c-10.423-130.54 16.502-154.953-5.222-185.207h-49.824z"
        fill="#263238" />
    <path opacity=".1"
        d="M657.838 327.22s1.076 115.892 11.121 180.464c8.131 52.156 23.138 172.771 23.138 172.771h22.78s2.212-116.45-1.993-168.028c-10.423-130.54 16.502-154.953-5.222-185.207h-49.824z"
        fill="#fff" />
    <path opacity=".3"
        d="M669.815 379.795c7.972 34.976 1.615 90.062-2.75 114.317-4.624-36.831-6.955-84.562-8.111-119.579 4.125-6.656 8.031-7.095 10.861 5.262z"
        fill="#000" />
    <path
        d="M688.988 680.893h28.998l1.514-10.164-30.671-1.036.159 11.2zM697.259 229.325c2.73-5.421 17.399-8.828 25.41-8.809l5.979 26.627s-15.944 23.696-22.6 21.185c-7.833-2.89-14.629-27.304-8.789-39.003z"
        fill="#407BFF" />
    <path opacity=".4"
        d="M697.259 229.325c2.73-5.421 17.399-8.828 25.41-8.809l5.979 26.627s-15.944 23.696-22.6 21.185c-7.833-2.89-14.629-27.304-8.789-39.003z"
        fill="#000" />
    <path
        d="M680.358 674.376a.38.38 0 000-.379.402.402 0 00-.418-.219c-.837.14-8.211 1.296-9.208 3.408a1.3 1.3 0 000 1.256 2.19 2.19 0 001.714 1.136c2.412.239 5.979-3.109 7.773-5.142l.139-.06zm-8.849 3.069c.678-1.116 4.505-2.152 7.414-2.69-2.63 2.67-4.942 4.165-6.298 3.986a1.422 1.422 0 01-1.116-.758.501.501 0 010-.498s-.02-.02 0-.04z"
        fill="#407BFF" />
    <path
        d="M680.359 674.376a.379.379 0 000-.379c-.12-.139-3.07-3.547-5.8-3.726a2.87 2.87 0 00-2.172.737c-.817.737-.738 1.375-.538 1.774.857 1.714 6.158 2.312 8.29 1.853a.372.372 0 00.143-.102.367.367 0 00.077-.157zm-7.793-2.511a1.58 1.58 0 01.319-.359 1.995 1.995 0 011.574-.538 9.168 9.168 0 014.764 2.93c-2.372.199-6.199-.518-6.717-1.555a.475.475 0 01.06-.478z"
        fill="#407BFF" />
    <path
        d="M697.757 667.301l-15.266 6.796-6.796-14.17-8.889-18.535-1.056-2.152 15.266-6.796 1.176 2.431 8.61 17.957 6.955 14.469z"
        fill="#FFB573" />
    <path opacity=".2" d="M690.802 652.832l-15.107 7.095-8.889-18.534 15.386-6.518 8.61 17.957z" fill="#000" />
    <path
        d="M639.941 327.22s-48.768 121.332-35.555 178.331c11.958 51.598 64.772 149.314 64.772 149.314l20.468-10.244s-32.665-117.964-36.193-143.594c-6.895-49.824 37.409-120.236 37.409-173.807h-50.901z"
        fill="#263238" />
    <path opacity=".1"
        d="M639.941 327.22s-48.768 121.332-35.555 178.331c11.958 51.598 64.772 149.314 64.772 149.314l20.468-10.244s-32.665-117.964-36.193-143.594c-6.895-49.824 37.409-120.236 37.409-173.807h-50.901z"
        fill="#fff" />
    <path
        d="M679.78 671.964l15.147-11.021a1.316 1.316 0 011.754.12l10.463 10.742a2.677 2.677 0 01.681 2.086 2.7 2.7 0 01-1.1 1.9c-5.361 3.747-8.131 5.301-14.787 10.144-4.106 2.99-12.277 9.586-17.937 13.712-5.66 4.125-9.965-1.256-7.972-3.468 8.928-9.965 10.802-16.143 12.197-21.743a4.326 4.326 0 011.554-2.472z"
        fill="#263238" />
    <path
        d="M667.843 659.19l26.367-12.058-3.369-10.742-28.24 12.875 5.242 9.925zM652.876 228.05c-2.173-5.66-21.226-11.958-30.792-13.951l-4.205 31.33s15.625 22.441 22.461 20.587c8.091-2.192 17.239-25.829 12.536-37.966z"
        fill="#407BFF" />
    <path opacity=".4"
        d="M652.876 228.05c-2.173-5.66-21.226-11.958-30.792-13.951l-4.205 31.33s15.625 22.441 22.461 20.587c8.091-2.192 17.239-25.829 12.536-37.966z"
        fill="#000" />
    <path
        d="M631.969 226.475s-7.972 2.79 7.972 100.745h67.761c-1.136-27.583-1.176-44.603 11.958-101.243a199.858 199.858 0 00-28.799-3.787 214.11 214.11 0 00-30.771 0c-13.134 1.156-28.121 4.285-28.121 4.285z"
        fill="#407BFF" />
    <path opacity=".4"
        d="M631.969 226.475s-7.972 2.79 7.972 100.745h67.761c-1.136-27.583-1.176-44.603 11.958-101.243a199.858 199.858 0 00-28.799-3.787 214.11 214.11 0 00-30.771 0c-13.134 1.156-28.121 4.285-28.121 4.285z"
        fill="#000" />
    <path
        d="M708.759 323.254l3.049 5.979c.239.479-.319.957-1.096.957h-71.11c-.617 0-1.116-.299-1.156-.698l-.617-5.979c0-.418.498-.777 1.156-.777h68.578a1.222 1.222 0 011.196.518z"
        fill="#407BFF" />
    <path opacity=".3"
        d="M708.759 323.254l3.049 5.979c.239.479-.319.957-1.096.957h-71.11c-.617 0-1.116-.299-1.156-.698l-.617-5.979c0-.418.498-.777 1.156-.777h68.578a1.222 1.222 0 011.196.518z"
        fill="#fff" />
    <path
        d="M699.591 330.967h1.833c.379 0 .658-.199.618-.419l-.857-7.972c0-.239-.339-.418-.698-.418h-1.853c-.359 0-.638.179-.618.418l.857 7.972c-.02.18.299.419.718.419zM654.968 330.967h1.834c.358 0 .637-.199.617-.419l-.857-7.972c0-.239-.338-.418-.717-.418h-1.834c-.378 0-.637.179-.617.418l.857 7.972c.02.18.338.419.717.419z"
        fill="#263238" />
</svg>