<?xml version="1.0" encoding="UTF-8" standalone="no"?>
<!-- Created with Inkscape (http://www.inkscape.org/) -->

<svg
   version="1.1"
   id="svg2"
   width="1466.6667"
   height="1066.6667"
   viewBox="0 0 1466.6667 1066.6667"
   sodipodi:docname="43052.eps"
   xmlns:inkscape="http://www.inkscape.org/namespaces/inkscape"
   xmlns:sodipodi="http://sodipodi.sourceforge.net/DTD/sodipodi-0.dtd"
   xmlns="http://www.w3.org/2000/svg"
   xmlns:svg="http://www.w3.org/2000/svg">
  <defs
     id="defs6">
    <clipPath
       clipPathUnits="userSpaceOnUse"
       id="clipPath160">
      <path
         d="m 5952.37,2197.29 c 0.64,339.54 -274.09,615.29 -613.62,615.93 -339.52,0.64 -615.28,-274.09 -615.92,-613.62 -0.63,-339.52 274.09,-615.28 613.62,-615.92 339.53,-0.63 615.29,274.08 615.92,613.61"
         id="path158" />
    </clipPath>
  </defs>
  <sodipodi:namedview
     id="namedview4"
     pagecolor="#ffffff"
     bordercolor="#000000"
     borderopacity="0.25"
     inkscape:showpageshadow="2"
     inkscape:pageopacity="0.0"
     inkscape:pagecheckerboard="0"
     inkscape:deskcolor="#d1d1d1" />
  <g
     id="g8"
     inkscape:groupmode="layer"
     inkscape:label="ink_ext_XXXXXX"
     transform="matrix(1.3333333,0,0,-1.3333333,0,1066.6667)">
    <g
       id="g10"
       transform="scale(0.1)">
      <path
         d="M 0,0 H 11000 V 8000 H 0 Z"
         style="fill:#ffffff;fill-opacity:1;fill-rule:nonzero;stroke:none"
         id="path12" />
      <path
         d="m 8656.1,290 c -53.19,0 -106.67,2.859 -160.75,9.809 -206.62,26.593 -416.06,39.871 -621.65,77.812 -471.83,87.09 -943.88,92.25 -1419.14,92.25 -188.65,0 -377.32,2.418 -565.94,2.418 -274.76,0 -549.39,-5.148 -823.6,-30.449 -427.66,-39.461 -855.96,-45.75 -1284.39,-45.75 -64.68,0 -129.43,0.14 -194.11,0.34 -4.16,0.011 -8.28,0.011 -12.43,0.011 -237.25,0 -473.6,-20.152 -710.48,-34.39 -237.94,-14.301 -469.32,-37.781 -705.88,-37.781 -21.34,0 -42.73,0.199 -64.17,0.601 -236.38,4.481 -596.29,99.43 -764.93,341.418 -100.12,143.781 -86.54,489.691 13.73,628.321 43.8,60.56 114.42,108 172.1,136.86 164.32,82.19 331.54,82.4 503.25,84.11 2.09,0.02 4.18,0.03 6.28,0.03 118.49,0 241.69,-32.93 355.25,-78.68 103.31,-41.62 208.87,-56.21 313.94,-82.12 85.98,-21.2 177.98,-31.35 268.96,-31.35 59.2,0 117.98,4.3 174.36,12.65 152.57,22.6 306.22,33.11 459.22,50.91 190.01,22.12 375.95,70.07 565.29,95.76 94.78,12.87 187.37,44.78 281.94,59.28 250.82,38.46 502.08,46.79 753.35,47.82 20.39,0.09 40.75,0.12 61.14,0.12 119.61,0 239.22,-1.23 358.76,-1.24 97.24,0 194.43,0.4 291.61,0.4 332.59,0 664.87,-4.7 996.56,-46.29 102.78,-12.88 204.9,-5.09 306.25,-35.75 101.75,-30.79 204.48,-58.88 308.73,-64.37 89.2,-4.69 178.67,-6.23 268.23,-6.23 159.31,0 318.91,4.89 477.69,5.68 15.93,0.08 38.13,0.21 65.65,0.21 355.58,0 1593.34,-22.56 1504.53,-478.019 C 9801.33,789.352 9602.92,561.531 9491.62,488.199 9351.03,395.57 9197.27,340.762 9042.52,322.289 8912.07,306.711 8784.9,290 8656.1,290"
         style="fill:#f6eaea;fill-opacity:1;fill-rule:nonzero;stroke:none"
         id="path14" />
      <path
         d="m 5220.59,6861.22 c 1613.39,504.65 2406.83,123.12 2406.83,123.12 l 59.96,-1172.07 c 0,0 -793.44,381.52 -2406.83,-123.13 -1613.38,-504.65 -2332.6,-119.33 -2332.6,-119.33 l -59.96,1172.08 c 0,0 719.22,-385.32 2332.6,119.33"
         style="fill:#f7f7f7;fill-opacity:1;fill-rule:nonzero;stroke:none"
         id="path16" />
      <path
         d="m 3794.15,5699.26 -170.47,485.78 61.92,3.22 81.75,-239.41 c 22.55,-65.61 42.13,-124.78 56.98,-181.98 l 1.32,0.07 c 9.56,57.74 24.78,120.9 41.21,186.34 l 62.46,247.6 61.27,3.18 -133.2,-501.53 -63.24,-3.27"
         style="fill:#5d66d3;fill-opacity:1;fill-rule:nonzero;stroke:none"
         id="path18" />
      <path
         d="m 4092.48,5966.88 c 16.14,-104.29 81.44,-189.86 170.75,-176.04 89.96,13.92 126.58,113.76 109.44,224.59 -15.01,97.06 -76.33,191.41 -170.86,176.79 -93.88,-14.52 -125.91,-118.12 -109.33,-225.34 z m 339.72,60.73 c 25.99,-168.04 -52.15,-271.36 -164.28,-288.71 -116.04,-17.94 -212.99,69.41 -235.84,217.16 -23.98,155 47.04,269.82 164.38,287.98 119.96,18.55 213.33,-71.57 235.74,-216.43"
         style="fill:#5d66d3;fill-opacity:1;fill-rule:nonzero;stroke:none"
         id="path20" />
      <path
         d="m 4454.49,6282.17 55.9,12.99 99.58,-429.05 185.07,42.96 12.09,-52.11 -240.98,-55.94 -111.66,481.15"
         style="fill:#5d66d3;fill-opacity:1;fill-rule:nonzero;stroke:none"
         id="path22" />
      <path
         d="m 4779.38,6361.43 81.99,-280.68 c 31.03,-106.22 86.6,-138.84 143.58,-122.2 63.31,18.51 90.27,76.77 59.65,181.6 l -81.98,280.67 55.71,16.28 80.76,-276.45 c 42.54,-145.62 -9.01,-225.58 -101.45,-252.6 -87.37,-25.53 -169.45,10.81 -212.4,157.82 l -81.58,279.28 55.72,16.28"
         style="fill:#5d66d3;fill-opacity:1;fill-rule:nonzero;stroke:none"
         id="path24" />
      <path
         d="m 5270.09,5995.04 -126.87,477.46 60.56,16.1 201.89,-204.96 c 46.75,-47.48 84.97,-91.17 118.36,-134.63 l 1.09,1.04 c -22.04,62.4 -38.75,120.15 -58.51,194.53 l -53.08,199.78 52.27,13.89 126.87,-477.45 -56.11,-14.92 -200.79,206 c -44.09,45.18 -87.27,92.09 -122.68,138.04 l -1.73,-1.22 c 19.19,-59.36 35.71,-116.41 56.8,-195.74 l 54.21,-204.02 -52.28,-13.9"
         style="fill:#5d66d3;fill-opacity:1;fill-rule:nonzero;stroke:none"
         id="path26" />
      <path
         d="m 5679.88,6548.27 -132.59,-26.55 -10.64,53.18 322.74,64.61 10.66,-53.19 -133.24,-26.66 86.32,-431.19 -56.92,-11.39 -86.33,431.19"
         style="fill:#5d66d3;fill-opacity:1;fill-rule:nonzero;stroke:none"
         id="path28" />
      <path
         d="m 6194.66,6421.61 -171.25,-23.54 24.28,-176.47 190.85,26.24 7.29,-53.02 -247.71,-34.05 -67.34,489.46 237.92,32.71 7.29,-53.01 -181.05,-24.89 21.28,-154.68 171.25,23.54 7.19,-52.29"
         style="fill:#5d66d3;fill-opacity:1;fill-rule:nonzero;stroke:none"
         id="path30" />
      <path
         d="m 6525.88,6447.54 -172.44,-11.62 11.97,-177.72 192.19,12.96 3.6,-53.38 -249.44,-16.82 -33.22,492.92 239.57,16.14 3.59,-53.38 -182.32,-12.29 10.51,-155.78 172.43,11.63 3.56,-52.66"
         style="fill:#5d66d3;fill-opacity:1;fill-rule:nonzero;stroke:none"
         id="path32" />
      <path
         d="m 6687.52,6480.63 58.7,-1.07 c 61.33,-1.1 100.92,35.56 101.93,92 1.17,63.75 -39.88,92.36 -100.53,94.19 -27.71,0.5 -47.54,-2.07 -56.83,-4.84 z m -53.3,226.02 c 29.14,6.08 70.75,8.99 110.32,8.27 61.34,-1.11 100.68,-14.29 127.87,-42.64 22.03,-22.38 33.95,-56.33 33.26,-94.44 -1.19,-65.22 -38.89,-107.79 -86.04,-124.53 l -0.04,-2.2 c 34.05,-13.81 53.86,-49.35 63.49,-100.85 13.26,-69.14 22.95,-116.98 31.83,-136.19 l -59.35,1.08 c -7.01,14.04 -16.13,56.73 -27.54,118.51 -11.96,68.41 -35.24,94.47 -87.29,97.62 l -54.08,0.98 -3.88,-213.98 -57.37,1.03 8.82,487.34"
         style="fill:#5d66d3;fill-opacity:1;fill-rule:nonzero;stroke:none"
         id="path34" />
      <path
         d="m 2405.3,7002.19 c -170.21,-43.45 -348.15,-203.46 -349.25,-361.93 -98.33,124.27 -382.26,123.91 -543.19,53.49 -424.68,-185.85 -405.02,-723.96 -107.09,-987.92 160.35,-142.06 356.66,-246.98 560.59,-331.68 170.77,-70.92 592.98,-200.72 593.72,-199.53 1.32,-0.48 254.39,361.54 345.42,522.5 108.7,192.21 198.95,395.68 238.01,606.32 72.56,391.37 -289.05,813.42 -738.21,698.75"
         style="fill:#d67086;fill-opacity:1;fill-rule:nonzero;stroke:none"
         id="path36" />
      <path
         d="m 7250.7,4730.49 c 0,0 -503.27,-246.17 -654.68,-154.32 -19.23,11.66 -467.91,189.35 -467.91,189.35 l -92.41,-103.02 515.3,-351.71 171.27,-29.06 432.66,124.01 95.77,324.75"
         style="fill:#3b3387;fill-opacity:1;fill-rule:nonzero;stroke:none"
         id="path38" />
      <path
         d="m 7584.93,4685.67 c 0,0 290.83,-478.85 467.87,-483.25 22.48,-0.55 496.11,-93.11 496.11,-93.11 l 22.18,-136.6 -623.61,-17.99 -159.87,67.97 -297.32,337.9 94.64,325.08"
         style="fill:#3b3387;fill-opacity:1;fill-rule:nonzero;stroke:none"
         id="path40" />
      <path
         d="m 7521.13,4721.66 c 2.16,-0.8 4.3,-1.61 6.43,-2.43 101.98,-39.45 182.33,-217.17 228.38,-321.61 118.88,-269.6 171.12,-550.67 181.07,-848.82 5.36,-160.56 3.77,-321.38 -1.02,-482.05 -1.32,-44.39 -39.07,-441.84 -19.37,-451.3 -202.03,96.97 -407.43,188.53 -622.4,243.7 -214.97,55.17 -441.05,73.01 -657.99,21.98 65.07,504.55 159.77,1017.97 296.83,1505.63 16.39,58.33 27.3,120.5 51.66,175.78 28.05,63.69 70.29,82.55 123.64,120.27 18.27,12.92 36.69,25.92 56.79,34.94 105.95,47.57 248.56,43.49 355.98,3.91"
         style="fill:#3b3387;fill-opacity:1;fill-rule:nonzero;stroke:none"
         id="path42" />
      <path
         d="m 7834.6,3134.56 -229.56,-939.33 -3.88,-692.06 -112.27,-24.5 -45.09,643.56 -112.47,1178.49 503.27,-166.16"
         style="fill:#eac1a4;fill-opacity:1;fill-rule:nonzero;stroke:none"
         id="path44" />
      <path
         d="m 7487.51,1459.27 -18.02,-70.23 16.18,-137.68 h 91.02 l 33.72,199.14 -10.63,33.27 -112.27,-24.5"
         style="fill:#292949;fill-opacity:1;fill-rule:nonzero;stroke:none"
         id="path46" />
      <path
         d="m 6951.19,3236.61 -18.89,-811.33 110.44,-1145.63 110.9,-7.91 37.87,1050.53 224.02,952.72 -464.34,-38.38"
         style="fill:#eac1a4;fill-opacity:1;fill-rule:nonzero;stroke:none"
         id="path48" />
      <path
         d="m 7046.18,1298.8 -149.21,-79.58 11.99,-69.74 263.77,32.81 -12.87,100.38 -113.68,16.13"
         style="fill:#292949;fill-opacity:1;fill-rule:nonzero;stroke:none"
         id="path50" />
      <path
         d="m 6918.89,3131.87 -73.4,-937.47 77.66,-642.68 300.33,17.58 52.15,730.93 128.39,797.03 -20.41,124.01 -432.85,-7.16 -31.87,-82.24"
         style="fill:#3b3387;fill-opacity:1;fill-rule:nonzero;stroke:none"
         id="path52" />
      <path
         d="m 7375.87,2263.6 36.54,-672.25 261.05,13.87 -6.52,637.61 163.13,801.04 -37.98,223.76 -439.03,-28.16 22.81,-975.87"
         style="fill:#3b3387;fill-opacity:1;fill-rule:nonzero;stroke:none"
         id="path54" />
      <path
         d="m 6764.64,3114.84 c 268.8,-40.52 716.01,-71.01 984.81,-111.54 13.57,485.9 -35.32,1046.9 -153.43,1516.86 -21.42,85.25 -53,177.24 -127.6,220.54 -79.92,46.39 -249.23,39.76 -297.79,-50.74 -71.03,-132.4 -84.7,-342.98 -116.23,-490.24 -71.33,-333.18 -245.83,-746.9 -289.76,-1084.88"
         style="fill:#ffffff;fill-opacity:1;fill-rule:nonzero;stroke:none"
         id="path56" />
      <path
         d="m 7181.8,5117.9 c 70.91,189.37 309.65,113.28 352.42,-57.38 28.17,-112.41 -61.95,-256.15 -175.01,-283.86 2.18,-27.79 3.19,-55.67 2.99,-83.55 -30.26,3.14 -60.5,6.26 -90.75,9.4 -9.37,0.97 -20.23,2.91 -24.58,11.25 -2.65,5.05 -2.06,11.11 -1.39,16.78 2.23,19.08 4.46,38.17 6.7,57.26 -2.17,1.04 -4.34,2.11 -6.51,3.26 -53.66,28.51 -85.76,88.3 -92.88,148.64 -7.12,60.35 7.7,121.3 29.01,178.2"
         style="fill:#eac1a4;fill-opacity:1;fill-rule:nonzero;stroke:none"
         id="path58" />
      <path
         d="m 7197.8,5060.42 c -40.43,-53.98 -32.72,-128.45 -25.45,-192.32 6.44,-56.64 3.62,-91.57 -58.62,-85.56 -35.06,3.39 -97.51,8.72 -117.78,43.18 -15.34,26.11 16.25,80.42 34.49,100.1 13.94,15.02 38.2,16.93 51.74,32.32 5.57,6.35 8.76,14.4 11.53,22.38 11.35,32.58 17.75,66.88 18.89,101.36 0.77,23.41 -0.82,47.19 4.65,69.97 7.93,33.03 43.08,62.89 64.84,88.42 40.48,47.5 142.26,95.4 192.61,30.77 11.46,-14.71 14.52,-34.15 16.3,-52.72 1.06,-11.09 1.78,-22.53 -1.62,-33.14 -13.53,-42.3 -54.37,-36.61 -87.62,-47.82 -41.02,-13.82 -78.16,-42.5 -103.96,-76.94"
         style="fill:#292949;fill-opacity:1;fill-rule:nonzero;stroke:none"
         id="path60" />
      <path
         d="m 7500.46,4948.66 c -7.52,-30.63 -34.22,-58.6 -26.16,-89.1 3.58,-13.59 13.61,-24.36 21.17,-36.21 20.65,-32.36 22.46,-75.86 4.57,-109.83 60.52,-17.59 121.03,-35.18 181.55,-52.77 9.12,-2.65 18.73,-5.32 28,-3.22 19.81,4.5 28.39,27.38 33.72,46.98 10.51,38.59 20.94,80.18 7.23,117.76 -6.36,17.42 -17.57,32.76 -23.87,50.2 -30.29,83.89 59.82,183.49 14.54,260.34 -20.2,34.28 -60.88,49.87 -90.97,75.93 -52.45,45.43 -71.43,121.8 -126.72,163.74 -104.43,79.2 -266.29,-26.39 -231.43,-154.54 28.43,-104.49 238.67,-145.88 208.37,-269.28"
         style="fill:#292949;fill-opacity:1;fill-rule:nonzero;stroke:none"
         id="path62" />
      <path
         d="m 7513.56,4707.13 c 0,0 87.75,-1206.27 -99.13,-1444.5 -186.87,-238.24 -266.82,-328.02 -266.82,-328.02 l 768.3,-319.09 c 0,0 -19.96,1759.17 -402.35,2091.61"
         style="fill:#3b3387;fill-opacity:1;fill-rule:nonzero;stroke:none"
         id="path64" />
      <path
         d="m 4095.79,4744.02 c 0,0 -454.38,-327.73 -619.15,-262.81 -20.93,8.24 -493.2,107.5 -493.2,107.5 l -73.64,-117.17 567.34,-259.5 173.72,0.33 405.46,195.39 39.47,336.26"
         style="fill:#8cabef;fill-opacity:1;fill-rule:nonzero;stroke:none"
         id="path66" />
      <path
         d="m 2771.74,5167.71 c 0,0 70.03,-35.04 82.35,-219.38 12.33,-184.34 55.37,-297.44 55.37,-297.44 0,0 -54.94,-41.62 -105.72,-23.83 -50.8,17.78 -68.74,19.58 -68.36,95.68 0.38,76.11 -44.02,428.65 -44.02,428.65 l 80.38,16.32"
         style="fill:#292949;fill-opacity:1;fill-rule:nonzero;stroke:none"
         id="path68" />
      <path
         d="m 2638.66,5074.47 c 71.76,-3.28 139.11,-53.93 162.25,-122.06 29.17,42.8 36.1,99.97 18,148.55 -18.1,48.57 -60.74,87.24 -110.79,100.49 -36.88,-31.73 -60.49,-78.47 -64.16,-127.04 l -5.3,0.06"
         style="fill:#292949;fill-opacity:1;fill-rule:nonzero;stroke:none"
         id="path70" />
      <path
         d="m 2552.54,4638.29 -460.33,-8.79 -161.89,744.85 -152.53,-21.46 v -911.95 l 271.34,-130.57 495.7,-70.66 7.71,398.58"
         style="fill:#474ebb;fill-opacity:1;fill-rule:nonzero;stroke:none"
         id="path72" />
      <path
         d="m 2346.25,1329.91 -8.06,-65.49 117.26,-84.41 70.73,56.01 -54.6,74.96 -117.26,84.41 -8.07,-65.48"
         style="fill:#292949;fill-opacity:1;fill-rule:nonzero;stroke:none"
         id="path74" />
      <path
         d="m 2392.86,3336.38 -24.5,-198.88 163.63,-688.68 -189.7,-1096.82 121.11,-44.75 345.11,1067.34 57.85,311.43 12.53,661.68 -486.03,-11.32"
         style="fill:#f2f2f2;fill-opacity:1;fill-rule:nonzero;stroke:none"
         id="path76" />
      <path
         d="m 3326.48,3093.83 -296.74,-1838.33 -116.66,2.53 4.7,1182.4 -194.28,834.22 602.98,-180.82"
         style="fill:#f2f2f2;fill-opacity:1;fill-rule:nonzero;stroke:none"
         id="path78" />
      <path
         d="m 2914.07,1272.6 -1.44,-66.24 124.71,-68.98 64.52,64.87 -61.64,67.6 -126.15,2.75"
         style="fill:#292949;fill-opacity:1;fill-rule:nonzero;stroke:none"
         id="path80" />
      <path
         d="m 2322.42,3297.55 c 100.99,591.19 78.92,1023.81 86.07,1142.31 7.14,118.5 89.73,178.28 89.78,178.3 35.83,7.37 67.37,30.21 103.59,38.71 244.95,57.49 373.66,-135.94 460.38,-343.44 106.84,-255.65 195.54,-519.36 266.04,-787.93 61.88,-235.72 123.85,-473.56 146.66,-717.28 9.41,-100.56 17,-195.91 -91.17,-237.83 -172.36,-66.8 -364.3,-61.08 -545.23,-79.77 -207.83,-21.47 -415.79,-35.93 -624.63,-40.29 -109.02,-2.26 7.51,256.03 108.51,847.22"
         style="fill:#474ebb;fill-opacity:1;fill-rule:nonzero;stroke:none"
         id="path82" />
      <path
         d="m 1831.35,5358.79 -89.35,93.42 34.61,160.07 88.15,-1.92 22.88,-140.57 44.15,-27.85 -1.47,-67.59 -98.97,-15.56"
         style="fill:#eac1a4;fill-opacity:1;fill-rule:nonzero;stroke:none"
         id="path84" />
      <path
         d="m 2720.12,4666.47 232.43,-46.55 467,-471.85 555.26,8.67 27.39,-171.78 -650.63,-99.98 -526.62,353.83 -104.83,427.66"
         style="fill:#474ebb;fill-opacity:1;fill-rule:nonzero;stroke:none"
         id="path86" />
      <path
         d="m 2777.37,4652.84 29.22,-631.66 -310.32,606.59 95.05,31.63 67.8,18.75 118.25,-25.31"
         style="fill:#ffffff;fill-opacity:1;fill-rule:nonzero;stroke:none"
         id="path88" />
      <path
         d="m 3980.06,4113.91 103.45,61.22 130.33,-35.61 -1.53,-70.2 -219.33,-36.46 -12.92,81.05"
         style="fill:#eac1a4;fill-opacity:1;fill-rule:nonzero;stroke:none"
         id="path90" />
      <path
         d="m 2796.61,5014.76 c -76.58,176.81 -299.76,92.95 -332.13,-71.51 -18.4,-93.53 27.85,-257.76 139.9,-261.74 5.3,-15.98 14.34,-46.15 29.28,-54.27 16.18,-8.79 56.22,12.09 72.03,19.72 4.38,2.12 8.92,4.54 11.51,8.66 3.25,5.16 1.41,16.61 -1.33,29.13 12.06,3.59 24.07,8.81 35.89,15.89 49.61,29.71 77.22,88.14 81.06,145.91 3.84,57.78 -13.2,115.07 -36.21,168.21"
         style="fill:#eac1a4;fill-opacity:1;fill-rule:nonzero;stroke:none"
         id="path92" />
      <path
         d="m 2703.58,5200.92 c 0,0 44.84,-95.14 -76.87,-151.82 -121.71,-56.68 -182.25,-175.59 -136.33,-276.34 45.92,-100.75 158.09,-157.33 114.28,-196.44 -43.81,-39.11 -233.71,-52.69 -233.71,-52.69 0,0 -195.36,347.73 -81.5,542.99 113.86,195.25 329.63,249.74 414.13,134.3"
         style="fill:#292949;fill-opacity:1;fill-rule:nonzero;stroke:none"
         id="path94" />
      <path
         d="m 8345.6,6301.32 c 0,0 -199.12,-227.6 -282.84,-857.91 l 164.84,-27.51 c 0,0 37.87,556.48 201.04,847.78 l -83.04,37.64"
         style="fill:#292949;fill-opacity:1;fill-rule:nonzero;stroke:none"
         id="path96" />
      <path
         d="m 9321.06,7100.91 c 0,0 -574.52,-9.84 -826.98,-232.62 -252.46,-222.79 -139.75,-620.48 -139.75,-620.48 0,0 380.57,-161.31 633.03,61.48 252.47,222.78 333.7,791.62 333.7,791.62"
         style="fill:#474ebb;fill-opacity:1;fill-rule:nonzero;stroke:none"
         id="path98" />
      <path
         d="m 8354.33,6247.81 c 0,0 21.96,-9.26 58.57,-20.26 l 549.18,556.57 -620.57,-475.67 c 6.36,-37.7 12.82,-60.64 12.82,-60.64"
         style="fill:#292949;fill-opacity:1;fill-rule:nonzero;stroke:none"
         id="path100" />
      <path
         d="m 7467.03,6871.25 c 0,0 10.72,-512.71 210.4,-737.26 199.68,-224.55 554.22,-122.62 554.22,-122.62 0,0 142.67,340.2 -57.01,564.75 -199.68,224.55 -707.61,295.13 -707.61,295.13"
         style="fill:#474ebb;fill-opacity:1;fill-rule:nonzero;stroke:none"
         id="path102" />
      <path
         d="m 8231.65,6011.38 c 0,0 8.18,19.63 17.88,52.34 l -498.57,488.22 426.62,-552.21 c 33.61,5.81 54.07,11.65 54.07,11.65"
         style="fill:#292949;fill-opacity:1;fill-rule:nonzero;stroke:none"
         id="path104" />
      <path
         d="m 8354.33,6247.81 c 0,0 622.82,7.91 869.03,462.77 0,0 -180.35,-745.59 -869.03,-462.77"
         style="fill:#3742aa;fill-opacity:1;fill-rule:nonzero;stroke:none"
         id="path106" />
      <path
         d="m 6553.66,1308.57 10.37,-79.47 -148.57,-100.21 -89.85,69.11 69.11,89.84 148.58,100.22 10.36,-79.49"
         style="fill:#242835;fill-opacity:1;fill-rule:nonzero;stroke:none"
         id="path108" />
      <path
         d="m 6558.64,1335.27 -116.63,1013.62 135.92,1135.24 -31.49,241.38 -616.62,22.26 -21.51,-392.99 105.4,-1008.25 391.4,-1063.36 153.53,52.1"
         style="fill:#d6d6d8;fill-opacity:1;fill-rule:nonzero;stroke:none"
         id="path110" />
      <path
         d="m 5477.63,3633.31 0.29,-1023.1 208.41,-1316.66 148.22,1.76 79.19,1218.12 188.41,1219.41 -624.52,-99.53"
         style="fill:#d6d6d8;fill-opacity:1;fill-rule:nonzero;stroke:none"
         id="path112" />
      <path
         d="m 5834.43,1232.8 -159.33,-82.04 -81.1,79.19 79.19,81.09 160.3,1.91 0.94,-80.15"
         style="fill:#242835;fill-opacity:1;fill-rule:nonzero;stroke:none"
         id="path114" />
      <path
         d="m 6642.1,3287.54 c -1.49,44.33 -4.02,81.32 -4.4,94.53 -3.4,118.93 -14.22,237.57 -29.33,355.64 -13.55,105.79 -30.88,368.46 -49.18,473.59 -15.12,86.81 -67.63,303.45 -105.43,383.92 -93.99,200.12 -65.11,218.68 -476.47,277.38 -180.28,25.73 -222.67,-86.68 -369.78,-216.13 -14.51,-12.76 -13.56,-88.61 -16.9,-108.71 -5.87,-35.38 -12.17,-70.71 -19.4,-105.87 -5.68,-27.63 -11.95,-55.19 -18.99,-82.56 l 0.01,0.01 c 0,0 -122.65,-563.17 -204.23,-682.88 -81.58,-119.71 -250.27,-287.17 32.63,-388.71 50.12,-16.1 100.57,-31.41 152.73,-39.55 0,0 231.15,26.13 350.06,25.46 109.51,-0.61 219.49,-11.49 327.18,-29.85 72.02,-11.9 145.51,-29.25 209.98,-62.77 61.49,-31.97 105.92,-79.1 168.33,-112.21 5.9,-3.14 12.39,-6.39 19.1,-5.44 35.8,5.03 37.24,130.84 34.09,224.15"
         style="fill:#d67086;fill-opacity:1;fill-rule:nonzero;stroke:none"
         id="path116" />
      <path
         d="m 5976.93,4816.12 c 20.77,-10.21 69.75,-13.8 120.8,6.31 10.29,4.05 17.22,13.99 17.06,25.05 -0.47,31.03 -3.02,62.03 -7.65,92.72 38.3,13.54 82.54,33.83 89.14,73.91 2.08,12.62 -0.13,25.51 -2.33,38.12 -9.11,52.1 -18.21,104.2 -27.31,156.3 -3.14,18.02 -6.49,36.56 -16.33,51.99 -17.25,27.07 -50.65,38.86 -82.29,44.29 -80.73,13.86 -168.64,-3.79 -231.12,-56.76 -16.63,-14.1 -31.66,-31.04 -38.96,-51.58 -11.26,-31.67 -2.73,-66.56 5.87,-99.06 7.94,-29.99 15.88,-59.99 23.81,-89.98 9.13,-34.5 22.28,-73.71 55.56,-86.59 17.67,-6.84 38.51,-4.79 54.52,-14.93 28.23,-17.87 24.51,-59.8 39.23,-89.79"
         style="fill:#eac1a4;fill-opacity:1;fill-rule:nonzero;stroke:none"
         id="path118" />
      <path
         d="m 5510.17,5335 c -7.95,13 -16.51,25.54 -26.09,37.3 -20.75,25.48 -46.29,47.3 -62.99,75.59 -16.71,28.28 -22.64,66.66 -2.71,92.77 12.87,16.86 33.78,25.31 54.11,31.34 66.97,19.84 139.3,21.32 207.03,4.21 64.52,-16.29 122.28,-43.37 187.15,-19 60.95,22.89 105.01,13.69 168.8,-8.93 69.02,-24.49 161.64,-30.12 224.14,-64.75 26.1,-14.46 46.95,-37.09 63.22,-62.11 56.35,-86.67 56.89,-206.33 1.31,-293.5 -12.47,-19.56 -27.39,-37.45 -43.09,-54.53 -32.48,-35.35 -71.32,-79.02 -116.06,-92.17 -1.14,40.04 35.1,166.39 4.29,199.15 -48.92,52 -159.24,33.62 -219.76,20.68 -66.02,-14.11 -124.8,-60.99 -190.26,-71.11 -47.1,-7.28 -107.28,15.71 -147.39,40 -49.5,29.98 -72.68,117.6 -101.7,165.06"
         style="fill:#292949;fill-opacity:1;fill-rule:nonzero;stroke:none"
         id="path120" />
      <path
         d="m 4657.41,4620.3 -127.6,81.82 32.6,56.05 99.78,-36.68 3.11,33.67 100.66,-83.31 -26.01,-62.85 -82.54,11.3"
         style="fill:#aa6755;fill-opacity:1;fill-rule:nonzero;stroke:none"
         id="path122" />
      <path
         d="m 5850.28,4853.64 -664.4,-273.85 -419.92,92.06 -40.86,-80.36 383.37,-281.12 527.53,63.8 214.28,479.47"
         style="fill:#d67086;fill-opacity:1;fill-rule:nonzero;stroke:none"
         id="path124" />
      <path
         d="m 6774.9,5885.25 -10.94,166.42 -71.32,-1.57 -17.75,-115.62 -34.08,14.91 26.71,-141.27 74.36,-8.37 33.02,85.5"
         style="fill:#eac1a4;fill-opacity:1;fill-rule:nonzero;stroke:none"
         id="path126" />
      <path
         d="m 6136.93,4762.53 363.82,484.12 166.77,561.47 99.13,-3.38 1.58,-648.87 -344.21,-685.67 -287.09,292.33"
         style="fill:#d67086;fill-opacity:1;fill-rule:nonzero;stroke:none"
         id="path128" />
      <path
         d="m 4005.39,1236.59 -3.45,-69.59 135.73,-76.49 73.04,66.14 -66.13,73.04 -135.74,76.49 -3.45,-69.59"
         style="fill:#f2f2f2;fill-opacity:1;fill-rule:nonzero;stroke:none"
         id="path130" />
      <path
         d="m 3890.88,3348.17 -10.47,-211.35 236.4,-929.84 -117.6,-947.61 136.68,-34.45 377.14,1138.98 6.17,342.55 -95.55,703.97 -532.77,-62.25"
         style="fill:#353a85;fill-opacity:1;fill-rule:nonzero;stroke:none"
         id="path132" />
      <path
         d="m 4929.93,3370.11 106.81,-882.99 -42.07,-1158.11 -128.11,-14 -195.81,1042.98 -290.21,1032.65 549.39,-20.53"
         style="fill:#353a85;fill-opacity:1;fill-rule:nonzero;stroke:none"
         id="path134" />
      <path
         d="m 4873.2,1261.07 146.1,-54.13 61.7,76.84 -76.83,61.7 -138.54,-15.14 7.57,-69.27"
         style="fill:#f2f2f2;fill-opacity:1;fill-rule:nonzero;stroke:none"
         id="path136" />
      <path
         d="m 4981.4,3517.23 c -132.45,268.46 -185.7,562.99 -255.37,852.7 -20.6,85.48 -41.96,172.78 -89.66,246.64 -54.78,84.79 -130.3,122.69 -213.9,137.17 -106.42,18.42 -225.92,-1.12 -332.41,-10.22 -64.06,-201.44 -106.25,-87.29 -181.54,-284.8 -15.61,-40.95 -59.47,-395.4 -75.91,-436.02 v 0 c 0,0 -172.85,-544.84 -116.39,-975.39 0.56,-4.26 1.03,-8.41 1.53,-12.59 11.24,-1.91 22,-3.83 32.07,-5.85 150.16,-30.11 303.3,-46.21 456.5,-43.93 135.9,2.02 271.77,18.74 403.69,51.63 180.59,45.02 395.13,27.17 542.61,146.51 -43.46,88.09 -127.76,246.05 -171.22,334.15"
         style="fill:#8cabef;fill-opacity:1;fill-rule:nonzero;stroke:none"
         id="path138" />
      <path
         d="m 5056.46,5532.67 -5.83,151.46 -64.84,0.32 -18.97,-104.6 -30.6,14.38 20.79,-129 67.36,-9.43 32.09,76.87"
         style="fill:#aa6755;fill-opacity:1;fill-rule:nonzero;stroke:none"
         id="path140" />
      <path
         d="m 4436.94,4763.83 386.56,292.77 133.51,408.63 89.98,-5.51 47.99,-472.97 -411.6,-586.94 -246.44,364.02"
         style="fill:#8cabef;fill-opacity:1;fill-rule:nonzero;stroke:none"
         id="path142" />
      <path
         d="m 4004.84,5091.46 c 54.04,170.81 301.42,233.37 361.77,36.51 18.13,-59.16 29.42,-122.03 18.44,-182.92 -10.97,-60.9 -47.3,-119.68 -103.6,-145.33 l -0.97,-0.42 c 2.42,-15.73 4.85,-31.46 7.27,-47.2 0.52,-3.37 0.97,-7.11 -0.89,-9.97 -2.13,-3.26 -6.43,-4.17 -10.27,-4.8 -18.78,-3.06 -37.56,-6.12 -56.34,-9.18 -9.3,-1.52 -19,-3.01 -28.02,-0.26 -19.74,6.03 -28.24,29.48 -29.37,50.09 -0.27,4.93 -0.29,9.92 -0.29,14.91 -111.87,36.65 -193.05,186.91 -157.73,298.57"
         style="fill:#aa6755;fill-opacity:1;fill-rule:nonzero;stroke:none"
         id="path144" />
      <path
         d="m 4346.23,5372.22 c 45.88,2.44 80.24,-45.08 119.81,-72.07 32.91,-22.46 71.8,-31.27 106.29,-50.57 34.49,-19.29 66.73,-55.8 63.55,-97.37 38.28,15.52 79.63,31.25 119.75,19.5 40.13,-11.75 73.45,-64.15 53.35,-102.82 -18,-34.64 -65.79,-38.67 -84.78,-72.64 -30.05,-53.74 28.56,-147.18 -20.6,-180.05 -11.81,-7.91 -26.94,-8.65 -38.6,-16.84 -14.46,-10.17 -20.62,-29.39 -28.24,-46.29 -34.51,-76.58 -119.19,-120.72 -196.99,-102.67 -46.82,27.6 -81.39,78.72 -93.75,134.67 -14.9,67.44 22.28,86.97 34.01,147.84 12.82,66.51 -1.79,139.63 -39.12,195.78 -24.29,36.52 -60.88,69.5 -102.09,77.41 -16.75,3.22 -12.77,-11.39 -30.55,3.49 -7.64,6.39 -16.76,28.68 -18.11,39.08 48.98,32.28 95.7,120.34 156.07,123.55"
         style="fill:#292949;fill-opacity:1;fill-rule:nonzero;stroke:none"
         id="path146" />
      <path
         d="m 3858.93,5334.11 c -23.96,-4.29 -49.21,-0.94 -72.37,-8.58 -34.79,-11.48 -36.05,-46.33 -48.36,-75.54 -13.62,-32.35 -33.08,-75.66 -57.53,-99.51 -17.61,-17.18 -40.8,-25.73 -61.47,-38.32 -20.67,-12.58 -40.43,-32.19 -42.49,-58.21 -1.94,-24.67 12.52,-48.35 12.61,-73.17 -0.53,-36.94 -8.64,-55.11 -0.89,-93.66 4,-19.88 8.59,-40.98 21.85,-55.54 17.48,-19.2 44.75,-21.44 69.06,-19.71 24.29,1.73 49.65,6.03 72.49,-4.15 49.53,-22.05 35.08,-72.89 44.59,-117.55 14.46,-67.96 87.34,-113.73 148.1,-95.81 51.52,15.2 85.72,70.11 88.87,127.21 1.58,28.6 -7.25,56.22 -5.37,84.81 1.81,27.57 20.92,64.18 -1.93,88.37 -5.57,5.88 -13.09,9.42 -17.96,16 -3.96,5.31 -5.78,12.11 -6.69,18.81 -3.15,23.23 4.2,47.54 19.24,63.67 10.82,11.59 25.48,19.42 32.82,33.95 8.39,16.65 4.96,37.37 5.63,56.58 1.61,46.45 31.16,89.34 71.31,103.53 26.47,9.34 49.97,14.11 73.82,29.89 3.63,2.4 58.26,42.17 58.66,32.42 -0.68,16.97 -9.08,32.56 -17.71,46.94 -14.19,23.65 -30.25,46.89 -51.94,62.3 -70.14,49.84 -83.16,-49.3 -141.48,-30.57 -14.07,4.52 -23.64,18.72 -35.83,27.8 -23.02,17.17 -53.53,14.71 -79.56,5.94 -26.04,-8.76 -50.49,-23.07 -77.47,-27.9"
         style="fill:#292949;fill-opacity:1;fill-rule:nonzero;stroke:none"
         id="path148" />
      <path
         d="M 3295.26,2286.19 4774.51,1714.69 6395.72,2256.12 5020.25,2788.2 3295.26,2286.19"
         style="fill:#5d66d3;fill-opacity:1;fill-rule:nonzero;stroke:none"
         id="path150" />
      <path
         d="m 5952.37,2197.29 c 0.64,339.54 -274.09,615.29 -613.62,615.93 -339.52,0.64 -615.28,-274.09 -615.92,-613.62 -0.63,-339.52 274.09,-615.28 613.62,-615.92 339.53,-0.63 615.29,274.08 615.92,613.61"
         style="fill:#ffffff;fill-opacity:1;fill-rule:nonzero;stroke:none"
         id="path152" />
      <g
         id="g154">
        <g
           id="g156"
           clip-path="url(#clipPath160)">
          <path
             d="m 5737.46,2568.34 14.31,10.67 c -2.9,3.9 -72.76,95.99 -210.82,149.27 l -6.43,-16.66 c 133.31,-51.44 202.26,-142.37 202.94,-143.28"
             style="fill:#5c5955;fill-opacity:1;fill-rule:nonzero;stroke:none"
             id="path162" />
          <path
             d="m 4935.39,2569.83 c 0.69,0.92 70.27,91.7 203.48,142.53 l -6.36,16.68 c -138.27,-52.75 -208.46,-144.59 -211.38,-148.46 l 14.26,-10.75"
             style="fill:#5c5955;fill-opacity:1;fill-rule:nonzero;stroke:none"
             id="path164" />
          <path
             d="m 5787.66,1870.33 c 41.98,44.69 75.14,115.96 98.57,211.84 17.33,70.95 22.58,129.83 22.63,130.42 l -17.79,1.55 c -0.2,-2.29 -21.04,-230.07 -116.42,-331.58 l 13.01,-12.23"
             style="fill:#5c5955;fill-opacity:1;fill-rule:nonzero;stroke:none"
             id="path166" />
          <path
             d="m 4884.5,1872.02 13.05,12.18 c -95.05,101.94 -114.99,329.73 -115.18,332.02 l -17.79,-1.48 c 0.05,-0.59 5.07,-59.51 22.14,-130.51 23.06,-95.97 55.96,-167.36 97.78,-212.21"
             style="fill:#5c5955;fill-opacity:1;fill-rule:nonzero;stroke:none"
             id="path168" />
          <path
             d="m 5325.38,1633.27 c 80.22,-0.15 143.5,15.01 147.45,15.98 l -4.25,17.34 c -1.42,-0.34 -144.03,-34.44 -270.47,0.45 l -4.75,-17.21 c 44.63,-12.31 90.59,-16.48 132.02,-16.56"
             style="fill:#5c5955;fill-opacity:1;fill-rule:nonzero;stroke:none"
             id="path170" />
          <path
             d="m 5337.81,2428.8 208.8,-152.3 -80.32,-245.65 -258.45,0.49 -79.4,245.95 209.37,151.51"
             style="fill:#292949;fill-opacity:1;fill-rule:nonzero;stroke:none"
             id="path172" />
          <path
             d="m 5338.06,2561.87 -208.8,152.3 80.32,245.64 258.45,-0.48 79.4,-245.95 -209.37,-151.51"
             style="fill:#292949;fill-opacity:1;fill-rule:nonzero;stroke:none"
             id="path174" />
          <path
             d="m 5532.79,1897.77 258.42,-3.65 76.39,-246.89 -211.2,-148.95 -206.93,154.84 83.32,244.65"
             style="fill:#292949;fill-opacity:1;fill-rule:nonzero;stroke:none"
             id="path176" />
          <path
             d="m 5551.42,1839.8 15.98,7.96 -123.4,247.95 -15.98,-7.95 123.4,-247.96"
             style="fill:#292949;fill-opacity:1;fill-rule:nonzero;stroke:none"
             id="path178" />
          <path
             d="m 5676.28,2328.94 59.03,251.61 257.55,21.6 100.13,-238.26 -195.67,-168.86 -221.04,133.91"
             style="fill:#292949;fill-opacity:1;fill-rule:nonzero;stroke:none"
             id="path180" />
          <path
             d="m 5495.42,2242.03 254.09,110.24 -7.11,16.37 -254.08,-110.23 7.1,-16.38"
             style="fill:#292949;fill-opacity:1;fill-rule:nonzero;stroke:none"
             id="path182" />
          <path
             d="m 5139.56,1895.3 -258.44,-2.67 -77.31,-246.61 210.65,-149.74 207.5,154.06 -82.4,244.96"
             style="fill:#292949;fill-opacity:1;fill-rule:nonzero;stroke:none"
             id="path184" />
          <path
             d="m 5120.71,1837.4 124.33,247.49 -15.95,8.02 -124.33,-247.49 15.95,-8.02"
             style="fill:#292949;fill-opacity:1;fill-rule:nonzero;stroke:none"
             id="path186" />
          <path
             d="m 4995.55,2328.72 -61.8,250.95 -257.76,18.77 -97.51,-239.35 197.5,-166.69 219.57,136.32"
             style="fill:#292949;fill-opacity:1;fill-rule:nonzero;stroke:none"
             id="path188" />
          <path
             d="m 5177.34,2243.82 6.93,16.45 -255.29,107.44 -6.92,-16.47 255.28,-107.42"
             style="fill:#292949;fill-opacity:1;fill-rule:nonzero;stroke:none"
             id="path190" />
          <path
             d="m 5328.83,2399.29 17.85,-0.03 0.55,291.74 -17.85,0.04 -0.55,-291.75"
             style="fill:#292949;fill-opacity:1;fill-rule:nonzero;stroke:none"
             id="path192" />
        </g>
      </g>
      <path
         d="m 4772.22,489.109 -1478.93,748.401 1.97,1049.89 1478.69,-571.64 -1.73,-1226.651"
         style="fill:#5d66d3;fill-opacity:1;fill-rule:nonzero;stroke:none"
         id="path194" />
      <path
         d="m 4772.22,489.109 1621.53,713.311 1.97,1054.07 -1621.77,-540.73 -1.73,-1226.651"
         style="fill:#474ebb;fill-opacity:1;fill-rule:nonzero;stroke:none"
         id="path196" />
      <path
         d="m 4645.49,2548.73 c -72.61,-23.23 -112.65,-100.92 -89.42,-173.53 23.23,-72.62 100.92,-112.65 173.53,-89.43 l 190.55,60.95 c 72.61,23.23 112.64,100.93 89.42,173.53 -23.23,72.62 -100.92,112.65 -173.53,89.43 l -190.55,-60.95"
         style="fill:#eed5d5;fill-opacity:1;fill-rule:nonzero;stroke:none"
         id="path198" />
      <path
         d="m 4847.27,2103.2 c -82.16,42.35 -183.08,10.06 -225.41,-72.1 -42.33,-82.15 -10.05,-183.07 72.1,-225.41 l 215.59,-111.09 c 82.15,-42.33 183.08,-10.05 225.41,72.1 42.33,82.16 10.05,183.08 -72.1,225.42 l -215.59,111.08"
         style="fill:#eed5d5;fill-opacity:1;fill-rule:nonzero;stroke:none"
         id="path200" />
      <path
         d="m 4140.86,1877.25 c 42.34,82.15 143.26,114.44 225.41,72.11 82.16,-42.34 114.44,-143.27 72.1,-225.41 l -111.09,-215.6 c -42.33,-82.15 -143.25,-114.43 -225.41,-72.1 -82.15,42.33 -114.44,143.25 -72.1,225.41 l 111.09,215.59"
         style="fill:#eed5d5;fill-opacity:1;fill-rule:nonzero;stroke:none"
         id="path202" />
      <path
         d="m 3843.75,2292.28 c -72.62,-23.24 -112.65,-100.92 -89.42,-173.54 23.22,-72.61 100.91,-112.65 173.53,-89.42 l 190.54,60.95 c 72.62,23.23 112.65,100.92 89.42,173.53 -23.22,72.62 -100.92,112.65 -173.53,89.42 l -190.54,-60.94"
         style="fill:#eed5d5;fill-opacity:1;fill-rule:nonzero;stroke:none"
         id="path204" />
      <path
         d="m 4116.09,1912.2 c 64.57,-201.88 280.58,-313.19 482.46,-248.62 201.88,64.58 313.18,280.58 248.61,482.46 l -42.72,133.56 c -64.58,201.88 -280.58,313.19 -482.46,248.61 -201.88,-64.57 -313.19,-280.57 -248.61,-482.46 l 42.72,-133.55"
         style="fill:#eed5d5;fill-opacity:1;fill-rule:nonzero;stroke:none"
         id="path206" />
      <path
         d="m 3859.64,2613.39 c 69.73,-217.99 302.98,-338.18 520.97,-268.45 217.98,69.73 338.18,302.97 268.45,520.96 -69.73,217.99 -302.98,338.18 -520.96,268.46 -217.99,-69.74 -338.18,-302.98 -268.46,-520.97"
         style="fill:#eed5d5;fill-opacity:1;fill-rule:nonzero;stroke:none"
         id="path208" />
      <path
         d="m 4261.86,2716.18 c 141.19,45.16 288.77,10.63 394.18,-78.52 -34.11,-133.79 -134.24,-247.56 -275.43,-292.72 -141.2,-45.16 -288.77,-10.63 -394.18,78.53 34.1,133.78 134.23,247.55 275.43,292.71"
         style="fill:#ffffff;fill-opacity:1;fill-rule:nonzero;stroke:none"
         id="path210" />
      <path
         d="m 4321.94,3019.58 c 32.59,-101.87 141.59,-158.04 243.45,-125.45 101.87,32.58 158.03,141.57 125.45,243.45 -32.59,101.86 -141.58,158.03 -243.45,125.45 -101.86,-32.59 -158.03,-141.58 -125.45,-243.45"
         style="fill:#eed5d5;fill-opacity:1;fill-rule:nonzero;stroke:none"
         id="path212" />
      <path
         d="m 3667.95,2810.38 c 32.59,-101.86 141.58,-158.03 243.45,-125.45 101.86,32.59 158.03,141.58 125.45,243.45 -32.59,101.86 -141.59,158.04 -243.45,125.45 -101.87,-32.58 -158.03,-141.57 -125.45,-243.45"
         style="fill:#eed5d5;fill-opacity:1;fill-rule:nonzero;stroke:none"
         id="path214" />
      <path
         d="m 4385.39,2848.07 c 7.13,-22.3 30.98,-34.59 53.27,-27.46 22.3,7.13 34.59,30.98 27.46,53.28 -7.13,22.28 -30.98,34.58 -53.28,27.45 -22.29,-7.13 -34.58,-30.99 -27.45,-53.27"
         style="fill:#353a85;fill-opacity:1;fill-rule:nonzero;stroke:none"
         id="path216" />
      <path
         d="m 4003.99,2726.06 c 7.13,-22.29 30.98,-34.58 53.28,-27.45 22.29,7.13 34.58,30.98 27.45,53.27 -7.13,22.3 -30.98,34.58 -53.28,27.46 -22.29,-7.13 -34.58,-30.98 -27.45,-53.28"
         style="fill:#353a85;fill-opacity:1;fill-rule:nonzero;stroke:none"
         id="path218" />
      <path
         d="m 4186.84,2542.11 c 6.07,11.78 20.55,16.42 32.33,10.34 23.69,-12.21 49.45,-16.27 74.09,-13.24 l -30.5,95.34 c -53.09,16.9 -62.8,54.8 -62.8,54.8 -6.11,19.11 3.79,41.56 22.9,47.68 l 58.68,18.77 c 19.11,6.11 40.2,-6.43 46.32,-25.55 l 0.08,-0.3 c 1.25,-3.56 12.22,-38.53 -19.45,-80.76 l 30.5,-95.35 c 21.83,11.83 40.44,30.1 52.65,53.78 6.07,11.78 20.55,16.41 32.33,10.34 11.79,-6.08 16.42,-20.55 10.35,-32.34 -22.24,-43.14 -59.94,-73.23 -102.88,-86.96 -42.94,-13.73 -91.11,-11.12 -134.26,11.11 -11.78,6.07 -16.42,20.55 -10.34,32.34"
         style="fill:#353a85;fill-opacity:1;fill-rule:nonzero;stroke:none"
         id="path220" />
      <path
         d="m 4547.33,3162.61 c 48.57,-30.66 63.09,-94.89 32.43,-143.45 l -175.88,111.03 c 30.66,48.56 94.88,63.08 143.45,32.42"
         style="fill:#ffffff;fill-opacity:1;fill-rule:nonzero;stroke:none"
         id="path222" />
      <path
         d="m 3770.29,2914.06 c 21.76,53.16 82.49,78.61 135.64,56.85 l -78.79,-192.49 c -53.16,21.76 -78.61,82.49 -56.85,135.64"
         style="fill:#ffffff;fill-opacity:1;fill-rule:nonzero;stroke:none"
         id="path224" />
      <path
         d="m 4773.95,1715.76 288.36,-495.18 1573.96,621.36 -241.92,414.55 -1620.4,-540.73"
         style="fill:#7786e0;fill-opacity:1;fill-rule:nonzero;stroke:none"
         id="path226" />
      <path
         d="M 3029.47,1957.46 4434.2,1289.75 4773.95,1715.76 3293.71,2287.4 3029.47,1957.46"
         style="fill:#474ebb;fill-opacity:1;fill-rule:nonzero;stroke:none"
         id="path228" />
      <path
         d="m 8107.62,5413.66 -89.35,93.42 34.61,160.06 88.15,-1.92 22.88,-140.56 44.15,-27.85 -1.47,-67.6 -98.97,-15.55"
         style="fill:#eac1a4;fill-opacity:1;fill-rule:nonzero;stroke:none"
         id="path230" />
      <path
         d="m 8762.41,4587.11 c 44.26,2.01 88.52,4.01 132.78,6.02 2.31,35.25 1.8,70.68 -1.51,105.85 0.4,-4.27 71.16,33.21 77.41,41.69 17.99,24.42 20.01,65.38 27.46,94.4 15.87,61.83 30.77,131.44 -1.99,186.23 -33.92,56.74 -107.14,76.04 -173.23,77.65 -82.97,2.01 -175.58,-22.35 -218.11,-93.63 -38.41,-64.37 10.39,-159.12 24.4,-227.1 6.9,-33.52 17.42,-71.76 48.59,-85.86 16.57,-7.48 36.62,-6.63 51.41,-17.19 26.07,-18.62 20.29,-58.56 32.79,-88.06"
         style="fill:#eac1a4;fill-opacity:1;fill-rule:nonzero;stroke:none"
         id="path232" />
      <path
         d="m 8474.26,5128.03 c -5.02,45.85 -10.04,91.71 -15.06,137.56 -1.87,17.03 -3.66,34.7 1.82,50.93 9.1,27 36.47,43.9 63.95,51.4 27.49,7.49 56.45,7.83 84.26,14 29.69,6.6 58.53,19.88 88.91,18.6 57.79,-2.44 102.1,-55.94 159.23,-64.96 79.09,-12.49 151.62,23.87 199.54,-69.09 8.8,-17.08 11.27,-36.76 19.04,-54.33 10.04,-22.71 28.26,-40.59 42.51,-60.91 62.68,-89.35 42.72,-225.16 -32.91,-301.12 -36.67,-36.83 -51.63,-70.11 -102.23,-81.99 23.1,47.16 -7.87,234.8 -71.38,255.75 -16.81,5.53 -67.26,-15.12 -85.88,-17.88 -41.23,-6.1 -81.3,-12.79 -120.07,-28.93 -57.54,-23.96 -120.02,-40.98 -182.35,-45.75 -7.97,-0.61 -16.87,-0.92 -22.91,4.33 -5.67,4.94 -6.85,13.15 -7.67,20.63 -6.27,57.25 -12.53,114.51 -18.8,171.76"
         style="fill:#292949;fill-opacity:1;fill-rule:nonzero;stroke:none"
         id="path234" />
      <path
         d="m 9472.06,1204.9 17.94,-74.73 -131.53,-110.62 -92.68,56.8 56.8,92.67 131.53,110.62 17.94,-74.74"
         style="fill:#292949;fill-opacity:1;fill-rule:nonzero;stroke:none"
         id="path236" />
      <path
         d="m 9165.36,3517.26 54.48,-226.98 -66.55,-1056.19 320.81,-1003.23 -141.12,-65.24 -641.21,1157.73 -76.58,370.07 -40.06,782.62 590.23,41.22"
         style="fill:#353a85;fill-opacity:1;fill-rule:nonzero;stroke:none"
         id="path238" />
      <path
         d="m 8280.34,3425.56 -9.51,-981.03 187.24,-1264.52 142.14,0.26 87.59,1167.28 192.34,1167.47 -599.8,-89.46"
         style="fill:#353a85;fill-opacity:1;fill-rule:nonzero;stroke:none"
         id="path240" />
      <path
         d="m 8599.37,1197.2 0.14,-76.87 -153.57,-77.15 -77,76.72 76.71,77 153.72,0.3"
         style="fill:#292949;fill-opacity:1;fill-rule:nonzero;stroke:none"
         id="path242" />
      <path
         d="m 9334.98,3239.89 c 2.13,-89.5 -0.46,-210.12 -34.83,-214.61 -6.45,-0.84 -12.63,2.34 -18.27,5.4 -59.52,32.36 -101.67,77.97 -160.34,109.22 -61.49,32.76 -131.79,50.09 -200.74,62.19 -103.09,18.64 -208.44,30.13 -313.45,31.76 -82.54,1.29 -165.46,-5.9 -247.64,-12.89 -68.37,-5.82 -131.97,-26.21 -201.63,-21.52 -71.42,4.82 -141.79,26.56 -202.89,63.96 -2.24,1.37 -4.61,2.92 -5.54,5.38 -1.02,2.68 -0.04,5.66 0.94,8.36 14.51,39.99 24.92,79.59 51.33,112.73 29.52,37.01 50.44,84.02 71.74,126.13 44.39,87.76 86.17,179.73 117.14,273.2 46.81,127.05 100.33,250.83 145.58,378.3 31.36,88.35 59.95,178.27 102.57,262.06 33.37,65.6 92.9,161.47 164.75,190.45 24.32,9.82 51.17,10.75 77.38,11.55 79.53,2.43 159.05,4.87 238.57,7.31 28.99,0.88 59.15,1.55 85.59,-10.34 39.64,-17.83 62.11,-59.38 81.75,-98.15 88.09,-173.84 144.39,-361.35 176.1,-554.76 16.55,-100.98 31.88,-202.17 43.84,-303.75 13.37,-113.34 22.61,-227.21 24.73,-341.28 0.23,-12.67 2.3,-48.17 3.32,-90.7"
         style="fill:#5d66d3;fill-opacity:1;fill-rule:nonzero;stroke:none"
         id="path244" />
      <path
         d="m 8403.96,4305.64 -454.74,370.67 112.57,782.31 173.87,1 -24.85,-678.16 402.34,-195.8 -209.19,-280.02"
         style="fill:#5d66d3;fill-opacity:1;fill-rule:nonzero;stroke:none"
         id="path246" />
      <path
         d="m 8590.09,3749.53 -142.16,31.38 -487.5,-2209.03 142.16,-31.36 487.5,2209.01"
         style="fill:#292949;fill-opacity:1;fill-rule:nonzero;stroke:none"
         id="path248" />
      <path
         d="m 7769.41,2190.05 -92.15,-417.62 c -87.49,-396.42 259.98,-643.4 259.98,-643.4 0,0 419.15,77.8 506.63,474.22 l 92.17,417.62 -766.63,169.18"
         style="fill:#c7c7c9;fill-opacity:1;fill-rule:nonzero;stroke:none"
         id="path250" />
      <path
         d="m 8356.82,4123.51 c -12.38,-183.5 113.36,-311.64 163.11,-354.8 63.83,18.02 231.09,80.57 297.06,253.24 z m 135.18,-480.68 -20.23,14.39 c -12.08,8.57 -295.05,214.16 -221,549.7 l 12.63,57.22 697.46,-153.93 -12.63,-57.21 c -74.04,-335.55 -417.25,-402.94 -431.82,-405.64 l -24.41,-4.53"
         style="fill:#c7c7c9;fill-opacity:1;fill-rule:nonzero;stroke:none"
         id="path252" />
      <path
         d="m 8590.09,3749.53 -142.16,31.38 -64.75,-293.39 142.16,-31.38 64.75,293.39"
         style="fill:#f2f2f2;fill-opacity:1;fill-rule:nonzero;stroke:none"
         id="path254" />
      <path
         d="m 8790.54,3818.31 -64.82,-25.93 -56.19,25.14 -11.38,-9.21 10.77,-14.46 -52.61,7.51 -36.78,-22.54 -4.04,-57.26 33.06,-49.23 57.28,2.02 57.77,36.15 90.27,31.65 -23.33,76.16"
         style="fill:#eac1a4;fill-opacity:1;fill-rule:nonzero;stroke:none"
         id="path256" />
      <path
         d="m 8715.64,3835.35 363.59,230.26 -73.99,562.92 383.51,-299.49 -58.71,-498.11 -565,-122.45 -49.4,126.87"
         style="fill:#5d66d3;fill-opacity:1;fill-rule:nonzero;stroke:none"
         id="path258" />
    </g>
  </g>
</svg>
