<svg width="129" height="96" viewBox="0 0 129 96" fill="none" xmlns="http://www.w3.org/2000/svg">
<path d="M128.838 84.3635H0V84.4279H128.838V84.3635Z" fill="#EBEBEB"/>
<path d="M115.929 88.5093H107.395V88.5737H115.929V88.5093Z" fill="#EBEBEB"/>
<path d="M85.3476 89.2102H83.1084V89.2746H85.3476V89.2102Z" fill="#EBEBEB"/>
<path d="M107.136 86.1182H102.191V86.1826H107.136V86.1182Z" fill="#EBEBEB"/>
<path d="M24.6466 86.5508H13.5176V86.6152H24.6466V86.5508Z" fill="#EBEBEB"/>
<path d="M28.5735 86.5508H26.9424V86.6152H28.5735V86.5508Z" fill="#EBEBEB"/>
<path d="M58.0161 87.6382H33.877V87.7026H58.0161V87.6382Z" fill="#EBEBEB"/>
<path d="M61.0692 72.8709H11.3145C10.9247 72.8702 10.5511 72.7149 10.2757 72.4391C10.0004 72.1632 9.8457 71.7894 9.8457 71.3996V1.45845C9.8491 1.07091 10.0053 0.700359 10.2803 0.427284C10.5553 0.154209 10.9269 0.000663875 11.3145 0H61.0692C61.4594 0 61.8337 0.155015 62.1096 0.430944C62.3855 0.706872 62.5406 1.08111 62.5406 1.47133V71.3996C62.5406 71.7898 62.3855 72.1641 62.1096 72.44C61.8337 72.7159 61.4594 72.8709 61.0692 72.8709ZM11.3145 0.0515355C10.9418 0.0522181 10.5846 0.200747 10.3213 0.46452C10.058 0.728294 9.91012 1.08576 9.91012 1.45845V71.3996C9.91012 71.7723 10.058 72.1297 10.3213 72.3935C10.5846 72.6573 10.9418 72.8058 11.3145 72.8065H61.0692C61.4422 72.8058 61.7996 72.6574 62.0633 72.3937C62.327 72.13 62.4755 71.7725 62.4761 71.3996V1.45845C62.4755 1.08552 62.327 0.728063 62.0633 0.464363C61.7996 0.200663 61.4422 0.0522167 61.0692 0.0515355H11.3145Z" fill="#EBEBEB"/>
<path d="M116.808 72.8709H67.0504C66.6604 72.8702 66.2866 72.715 66.0108 72.4392C65.735 72.1635 65.5798 71.7896 65.5791 71.3996V1.45845C65.5832 1.07068 65.7399 0.700127 66.0153 0.427123C66.2907 0.154119 66.6626 0.000656635 67.0504 0H116.808C117.195 0.00134108 117.566 0.155185 117.84 0.428188C118.115 0.701191 118.271 1.07136 118.274 1.45845V71.3996C118.274 71.7889 118.12 72.1624 117.845 72.4382C117.57 72.7139 117.197 72.8696 116.808 72.8709ZM67.0504 0.0515355C66.6775 0.0522167 66.32 0.200663 66.0563 0.464363C65.7926 0.728063 65.6442 1.08552 65.6435 1.45845V71.3996C65.6442 71.7725 65.7926 72.13 66.0563 72.3937C66.32 72.6574 66.6775 72.8058 67.0504 72.8065H116.808C117.181 72.8058 117.538 72.6574 117.802 72.3937C118.066 72.13 118.214 71.7725 118.215 71.3996V1.45845C118.214 1.08552 118.066 0.728063 117.802 0.464363C117.538 0.200663 117.181 0.0522167 116.808 0.0515355H67.0504Z" fill="#EBEBEB"/>
<path d="M69.4385 84.3632H113.38L116.498 7.26123H72.5564L69.4385 84.3632Z" fill="#E6E6E6"/>
<path d="M68.3643 84.3632H112.306L115.424 7.26123H71.4821L68.3643 84.3632Z" fill="#F0F0F0"/>
<path d="M110.201 82.1704L113.143 9.4541H73.5875L70.6475 82.1704H110.201Z" fill="#FAFAFA"/>
<path d="M26.6408 22.2271L28.9393 27.8959C28.8723 44.2867 29.6144 45.2324 29.6196 48.0514H23.8167C23.608 34.3301 25.641 37.4145 26.6408 22.2271Z" fill="#EBEBEB"/>
<path d="M29.8903 38.9655C25.2083 26.1023 14.4529 30.0859 14.945 34.786C15.4372 39.486 32.5675 46.3634 29.8903 38.9655Z" fill="#EBEBEB"/>
<path d="M28.115 46.382C25.564 38.0925 18.7871 39.4453 18.7871 43.2538C18.7871 47.0622 29.5812 51.1515 28.115 46.382Z" fill="#EBEBEB"/>
<path d="M27.9323 31.4213C23.9306 20.3412 13.9636 21.8641 14.7676 26.5409C15.5715 31.2177 30.2333 37.7936 27.9323 31.4213Z" fill="#EBEBEB"/>
<path d="M27.9612 26.4503C28.3323 18.9004 20.8545 15.7928 21.3724 20.3047C21.8903 24.8166 27.7473 30.7922 27.9612 26.4503Z" fill="#EBEBEB"/>
<path d="M27.4013 34.1812C28.9808 24.8791 38.5612 21.3386 37.4919 26.6055C36.4225 31.8724 26.4942 39.5306 27.4013 34.1812Z" fill="#EBEBEB"/>
<path d="M26.5952 28.9214C24.7347 19.1658 33.3411 14.8317 33.5885 19.5343C33.8359 24.2369 27.6645 34.5285 26.5952 28.9214Z" fill="#EBEBEB"/>
<path d="M25.8476 39.9401C29.6509 30.5401 37.7934 32.8721 36.9714 37.1495C36.1495 41.4269 23.6599 45.3513 25.8476 39.9401Z" fill="#EBEBEB"/>
<path d="M27.7256 46.5053C27.6406 40.4396 33.1368 38.8729 33.2089 42.3825C33.2811 45.892 27.772 49.9891 27.7256 46.5053Z" fill="#EBEBEB"/>
<path d="M26.0435 53.8544C24.5987 53.8587 23.1958 53.3688 22.0677 52.4661C20.9395 51.5634 20.1539 50.3021 19.8412 48.8915C19.691 48.1354 19.4745 47.3938 19.1945 46.6755L19.1455 46.5596H32.9364L32.8874 46.6755C32.6073 47.3938 32.3909 48.1354 32.2406 48.8915C31.9285 50.3015 31.1438 51.5624 30.0167 52.4651C28.8895 53.3677 27.4876 53.858 26.0435 53.8544Z" fill="#E0E0E0"/>
<path d="M12.7288 84.3606H18.8486L18.8486 53.844H12.7288L12.7288 84.3606Z" fill="#E6E6E6"/>
<path d="M14.5661 84.3633H12.7314V80.6863H16.4884L14.5661 84.3633Z" fill="#F0F0F0"/>
<path d="M54.679 84.3606H60.7988L60.7988 53.844H54.679V84.3606Z" fill="#E6E6E6"/>
<path d="M12.729 83.137H56.2764L56.2764 53.8443L12.729 53.8443L12.729 83.137Z" fill="#F0F0F0"/>
<path d="M54.4444 84.3633H56.279V80.6863H52.5195L54.4444 84.3633Z" fill="#F0F0F0"/>
<path d="M14.1545 67.627H54.8545V55.9053L14.1545 55.9053V67.627Z" fill="#E6E6E6"/>
<path d="M25.147 59.5492H42.6277C44.4186 59.5492 46.1296 58.1036 47.3613 55.55H20.416C21.6451 58.1036 23.3587 59.5492 25.147 59.5492Z" fill="#F0F0F0"/>
<path d="M14.1545 81.2454H54.8545V69.5237H14.1545V81.2454Z" fill="#E6E6E6"/>
<path d="M25.147 73.1647H42.6277C44.4186 73.1647 46.1296 71.7191 47.3613 69.1655H20.416C21.6451 71.7191 23.3587 73.1647 25.147 73.1647Z" fill="#F0F0F0"/>
<path d="M64.4199 95.9998C92.0125 95.9998 114.381 94.6939 114.381 93.0829C114.381 91.4719 92.0125 90.166 64.4199 90.166C36.8272 90.166 14.459 91.4719 14.459 93.0829C14.459 94.6939 36.8272 95.9998 64.4199 95.9998Z" fill="#F5F5F5"/>
<path d="M104.326 67.1506H37.6494C37.3075 67.1556 36.9683 67.0882 36.6543 66.9528C36.3403 66.8173 36.0585 66.6169 35.8275 66.3647C35.5965 66.1126 35.4215 65.8143 35.3141 65.4896C35.2066 65.165 35.1691 64.8212 35.2041 64.481L39.2084 16.8109C39.2807 16.089 39.6152 15.4187 40.1484 14.9267C40.6817 14.4348 41.3767 14.1554 42.1021 14.1413H108.778C109.12 14.1367 109.459 14.2044 109.773 14.34C110.087 14.4755 110.369 14.6759 110.6 14.9279C110.831 15.18 111.007 15.478 111.115 15.8025C111.222 16.127 111.261 16.4706 111.226 16.8109L107.222 64.481C107.149 65.2029 106.813 65.873 106.28 66.3647C105.746 66.8565 105.051 67.136 104.326 67.1506Z" fill="#407BFF"/>
<path opacity="0.7" d="M104.326 67.1506H37.6494C37.3075 67.1556 36.9683 67.0882 36.6543 66.9528C36.3403 66.8173 36.0585 66.6169 35.8275 66.3647C35.5965 66.1126 35.4215 65.8143 35.3141 65.4896C35.2066 65.165 35.1691 64.8212 35.2041 64.481L39.2084 16.8109C39.2807 16.089 39.6152 15.4187 40.1484 14.9267C40.6817 14.4348 41.3767 14.1554 42.1021 14.1413H108.778C109.12 14.1367 109.459 14.2044 109.773 14.34C110.087 14.4755 110.369 14.6759 110.6 14.9279C110.831 15.18 111.007 15.478 111.115 15.8025C111.222 16.127 111.261 16.4706 111.226 16.8109L107.222 64.481C107.149 65.2029 106.813 65.873 106.28 66.3647C105.746 66.8565 105.051 67.136 104.326 67.1506Z" fill="white"/>
<path d="M37.7369 66.1204C37.5268 66.1241 37.3182 66.0831 37.1251 66.0002C36.932 65.9173 36.7587 65.7943 36.6167 65.6393C36.4747 65.4844 36.3672 65.3011 36.3013 65.1015C36.2355 64.9019 36.2127 64.6906 36.2347 64.4816L40.239 16.8114C40.2831 16.3679 40.4885 15.956 40.8163 15.6539C41.144 15.3518 41.5713 15.1805 42.0169 15.1726H108.691C108.901 15.1689 109.11 15.2099 109.303 15.2928C109.496 15.3757 109.67 15.4987 109.812 15.6536C109.954 15.8084 110.062 15.9917 110.128 16.1913C110.194 16.3909 110.217 16.6022 110.196 16.8114L106.191 64.4816C106.147 64.9251 105.942 65.337 105.614 65.6391C105.286 65.9412 104.859 66.1125 104.413 66.1204H37.7369Z" fill="white"/>
<path d="M43.9619 18.4937H45.3508L45.3199 18.857H44.8561L44.7607 19.9676H44.3046L44.4 18.857H43.9336L43.9619 18.4937Z" fill="#407BFF"/>
<path d="M46.219 19.7253H45.7037L45.6109 19.9676H45.1445L45.8248 18.4937H46.3221L46.7524 19.9676H46.2732L46.219 19.7253ZM46.1495 19.4058L46.0309 18.875L45.8274 19.4058H46.1495Z" fill="#407BFF"/>
<path d="M46.8561 19.4801L47.2915 19.4518C47.2919 19.5088 47.307 19.5647 47.3353 19.6141C47.3575 19.644 47.3868 19.6679 47.4206 19.6836C47.4543 19.6994 47.4914 19.7065 47.5286 19.7043C47.584 19.7078 47.6389 19.6914 47.6832 19.6579C47.7004 19.6457 47.7148 19.6299 47.7254 19.6117C47.7361 19.5935 47.7428 19.5732 47.745 19.5523C47.7473 19.533 47.7448 19.5135 47.7376 19.4955C47.7304 19.4775 47.7188 19.4615 47.7038 19.4492C47.6361 19.4032 47.5583 19.3741 47.4771 19.3642C47.3269 19.339 47.1852 19.277 47.0648 19.1838C47.0261 19.1476 46.9965 19.1029 46.9781 19.0533C46.9598 19.0036 46.9533 18.9504 46.9591 18.8978C46.9678 18.8201 46.9972 18.7463 47.0442 18.6839C47.099 18.6126 47.1719 18.5574 47.2555 18.5241C47.3735 18.4816 47.4986 18.4624 47.6239 18.4674C47.7725 18.4558 47.9209 18.4929 48.0465 18.5731C48.0953 18.6137 48.1339 18.6651 48.1594 18.7233C48.1849 18.7814 48.1965 18.8447 48.1934 18.9081L47.7631 18.9313C47.7622 18.8774 47.741 18.8259 47.7038 18.787C47.6611 18.7545 47.6079 18.7389 47.5544 18.7432C47.5114 18.7401 47.4686 18.7519 47.4333 18.7767C47.4198 18.7856 47.4084 18.7974 47.3999 18.8112C47.3915 18.825 47.3861 18.8404 47.3843 18.8565C47.3838 18.8687 47.3861 18.8809 47.391 18.892C47.3959 18.9032 47.4033 18.9131 47.4126 18.9209C47.4571 18.9513 47.5085 18.9699 47.5621 18.9751C47.706 19.0019 47.8462 19.046 47.9795 19.1065C48.0526 19.1422 48.1135 19.1987 48.1548 19.2688C48.1887 19.3365 48.2021 19.4126 48.1934 19.4878C48.184 19.5813 48.1493 19.6704 48.0929 19.7455C48.0327 19.826 47.9516 19.8884 47.8584 19.9259C47.7435 19.9703 47.6208 19.9913 47.4977 19.9877C47.4065 19.9995 47.3139 19.9927 47.2253 19.968C47.1368 19.9432 47.0542 19.9008 46.9823 19.8434C46.8949 19.7432 46.8497 19.613 46.8561 19.4801Z" fill="#407BFF"/>
<path d="M48.5099 18.4937H48.9582L48.9118 19.0502L49.4272 18.4937H50.0327L49.4736 19.0502L49.958 19.9676H49.3988L49.1412 19.362L48.8835 19.6197L48.8526 19.9779H48.3965L48.5099 18.4937Z" fill="#407BFF"/>
<path d="M50.9088 18.4935H51.6663C51.7312 18.4875 51.7965 18.4948 51.8585 18.5147C51.9205 18.5346 51.9778 18.5668 52.0271 18.6094C52.0669 18.6546 52.0961 18.7082 52.1126 18.7661C52.1291 18.8241 52.1325 18.885 52.1224 18.9444C52.1158 19.0778 52.0576 19.2035 51.9601 19.2948C51.8401 19.3866 51.6908 19.4315 51.5401 19.4211H51.2824L51.236 19.9674H50.7773L50.9088 18.4935ZM51.3133 19.1222H51.4267C51.4928 19.1278 51.5589 19.1115 51.6148 19.0758C51.6332 19.0616 51.6484 19.0437 51.6595 19.0233C51.6706 19.0029 51.6773 18.9804 51.6792 18.9573C51.6824 18.9154 51.6695 18.874 51.6431 18.8413C51.6198 18.8218 51.5926 18.8073 51.5633 18.7989C51.534 18.7905 51.5033 18.7882 51.4731 18.7924H51.3417L51.3133 19.1222Z" fill="#407BFF"/>
<path d="M53.0296 19.7253H52.5142L52.4215 19.9676H51.9551L52.6353 18.4937H53.1327L53.563 19.9676H53.0811L53.0296 19.7253ZM52.96 19.4058L52.8415 18.875L52.6379 19.4058H52.96Z" fill="#407BFF"/>
<path d="M53.8307 18.4937H54.2559L54.7429 19.3079L54.8125 18.4937H55.2428L55.1191 19.9676H54.6888L54.2043 19.1585L54.1348 19.9676H53.707L53.8307 18.4937Z" fill="#407BFF"/>
<path d="M55.5449 18.4937H56.7662L56.7405 18.808H55.9674L55.9468 19.0425H56.658L56.6322 19.344H55.9236L55.8979 19.6352H56.6889L56.6606 19.9676H55.416L55.5449 18.4937Z" fill="#407BFF"/>
<path d="M57.0338 18.4937H57.4899L57.3972 19.6042H58.1084L58.0774 19.9676H56.9102L57.0338 18.4937Z" fill="#407BFF"/>
<path opacity="0.1" d="M65.1917 20.6269H61.3265C61.2246 20.6286 61.1235 20.6086 61.0299 20.5682C60.9363 20.5278 60.8523 20.468 60.7836 20.3927C60.7149 20.3174 60.663 20.2284 60.6313 20.1315C60.5996 20.0346 60.5889 19.932 60.5999 19.8307L60.7133 18.4573C60.7358 18.2425 60.836 18.0434 60.9949 17.8973C61.1538 17.7512 61.3606 17.6681 61.5765 17.6636H65.4416C65.5432 17.6624 65.6439 17.6826 65.7371 17.723C65.8303 17.7633 65.914 17.8229 65.9825 17.8978C66.0511 17.9728 66.1031 18.0613 66.1351 18.1577C66.1672 18.2541 66.1784 18.3562 66.1683 18.4573L66.042 19.841C66.0191 20.0526 65.9203 20.2487 65.764 20.3932C65.6077 20.5377 65.4044 20.6207 65.1917 20.6269Z" fill="#407BFF"/>
<path opacity="0.1" d="M105.743 20.031C106.278 19.5178 106.329 18.7029 105.858 18.2109C105.386 17.7189 104.57 17.7361 104.034 18.2493C103.499 18.7625 103.448 19.5773 103.92 20.0693C104.392 20.5613 105.208 20.5441 105.743 20.031Z" fill="#407BFF"/>
<path opacity="0.1" d="M100.591 20.0315C101.126 19.5183 101.177 18.7034 100.705 18.2114C100.233 17.7194 99.4172 17.7366 98.882 18.2498C98.3469 18.7629 98.2956 19.5778 98.7674 20.0698C99.2392 20.5618 100.055 20.5446 100.591 20.0315Z" fill="#407BFF"/>
<path opacity="0.1" d="M95.4354 20.0327C95.9705 19.5195 96.0218 18.7046 95.55 18.2126C95.0782 17.7206 94.2619 17.7378 93.7268 18.251C93.1916 18.7642 93.1403 19.579 93.6121 20.071C94.0839 20.563 94.9002 20.5459 95.4354 20.0327Z" fill="#407BFF"/>
<path opacity="0.1" d="M61.4482 24.5208H45.1785C44.2045 24.5208 43.3464 25.2551 43.2717 26.1544L39.9219 66.12H59.732L63.0818 26.1544C63.154 25.2526 62.4196 24.5208 61.4482 24.5208Z" fill="#407BFF"/>
<path d="M60.9432 25.5101H45.5161C45.1662 25.5181 44.8312 25.6534 44.5737 25.8905C44.3162 26.1276 44.1538 26.4503 44.117 26.7984L43.3439 36.049C43.3272 36.2134 43.3454 36.3795 43.3975 36.5363C43.4495 36.6931 43.5342 36.8371 43.646 36.9588C43.7577 37.0806 43.8939 37.1772 44.0457 37.2425C44.1975 37.3077 44.3615 37.3401 44.5267 37.3374H59.9512C60.3016 37.331 60.6376 37.1963 60.8954 36.9589C61.1533 36.7215 61.3151 36.3978 61.3504 36.049L62.1234 26.7984C62.1393 26.6344 62.1205 26.4689 62.0683 26.3127C62.0161 26.1564 61.9316 26.0128 61.8203 25.8913C61.709 25.7698 61.5734 25.6731 61.4223 25.6074C61.2712 25.5417 61.108 25.5086 60.9432 25.5101Z" fill="white"/>
<path d="M59.8329 38.7359H44.4058C44.0557 38.7434 43.7203 38.8785 43.4627 39.1157C43.2051 39.3529 43.0429 39.676 43.0066 40.0243L42.2336 49.2749C42.2168 49.4392 42.2351 49.6053 42.2871 49.7621C42.3392 49.9189 42.4239 50.0629 42.5356 50.1847C42.6473 50.3064 42.7836 50.4031 42.9354 50.4683C43.0872 50.5336 43.2511 50.5659 43.4163 50.5632H58.8408C59.1913 50.5568 59.5272 50.4222 59.7851 50.1847C60.0429 49.9473 60.2048 49.6236 60.24 49.2749L61.013 40.0243C61.0289 39.8603 61.0102 39.6948 60.958 39.5385C60.9058 39.3822 60.8213 39.2387 60.71 39.1172C60.5987 38.9957 60.4631 38.8989 60.312 38.8333C60.1609 38.7676 59.9976 38.7344 59.8329 38.7359Z" fill="white"/>
<path d="M58.7218 51.9658H43.2896C42.9393 51.9728 42.6037 52.1077 42.3459 52.345C42.0882 52.5823 41.9262 52.9057 41.8904 53.2542L41.1174 62.5048C41.1006 62.6692 41.1188 62.8352 41.1709 62.9921C41.223 63.1489 41.3076 63.2929 41.4194 63.4146C41.5311 63.5363 41.6674 63.633 41.8192 63.6982C41.971 63.7635 42.1349 63.7959 42.3001 63.7932H57.7195C58.0697 63.7862 58.4054 63.6514 58.6631 63.414C58.9208 63.1767 59.0829 62.8533 59.1186 62.5048L59.8917 53.2542C59.9083 53.0909 59.8904 52.926 59.8391 52.7701C59.7878 52.6141 59.7043 52.4708 59.5939 52.3493C59.4836 52.2277 59.3489 52.1308 59.1987 52.0647C59.0484 51.9987 58.886 51.965 58.7218 51.9658Z" fill="white"/>
<path opacity="0.5" d="M48.3967 30.7044H45.6679C45.5923 30.7055 45.5173 30.6906 45.4478 30.6607C45.3784 30.6308 45.3161 30.5865 45.265 30.5308C45.2139 30.475 45.1751 30.4091 45.1513 30.3373C45.1275 30.2656 45.1191 30.1896 45.1268 30.1143L45.3561 27.3855C45.373 27.226 45.4475 27.078 45.5656 26.9694C45.6837 26.8608 45.8373 26.799 45.9977 26.7955H48.7239C48.7995 26.7944 48.8745 26.8093 48.944 26.8392C49.0134 26.8691 49.0757 26.9134 49.1268 26.9691C49.178 27.0249 49.2167 27.0908 49.2405 27.1625C49.2643 27.2343 49.2727 27.3103 49.2651 27.3855L49.0357 30.1143C49.0194 30.2737 48.9455 30.4216 48.8278 30.5303C48.7101 30.6389 48.5568 30.7009 48.3967 30.7044Z" fill="#407BFF"/>
<path opacity="0.5" d="M60.0515 32.8304H45.1784C45.1428 32.8305 45.1075 32.8232 45.0748 32.809C45.0421 32.7948 45.0127 32.7739 44.9885 32.7478C44.9643 32.7216 44.9458 32.6907 44.9341 32.6571C44.9224 32.6234 44.9179 32.5876 44.9207 32.5521C44.9282 32.4766 44.963 32.4065 45.0185 32.3548C45.074 32.3031 45.1464 32.2734 45.2222 32.2712H60.0953C60.1312 32.2711 60.1667 32.2784 60.1996 32.2928C60.2325 32.3072 60.262 32.3283 60.2862 32.3547C60.3105 32.3812 60.329 32.4124 60.3405 32.4464C60.352 32.4804 60.3562 32.5164 60.353 32.5521C60.3449 32.6271 60.3099 32.6967 60.2545 32.7478C60.199 32.799 60.1269 32.8283 60.0515 32.8304Z" fill="#407BFF"/>
<path opacity="0.2" d="M58.0826 28.4576H51.2413C51.1843 28.4583 51.1278 28.4469 51.0755 28.4242C51.0232 28.4015 50.9763 28.368 50.9379 28.3259C50.8994 28.2838 50.8703 28.2341 50.8524 28.18C50.8346 28.1258 50.8283 28.0685 50.8341 28.0118C50.8467 27.8919 50.9025 27.7807 50.9913 27.6991C51.08 27.6175 51.1955 27.5711 51.316 27.5686H58.1573C58.2141 27.568 58.2703 27.5793 58.3224 27.6019C58.3745 27.6244 58.4213 27.6577 58.4597 27.6995C58.4981 27.7413 58.5272 27.7907 58.5453 27.8445C58.5633 27.8983 58.5699 27.9553 58.5644 28.0118C58.5525 28.1322 58.4969 28.244 58.4081 28.3261C58.3193 28.4083 58.2035 28.4551 58.0826 28.4576Z" fill="#263238"/>
<path opacity="0.2" d="M55.2537 29.932H51.118C51.0612 29.9326 51.005 29.9213 50.9529 29.8987C50.9008 29.8762 50.854 29.8429 50.8156 29.8011C50.7772 29.7593 50.748 29.7099 50.73 29.6561C50.7119 29.6023 50.7054 29.5453 50.7108 29.4888C50.7227 29.3688 50.778 29.2574 50.8662 29.1753C50.9545 29.0932 51.0696 29.0462 51.1901 29.043H55.3284C55.3854 29.0423 55.4419 29.0537 55.4942 29.0764C55.5465 29.0991 55.5934 29.1326 55.6318 29.1747C55.6702 29.2168 55.6994 29.2665 55.7172 29.3207C55.7351 29.3748 55.7413 29.4321 55.7355 29.4888C55.723 29.6087 55.6671 29.7199 55.5784 29.8015C55.4897 29.8831 55.3742 29.9295 55.2537 29.932Z" fill="#263238"/>
<path opacity="0.5" d="M47.2863 43.9337H44.5575C44.4819 43.9348 44.4069 43.9199 44.3375 43.89C44.2681 43.86 44.2057 43.8157 44.1546 43.76C44.1035 43.7043 44.0648 43.6384 44.041 43.5666C44.0171 43.4948 44.0088 43.4188 44.0164 43.3436L44.2457 40.6148C44.2621 40.455 44.3364 40.3068 44.4546 40.198C44.5728 40.0893 44.7268 40.0277 44.8874 40.0247H47.6136C47.6892 40.0236 47.7642 40.0385 47.8336 40.0684C47.9031 40.0984 47.9654 40.1426 48.0165 40.1984C48.0676 40.2541 48.1063 40.32 48.1302 40.3918C48.154 40.4636 48.1623 40.5396 48.1547 40.6148L47.9279 43.3436C47.9116 43.5034 47.8373 43.6516 47.7191 43.7603C47.6009 43.8691 47.4469 43.9307 47.2863 43.9337Z" fill="#407BFF"/>
<path opacity="0.5" d="M58.9407 46.0596H44.0624C44.0266 46.0598 43.991 46.0524 43.9582 46.0381C43.9253 46.0237 43.8958 46.0026 43.8715 45.9762C43.8473 45.9497 43.8288 45.9185 43.8173 45.8845C43.8058 45.8505 43.8015 45.8145 43.8048 45.7788C43.8128 45.7038 43.8478 45.6342 43.9033 45.5831C43.9587 45.5319 44.0308 45.5025 44.1062 45.5005H58.9793C59.015 45.5004 59.0503 45.5077 59.0829 45.5219C59.1156 45.5361 59.145 45.5569 59.1692 45.5831C59.1934 45.6093 59.212 45.6401 59.2236 45.6738C59.2353 45.7075 59.2399 45.7432 59.237 45.7788C59.2296 45.8534 59.1956 45.9229 59.1412 45.9745C59.0868 46.026 59.0156 46.0563 58.9407 46.0596Z" fill="#407BFF"/>
<path opacity="0.2" d="M56.9722 41.6864H50.1283C50.0716 41.6867 50.0154 41.675 49.9634 41.6521C49.9114 41.6293 49.8648 41.5957 49.8267 41.5537C49.7885 41.5116 49.7596 41.462 49.7419 41.4081C49.7242 41.3542 49.718 41.2971 49.7238 41.2406C49.7363 41.1211 49.7918 41.0103 49.88 40.9287C49.9681 40.8472 50.083 40.8005 50.2031 40.7974H57.047C57.1037 40.7968 57.16 40.8081 57.2121 40.8306C57.2641 40.8532 57.3109 40.8864 57.3493 40.9282C57.3877 40.97 57.4169 41.0195 57.4349 41.0733C57.453 41.1271 57.4595 41.1841 57.4541 41.2406C57.4421 41.361 57.3865 41.4728 57.2977 41.5549C57.209 41.637 57.0932 41.6838 56.9722 41.6864Z" fill="#263238"/>
<path opacity="0.2" d="M54.1426 43.1612H50.0043C49.9477 43.1619 49.8915 43.1506 49.8395 43.128C49.7876 43.1054 49.7409 43.0721 49.7027 43.0303C49.6645 42.9884 49.6356 42.939 49.6179 42.8852C49.6001 42.8313 49.594 42.7744 49.5998 42.718C49.6117 42.5981 49.6669 42.4866 49.7552 42.4045C49.8434 42.3225 49.9586 42.2754 50.0791 42.2722H54.2173C54.2743 42.2716 54.3308 42.283 54.3831 42.3057C54.4354 42.3284 54.4823 42.3619 54.5207 42.4039C54.5592 42.446 54.5883 42.4958 54.6062 42.5499C54.624 42.604 54.6303 42.6613 54.6245 42.718C54.6119 42.8379 54.5561 42.9491 54.4673 43.0307C54.3786 43.1123 54.2631 43.1587 54.1426 43.1612Z" fill="#263238"/>
<path d="M53.0816 47.3485H58.4619C58.5462 47.3469 58.6298 47.3633 58.7073 47.3965C58.7848 47.4297 58.8544 47.479 58.9114 47.5412C58.9684 47.6033 59.0116 47.6768 59.038 47.7569C59.0645 47.8369 59.0736 47.9217 59.0648 48.0056L58.9849 48.9667C58.9673 49.145 58.8849 49.3106 58.7534 49.4321C58.6218 49.5537 58.4503 49.6228 58.2712 49.6263H52.8806C52.7962 49.6275 52.7124 49.6108 52.635 49.5773C52.5575 49.5438 52.4879 49.4942 52.431 49.4319C52.374 49.3696 52.3309 49.2959 52.3045 49.2157C52.278 49.1356 52.2689 49.0507 52.2776 48.9667L52.3575 48.0056C52.3759 47.826 52.4601 47.6596 52.5937 47.5384C52.7273 47.4171 52.9011 47.3495 53.0816 47.3485Z" fill="#407BFF"/>
<path d="M53.4908 48.7858H53.1764L53.1197 48.9327H52.8389L53.2512 48.0386H53.5526L53.8103 48.9327H53.5217L53.4908 48.7858ZM53.4496 48.5926L53.38 48.2705L53.2537 48.5926H53.4496Z" fill="white"/>
<path d="M54.5062 48.5664L54.7433 48.6411C54.7229 48.703 54.6915 48.7606 54.6505 48.8112C54.6124 48.8555 54.5649 48.8907 54.5114 48.9143C54.4473 48.9387 54.3789 48.9501 54.3104 48.9478C54.2301 48.9514 54.1501 48.9374 54.0759 48.9066C54.012 48.874 53.9604 48.8216 53.929 48.7571C53.8877 48.6724 53.8725 48.5773 53.8852 48.484C53.8897 48.3554 53.9421 48.2332 54.0321 48.1413C54.1273 48.0582 54.2512 48.0157 54.3774 48.0227C54.4682 48.0176 54.5583 48.041 54.6351 48.0897C54.701 48.1429 54.7457 48.2178 54.7613 48.301L54.5036 48.3551C54.5 48.3344 54.493 48.3144 54.483 48.2959C54.4696 48.2751 54.4509 48.2582 54.4289 48.2469C54.407 48.2343 54.382 48.2281 54.3568 48.2289C54.327 48.2282 54.2976 48.2349 54.271 48.2484C54.2445 48.2619 54.2217 48.2817 54.2047 48.3062C54.171 48.3584 54.1531 48.4192 54.1532 48.4814C54.1388 48.5502 54.1479 48.6219 54.179 48.685C54.1932 48.704 54.212 48.7192 54.2336 48.7291C54.2552 48.739 54.2789 48.7433 54.3027 48.7416C54.3253 48.7427 54.348 48.7391 54.3693 48.7312C54.3905 48.7232 54.4099 48.711 54.4263 48.6953C54.463 48.6594 54.4904 48.6152 54.5062 48.5664Z" fill="white"/>
<path d="M55.4799 48.5664L55.7169 48.6411C55.6966 48.703 55.6651 48.7606 55.6242 48.8112C55.586 48.8555 55.5385 48.8907 55.485 48.9143C55.4209 48.9387 55.3526 48.9501 55.284 48.9478C55.2038 48.9514 55.1237 48.9374 55.0495 48.9066C54.9856 48.874 54.9341 48.8216 54.9027 48.7571C54.8614 48.6724 54.8461 48.5773 54.8589 48.484C54.8633 48.3554 54.9157 48.2332 55.0057 48.1413C55.101 48.0582 55.2249 48.0157 55.351 48.0227C55.4418 48.018 55.5318 48.0414 55.6087 48.0897C55.6738 48.1436 55.7183 48.2182 55.735 48.301L55.4773 48.3551C55.4736 48.3344 55.4667 48.3144 55.4567 48.2959C55.4426 48.2756 55.4241 48.2589 55.4026 48.2469C55.3798 48.234 55.3539 48.2277 55.3278 48.2289C55.2985 48.2284 55.2695 48.2352 55.2434 48.2487C55.2173 48.2622 55.195 48.2819 55.1784 48.3062C55.1448 48.3586 55.126 48.4191 55.1243 48.4814C55.1116 48.5505 55.1215 48.6219 55.1526 48.685C55.1666 48.7042 55.1854 48.7195 55.207 48.7294C55.2287 48.7394 55.2525 48.7436 55.2763 48.7416C55.2986 48.7434 55.3211 48.7406 55.3423 48.7336C55.3636 48.7265 55.3832 48.7152 55.4 48.7004C55.4373 48.6631 55.4648 48.617 55.4799 48.5664Z" fill="white"/>
<path d="M55.9158 48.0386H56.6579L56.6399 48.2293H56.1735L56.1606 48.371H56.5909L56.5755 48.5539H56.1451L56.1297 48.7317H56.609L56.5909 48.9327H55.8359L55.9158 48.0386Z" fill="white"/>
<path d="M56.8045 48.0384H57.2657C57.3052 48.0347 57.3451 48.0392 57.3828 48.0516C57.4204 48.064 57.4552 48.0841 57.4848 48.1105C57.5081 48.1385 57.5252 48.1711 57.5349 48.2062C57.5447 48.2413 57.5469 48.2781 57.5414 48.3141C57.5396 48.3542 57.5298 48.3936 57.5125 48.4299C57.4953 48.4661 57.4709 48.4986 57.4409 48.5254C57.3672 48.5811 57.2754 48.6077 57.1833 48.6001H57.0312L57.0029 48.9325H56.7246L56.8045 48.0384ZM57.0622 48.4197H57.1317C57.1716 48.4225 57.2113 48.4126 57.2451 48.3914C57.2557 48.3833 57.2645 48.3732 57.2711 48.3617C57.2778 48.3502 57.282 48.3375 57.2837 48.3243C57.2854 48.3111 57.2844 48.2977 57.2809 48.2849C57.2774 48.2721 57.2713 48.2601 57.2632 48.2496C57.249 48.2376 57.2326 48.2287 57.2149 48.2234C57.1971 48.2181 57.1785 48.2165 57.1601 48.2187H57.0802L57.0622 48.4197Z" fill="white"/>
<path d="M57.6477 48.0386H58.4928L58.4748 48.2602H58.1939L58.1347 48.9327H57.8564L57.9156 48.2602H57.6348L57.6477 48.0386Z" fill="white"/>
<path opacity="0.5" d="M46.1734 57.1634H43.4472C43.3714 57.1641 43.2964 57.1489 43.227 57.1186C43.1575 57.0884 43.0952 57.0439 43.0442 56.988C42.9931 56.932 42.9544 56.866 42.9306 56.7941C42.9068 56.7222 42.8984 56.6461 42.906 56.5707L43.1354 53.8548C43.1517 53.6954 43.2256 53.5475 43.3433 53.4389C43.461 53.3302 43.6143 53.2683 43.7744 53.2647H46.5032C46.5788 53.2636 46.6538 53.2785 46.7233 53.3084C46.7927 53.3384 46.855 53.3826 46.9061 53.4384C46.9572 53.4941 46.996 53.56 47.0198 53.6318C47.0436 53.7036 47.052 53.7796 47.0443 53.8548L46.815 56.581C46.7959 56.739 46.7205 56.8847 46.6027 56.9917C46.4848 57.0986 46.3325 57.1596 46.1734 57.1634Z" fill="#407BFF"/>
<path opacity="0.25" d="M57.8275 59.2884H42.957C42.9211 59.2885 42.8856 59.2812 42.8527 59.2668C42.8198 59.2525 42.7903 59.2314 42.766 59.2049C42.7418 59.1785 42.7233 59.1473 42.7118 59.1133C42.7003 59.0793 42.6961 59.0433 42.6993 59.0075C42.7074 58.9325 42.7424 58.863 42.7978 58.8118C42.8532 58.7606 42.9254 58.7313 43.0008 58.7292H57.8739C57.9095 58.7291 57.9448 58.7364 57.9775 58.7506C58.0102 58.7648 58.0395 58.7857 58.0638 58.8119C58.088 58.838 58.1065 58.8689 58.1182 58.9026C58.1298 58.9363 58.1344 58.972 58.1315 59.0075C58.124 59.0834 58.0889 59.1539 58.0328 59.2057C57.9768 59.2575 57.9037 59.2869 57.8275 59.2884Z" fill="#407BFF"/>
<path opacity="0.25" d="M54.9492 59.2884H42.957C42.9211 59.2885 42.8856 59.2812 42.8527 59.2668C42.8198 59.2525 42.7903 59.2314 42.766 59.2049C42.7418 59.1785 42.7233 59.1473 42.7118 59.1133C42.7003 59.0793 42.6961 59.0433 42.6993 59.0075C42.7074 58.9325 42.7424 58.863 42.7978 58.8118C42.8532 58.7606 42.9254 58.7313 43.0008 58.7292H54.993C55.0287 58.7291 55.064 58.7364 55.0966 58.7506C55.1293 58.7648 55.1587 58.7857 55.1829 58.8119C55.2072 58.838 55.2257 58.8689 55.2373 58.9026C55.249 58.9363 55.2536 58.972 55.2507 59.0075C55.2432 59.083 55.2085 59.1532 55.153 59.2049C55.0975 59.2566 55.025 59.2863 54.9492 59.2884Z" fill="#407BFF"/>
<path opacity="0.2" d="M55.8619 54.9138H49.018C48.9613 54.9145 48.9052 54.9032 48.8532 54.8806C48.8012 54.858 48.7546 54.8247 48.7164 54.7829C48.6782 54.741 48.6493 54.6916 48.6315 54.6377C48.6138 54.5839 48.6076 54.527 48.6135 54.4706C48.6254 54.3509 48.6807 54.2398 48.769 54.1581C48.8573 54.0765 48.9725 54.03 49.0927 54.0274H55.9366C55.9935 54.0264 56.0499 54.0374 56.1022 54.0598C56.1545 54.0822 56.2014 54.1155 56.2399 54.1574C56.2784 54.1993 56.3076 54.2489 56.3255 54.3029C56.3434 54.3568 56.3496 54.414 56.3437 54.4706C56.3318 54.5907 56.276 54.7022 56.1872 54.7839C56.0984 54.8657 55.9826 54.9119 55.8619 54.9138Z" fill="#263238"/>
<path opacity="0.2" d="M53.0322 56.39H48.894C48.8372 56.3903 48.781 56.3786 48.729 56.3557C48.677 56.3329 48.6304 56.2993 48.5923 56.2573C48.5541 56.2152 48.5252 56.1656 48.5075 56.1117C48.4898 56.0577 48.4836 56.0007 48.4894 55.9442C48.5008 55.8243 48.556 55.7128 48.6444 55.631C48.7328 55.5493 48.8483 55.503 48.9687 55.501H53.107C53.1636 55.5008 53.2197 55.5124 53.2716 55.535C53.3235 55.5577 53.3701 55.591 53.4084 55.6327C53.4467 55.6744 53.4759 55.7236 53.4941 55.7773C53.5123 55.8309 53.5191 55.8878 53.5141 55.9442C53.5022 56.0645 53.4465 56.1764 53.3578 56.2585C53.269 56.3406 53.1532 56.3874 53.0322 56.39Z" fill="#263238"/>
<path opacity="0.1" d="M82.7143 24.5208H66.4318C65.4603 24.5208 64.6023 25.2551 64.5275 26.1544L61.1777 66.12H80.9853L84.3351 26.1544C84.4099 25.2526 83.6755 24.5208 82.7143 24.5208Z" fill="#407BFF"/>
<path d="M82.1991 25.5101H66.772C66.4219 25.5176 66.0866 25.6527 65.8289 25.8899C65.5713 26.1271 65.4091 26.4502 65.3728 26.7985L64.5998 36.0491C64.583 36.2132 64.6012 36.3791 64.6531 36.5357C64.705 36.6923 64.7895 36.8362 64.901 36.9579C65.0124 37.0796 65.1484 37.1763 65.2998 37.2417C65.4513 37.3071 65.6149 37.3397 65.7799 37.3374H81.207C81.5573 37.3305 81.893 37.1956 82.1507 36.9583C82.4084 36.721 82.5704 36.3976 82.6062 36.0491L83.3792 26.7985C83.3956 26.6344 83.3771 26.4687 83.325 26.3123C83.273 26.1558 83.1885 26.0121 83.0771 25.8905C82.9657 25.7689 82.83 25.6722 82.6787 25.6066C82.5274 25.5411 82.364 25.5082 82.1991 25.5101Z" fill="white"/>
<path d="M81.0859 38.736H65.6614C65.3111 38.743 64.9755 38.8778 64.7177 39.1151C64.46 39.3525 64.298 39.6759 64.2622 40.0244L63.4892 49.275C63.4728 49.4393 63.4914 49.6052 63.5436 49.7618C63.5958 49.9184 63.6805 50.0623 63.7921 50.1839C63.9038 50.3055 64.0399 50.4022 64.1915 50.4676C64.3431 50.533 64.5068 50.5656 64.6719 50.5633H80.099C80.4491 50.5558 80.7844 50.4208 81.042 50.1836C81.2997 49.9463 81.4619 49.6233 81.4982 49.275L82.2712 40.0244C82.2876 39.8599 82.269 39.6937 82.2166 39.5369C82.1642 39.3801 82.0793 39.2361 81.9674 39.1145C81.8554 38.9928 81.719 38.8962 81.5671 38.8309C81.4152 38.7657 81.2512 38.7334 81.0859 38.736Z" fill="white"/>
<path d="M79.9746 51.966H64.55C64.1996 51.9724 63.8637 52.1071 63.6058 52.3445C63.348 52.582 63.1861 52.9057 63.1509 53.2544L62.3778 62.505C62.3615 62.6693 62.38 62.8352 62.4322 62.9918C62.4845 63.1484 62.5692 63.2923 62.6808 63.4139C62.7925 63.5355 62.9286 63.6322 63.0802 63.6976C63.2318 63.763 63.3955 63.7956 63.5606 63.7934H78.9877C79.3378 63.7858 79.6731 63.6508 79.9307 63.4136C80.1883 63.1764 80.3505 62.8533 80.3868 62.505L81.1599 53.2544C81.1767 53.0898 81.1583 52.9235 81.1061 52.7665C81.0539 52.6095 80.969 52.4654 80.857 52.3436C80.745 52.2219 80.6084 52.1252 80.4563 52.0601C80.3042 51.9951 80.14 51.963 79.9746 51.966Z" fill="white"/>
<path opacity="0.5" d="M69.65 30.7045H66.9237C66.8481 30.7056 66.7732 30.6907 66.7037 30.6608C66.6343 30.6309 66.5719 30.5866 66.5208 30.5309C66.4697 30.4751 66.431 30.4092 66.4072 30.3374C66.3834 30.2657 66.375 30.1897 66.3826 30.1144L66.612 27.3857C66.6284 27.2261 66.7028 27.0782 66.821 26.9699C66.9393 26.8616 67.0932 26.8005 67.2536 26.7982H69.9824C70.058 26.797 70.133 26.8119 70.2024 26.8419C70.2719 26.8718 70.3342 26.9161 70.3853 26.9718C70.4364 27.0276 70.4751 27.0935 70.4989 27.1652C70.5228 27.237 70.5311 27.313 70.5235 27.3882L70.2942 30.117C70.2766 30.2766 70.2015 30.4242 70.083 30.5324C69.9644 30.6405 69.8104 30.7017 69.65 30.7045Z" fill="#407BFF"/>
<path opacity="0.25" d="M81.3048 32.8304H66.4343C66.3986 32.8305 66.3634 32.8232 66.3307 32.809C66.298 32.7948 66.2686 32.7739 66.2444 32.7478C66.2202 32.7216 66.2016 32.6907 66.19 32.6571C66.1783 32.6234 66.1738 32.5876 66.1766 32.5521C66.1836 32.4764 66.2181 32.4059 66.2737 32.3541C66.3294 32.3023 66.4021 32.2728 66.4781 32.2712H81.3512C81.3871 32.2711 81.4226 32.2784 81.4555 32.2928C81.4883 32.3072 81.5178 32.3283 81.5421 32.3547C81.5664 32.3812 81.5848 32.4124 81.5963 32.4464C81.6078 32.4804 81.6121 32.5164 81.6089 32.5521C81.6007 32.6276 81.5653 32.6974 81.5094 32.7487C81.4534 32.7999 81.3807 32.829 81.3048 32.8304Z" fill="#407BFF"/>
<path opacity="0.25" d="M72.8144 32.8304H66.4343C66.3986 32.8305 66.3634 32.8232 66.3307 32.809C66.298 32.7948 66.2686 32.7739 66.2444 32.7478C66.2202 32.7216 66.2016 32.6907 66.19 32.6571C66.1783 32.6234 66.1738 32.5876 66.1766 32.5521C66.1836 32.4764 66.2181 32.4059 66.2737 32.3541C66.3294 32.3023 66.4021 32.2728 66.4781 32.2712H72.8607C72.8966 32.2711 72.9321 32.2784 72.965 32.2928C72.9979 32.3072 73.0274 32.3283 73.0517 32.3547C73.0759 32.3812 73.0944 32.4124 73.1059 32.4464C73.1174 32.4804 73.1216 32.5164 73.1184 32.5521C73.1103 32.6276 73.0749 32.6974 73.0189 32.7487C72.963 32.7999 72.8902 32.829 72.8144 32.8304Z" fill="#407BFF"/>
<path opacity="0.2" d="M79.3391 28.4576H72.4952C72.4382 28.4583 72.3817 28.4469 72.3294 28.4242C72.2771 28.4015 72.2302 28.368 72.1918 28.3259C72.1533 28.2838 72.1242 28.2341 72.1063 28.18C72.0885 28.1258 72.0822 28.0685 72.088 28.0118C72.1006 27.8919 72.1565 27.7807 72.2452 27.6991C72.3339 27.6175 72.4494 27.5711 72.5699 27.5686H79.4138C79.4704 27.568 79.5266 27.5793 79.5786 27.6019C79.6306 27.6244 79.6772 27.6577 79.7154 27.6996C79.7536 27.7414 79.7825 27.7909 79.8002 27.8447C79.818 27.8985 79.8242 27.9555 79.8183 28.0118C79.8065 28.1318 79.7512 28.2432 79.663 28.3253C79.5747 28.4074 79.4595 28.4544 79.3391 28.4576Z" fill="#263238"/>
<path opacity="0.2" d="M76.5092 29.932H72.3709C72.3141 29.9326 72.2579 29.9212 72.2058 29.8987C72.1537 29.8762 72.1069 29.8429 72.0685 29.8011C72.0301 29.7593 72.001 29.7099 71.9829 29.6561C71.9649 29.6023 71.9583 29.5453 71.9638 29.4888C71.9757 29.3684 72.0313 29.2566 72.1201 29.1744C72.2089 29.0923 72.3247 29.0455 72.4456 29.043H76.5839C76.6407 29.0427 76.6969 29.0543 76.7489 29.0772C76.8009 29.1001 76.8474 29.1336 76.8856 29.1756C76.9238 29.2177 76.9526 29.2673 76.9704 29.3212C76.9881 29.3752 76.9942 29.4323 76.9885 29.4888C76.976 29.6082 76.9205 29.7191 76.8323 29.8006C76.7441 29.8822 76.6293 29.9289 76.5092 29.932Z" fill="#263238"/>
<path opacity="0.5" d="M68.5422 43.9337H65.8134C65.7378 43.9348 65.6628 43.9199 65.5934 43.89C65.5239 43.8601 65.4616 43.8158 65.4105 43.7601C65.3594 43.7043 65.3206 43.6384 65.2968 43.5666C65.273 43.4949 65.2646 43.4189 65.2723 43.3436L65.5016 40.6148C65.5174 40.4553 65.5911 40.3071 65.7089 40.1983C65.8267 40.0895 65.9803 40.0278 66.1406 40.0248H68.8669C68.9426 40.0232 69.0178 40.0379 69.0874 40.0676C69.1571 40.0974 69.2196 40.1417 69.2707 40.1975C69.3219 40.2534 69.3607 40.3195 69.3843 40.3914C69.408 40.4634 69.416 40.5395 69.408 40.6148L69.1812 43.3436C69.1644 43.5028 69.0903 43.6504 68.9727 43.7589C68.8552 43.8675 68.7022 43.9296 68.5422 43.9337Z" fill="#407BFF"/>
<path opacity="0.25" d="M80.1937 46.0596H65.3232C65.2873 46.0598 65.2518 46.0524 65.2189 46.0381C65.186 46.0237 65.1565 46.0026 65.1323 45.9762C65.108 45.9497 65.0895 45.9185 65.078 45.8845C65.0665 45.8505 65.0623 45.8145 65.0655 45.7788C65.0736 45.7033 65.109 45.6335 65.165 45.5822C65.221 45.531 65.2937 45.5019 65.3696 45.5005H80.2401C80.2757 45.5004 80.311 45.5077 80.3437 45.5219C80.3764 45.5361 80.4058 45.5569 80.43 45.5831C80.4542 45.6093 80.4727 45.6401 80.4844 45.6738C80.4961 45.7075 80.5006 45.7432 80.4977 45.7788C80.4902 45.8547 80.4551 45.9252 80.399 45.9769C80.343 46.0287 80.27 46.0581 80.1937 46.0596Z" fill="#407BFF"/>
<path opacity="0.25" d="M66.1168 46.0596H65.3232C65.2873 46.0598 65.2518 46.0524 65.2189 46.0381C65.186 46.0237 65.1565 46.0026 65.1323 45.9762C65.108 45.9497 65.0895 45.9185 65.078 45.8845C65.0665 45.8505 65.0623 45.8145 65.0655 45.7788C65.0736 45.7033 65.109 45.6335 65.165 45.5822C65.221 45.531 65.2937 45.5019 65.3696 45.5005H66.1632C66.1988 45.5004 66.2341 45.5077 66.2668 45.5219C66.2995 45.5361 66.3289 45.5569 66.3531 45.5831C66.3773 45.6093 66.3958 45.6401 66.4075 45.6738C66.4192 45.7075 66.4237 45.7432 66.4209 45.7788C66.4133 45.8547 66.3782 45.9252 66.3222 45.9769C66.2661 46.0287 66.1931 46.0581 66.1168 46.0596Z" fill="#407BFF"/>
<path opacity="0.2" d="M78.2277 41.6864H71.376C71.319 41.687 71.2625 41.6756 71.2103 41.6529C71.158 41.6302 71.1111 41.5968 71.0726 41.5547C71.0342 41.5126 71.0051 41.4628 70.9872 41.4087C70.9693 41.3546 70.9631 41.2973 70.9689 41.2406C70.9814 41.1207 71.0373 41.0095 71.126 40.9279C71.2148 40.8463 71.3302 40.7999 71.4508 40.7974H78.2946C78.3513 40.7967 78.4075 40.8081 78.4594 40.8306C78.5114 40.8532 78.558 40.8865 78.5962 40.9283C78.6344 40.9702 78.6634 41.0196 78.6811 41.0735C78.6988 41.1273 78.705 41.1842 78.6992 41.2406C78.6875 41.3592 78.6334 41.4697 78.5467 41.5516C78.4601 41.6335 78.3468 41.6814 78.2277 41.6864Z" fill="#263238"/>
<path opacity="0.2" d="M75.3988 43.1612H71.2605C71.2038 43.1618 71.1475 43.1505 71.0954 43.128C71.0434 43.1054 70.9966 43.0722 70.9582 43.0304C70.9198 42.9886 70.8906 42.9392 70.8726 42.8854C70.8545 42.8315 70.848 42.7745 70.8534 42.718C70.8654 42.5977 70.921 42.4858 71.0098 42.4037C71.0985 42.3216 71.2143 42.2748 71.3353 42.2722H75.471C75.528 42.2716 75.5845 42.283 75.6368 42.3057C75.689 42.3284 75.7359 42.3619 75.7744 42.4039C75.8128 42.446 75.8419 42.4958 75.8598 42.5499C75.8777 42.604 75.8839 42.6613 75.8781 42.718C75.8656 42.8375 75.8101 42.9483 75.7219 43.0299C75.6337 43.1114 75.5189 43.1581 75.3988 43.1612Z" fill="#263238"/>
<path opacity="0.5" d="M67.4292 57.1629H64.703C64.6273 57.1637 64.5523 57.1484 64.4828 57.1182C64.4134 57.088 64.3511 57.0435 64.3 56.9875C64.249 56.9316 64.2103 56.8655 64.1865 56.7936C64.1627 56.7217 64.1543 56.6456 64.1619 56.5703L64.3912 53.844C64.407 53.6845 64.4808 53.5363 64.5986 53.4275C64.7164 53.3187 64.87 53.257 65.0303 53.254H67.7694C67.845 53.2529 67.92 53.2677 67.9894 53.2977C68.0589 53.3276 68.1212 53.3719 68.1723 53.4276C68.2234 53.4834 68.2621 53.5493 68.286 53.621C68.3098 53.6928 68.3181 53.7688 68.3105 53.844L68.0812 56.5703C68.0652 56.7322 67.9897 56.8825 67.8693 56.992C67.7488 57.1015 67.592 57.1624 67.4292 57.1629Z" fill="#407BFF"/>
<path opacity="0.5" d="M79.0833 59.2884H64.2128C64.1769 59.2885 64.1414 59.2812 64.1086 59.2668C64.0757 59.2525 64.0462 59.2314 64.0219 59.2049C63.9976 59.1785 63.9792 59.1473 63.9677 59.1133C63.9562 59.0793 63.9519 59.0433 63.9551 59.0075C63.9633 58.9321 63.9987 58.8622 64.0546 58.811C64.1106 58.7597 64.1833 58.7307 64.2592 58.7292H79.1297C79.1654 58.7291 79.2006 58.7364 79.2333 58.7506C79.266 58.7648 79.2954 58.7857 79.3196 58.8119C79.3438 58.838 79.3624 58.8689 79.374 58.9026C79.3857 58.9363 79.3902 58.972 79.3874 59.0075C79.3798 59.0834 79.3447 59.1539 79.2887 59.2057C79.2327 59.2575 79.1596 59.2869 79.0833 59.2884Z" fill="#407BFF"/>
<path opacity="0.2" d="M77.1174 54.9138H70.2735C70.2166 54.9148 70.1602 54.9038 70.1079 54.8814C70.0556 54.859 70.0087 54.8257 69.9702 54.7838C69.9317 54.7419 69.9026 54.6924 69.8847 54.6384C69.8668 54.5844 69.8605 54.5272 69.8664 54.4706C69.8784 54.3505 69.9341 54.239 70.0229 54.1573C70.1118 54.0756 70.2275 54.0293 70.3482 54.0274H77.1895C77.2464 54.0264 77.3029 54.0374 77.3552 54.0598C77.4074 54.0822 77.4544 54.1155 77.4929 54.1574C77.5313 54.1993 77.5605 54.2489 77.5784 54.3029C77.5963 54.3568 77.6025 54.414 77.5967 54.4706C77.5847 54.5903 77.5294 54.7015 77.4411 54.7831C77.3528 54.8648 77.2376 54.9113 77.1174 54.9138Z" fill="#263238"/>
<path opacity="0.2" d="M74.2852 56.39H70.1495C70.0925 56.3906 70.036 56.3792 69.9837 56.3566C69.9314 56.3339 69.8845 56.3004 69.8461 56.2583C69.8076 56.2162 69.7785 56.1664 69.7606 56.1123C69.7428 56.0582 69.7365 56.0009 69.7423 55.9442C69.7549 55.8243 69.8107 55.7131 69.8995 55.6315C69.9882 55.5499 70.1037 55.5035 70.2242 55.501H74.3599C74.4167 55.5004 74.4729 55.5117 74.525 55.5342C74.5771 55.5568 74.6239 55.59 74.6623 55.6318C74.7007 55.6736 74.7298 55.7231 74.7479 55.7769C74.7659 55.8307 74.7725 55.8877 74.767 55.9442C74.7551 56.0646 74.6995 56.1764 74.6107 56.2585C74.5219 56.3407 74.4061 56.3874 74.2852 56.39Z" fill="#263238"/>
<path d="M73.2136 60.5772H78.5913C78.6755 60.5761 78.759 60.5927 78.8363 60.6261C78.9136 60.6594 78.9829 60.7087 79.0399 60.7708C79.0968 60.8328 79.14 60.9062 79.1666 60.986C79.1932 61.0659 79.2026 61.1505 79.1943 61.2343L79.1144 62.1954C79.0956 62.373 79.0128 62.5376 78.8815 62.6586C78.7501 62.7795 78.5791 62.8485 78.4006 62.8525H73.0229C72.9387 62.8536 72.8553 62.837 72.778 62.8036C72.7007 62.7703 72.6313 62.721 72.5743 62.6589C72.5174 62.5969 72.4742 62.5235 72.4476 62.4437C72.421 62.3638 72.4116 62.2792 72.4199 62.1954L72.4998 61.2343C72.5186 61.0567 72.6014 60.892 72.7328 60.7711C72.8641 60.6502 73.0351 60.5812 73.2136 60.5772Z" fill="#407BFF"/>
<path d="M73.6359 62.0153H73.3216L73.2649 62.1622H72.9814L73.3963 61.2681H73.6952L73.9529 62.1622H73.6643L73.6359 62.0153ZM73.5947 61.8221L73.5226 61.5L73.3963 61.8221H73.5947Z" fill="white"/>
<path d="M74.6507 61.7964L74.8852 61.8686C74.8674 61.9317 74.8367 61.9905 74.795 62.0412C74.7569 62.0855 74.7094 62.1207 74.6559 62.1443C74.591 62.169 74.5218 62.1804 74.4523 62.1778C74.3721 62.1812 74.2921 62.1671 74.2179 62.1365C74.1545 62.1033 74.1031 62.051 74.071 61.9871C74.0279 61.8851 74.015 61.7728 74.0337 61.6637C74.0525 61.5546 74.102 61.4531 74.1766 61.3712C74.2719 61.2882 74.3958 61.2457 74.5219 61.2527C74.6126 61.2483 74.7025 61.2716 74.7796 61.3197C74.8439 61.3738 74.8875 61.4485 74.9033 61.531L74.6456 61.5851C74.6406 61.5644 74.6328 61.5444 74.6224 61.5258C74.6099 61.5052 74.5921 61.4883 74.5709 61.4769C74.5481 61.464 74.5222 61.4577 74.4961 61.4588C74.467 61.4581 74.4382 61.4645 74.4121 61.4776C74.386 61.4906 74.3636 61.5098 74.3467 61.5336C74.3135 61.5871 74.2949 61.6484 74.2926 61.7114C74.279 61.7805 74.2889 61.8522 74.3209 61.9149C74.3349 61.9336 74.3532 61.9486 74.3744 61.9585C74.3955 61.9683 74.4187 61.9729 74.442 61.9716C74.4648 61.9732 74.4876 61.9698 74.5089 61.9618C74.5302 61.9538 74.5496 61.9413 74.5657 61.9252C74.6051 61.8907 74.6345 61.8462 74.6507 61.7964Z" fill="white"/>
<path d="M75.6234 61.7963L75.8605 61.8685C75.8417 61.9318 75.8101 61.9905 75.7677 62.0411C75.7296 62.0854 75.6821 62.1207 75.6286 62.1442C75.5645 62.1686 75.4961 62.18 75.4276 62.1777C75.3473 62.1814 75.2673 62.1673 75.1931 62.1365C75.1297 62.1032 75.0784 62.051 75.0462 61.987C75.0049 61.9023 74.9897 61.8073 75.0024 61.7139C75.0069 61.5853 75.0593 61.4631 75.1493 61.3712C75.2448 61.2886 75.3685 61.2462 75.4946 61.2526C75.5854 61.2475 75.6755 61.271 75.7522 61.3196C75.8181 61.3728 75.8629 61.4477 75.8785 61.5309L75.6208 61.585C75.6176 61.5642 75.6107 61.5441 75.6002 61.5258C75.5878 61.5051 75.57 61.4882 75.5487 61.4768C75.5258 61.4643 75.5 61.4581 75.474 61.4588C75.4445 61.4583 75.4154 61.4648 75.3889 61.4778C75.3625 61.4908 75.3395 61.5099 75.3219 61.5335C75.2897 61.5873 75.2719 61.6486 75.2704 61.7113C75.2568 61.7804 75.2667 61.8521 75.2987 61.9149C75.3127 61.9336 75.3311 61.9485 75.3522 61.9584C75.3733 61.9683 75.3965 61.9728 75.4198 61.9716C75.4426 61.9731 75.4654 61.9698 75.4867 61.9618C75.508 61.9538 75.5274 61.9413 75.5435 61.9252C75.5825 61.8912 75.6103 61.8463 75.6234 61.7963Z" fill="white"/>
<path d="M76.046 61.2681H76.7881L76.7726 61.4588H76.3062V61.6005H76.7365L76.7211 61.7834H76.2727L76.2573 61.9612H76.734L76.7159 62.1622H75.9609L76.046 61.2681Z" fill="white"/>
<path d="M76.9504 61.2675H77.409C77.4483 61.2641 77.4879 61.2684 77.5255 61.2804C77.5631 61.2923 77.5979 61.3116 77.628 61.3371C77.6513 61.3651 77.6684 61.3977 77.6782 61.4328C77.688 61.4679 77.6902 61.5046 77.6847 61.5406C77.681 61.6219 77.6459 61.6986 77.5868 61.7545C77.5123 61.8088 77.4211 61.8352 77.3291 61.8292H77.1797L77.1513 62.1616H76.873L76.9504 61.2675ZM77.1951 61.6489H77.2621C77.3028 61.6521 77.3435 61.6421 77.3781 61.6205C77.3895 61.6121 77.3989 61.6013 77.4056 61.5888C77.4122 61.5763 77.4161 61.5625 77.4167 61.5484C77.4183 61.5358 77.417 61.523 77.413 61.5109C77.409 61.4989 77.4024 61.4879 77.3936 61.4788C77.3794 61.4668 77.363 61.4578 77.3453 61.4525C77.3275 61.4472 77.3089 61.4456 77.2905 61.4479H77.2106L77.1951 61.6489Z" fill="white"/>
<path d="M77.7899 61.2681H78.6325L78.6144 61.4897H78.3336L78.2743 62.1622H77.9986L78.0579 61.4897H77.7744L77.7899 61.2681Z" fill="white"/>
<path opacity="0.1" d="M103.957 24.521H87.6873C87.2249 24.514 86.7759 24.6762 86.4248 24.977C86.0736 25.2779 85.8445 25.6967 85.7805 26.1546L82.4307 66.1203H102.238L105.588 26.1546C105.665 25.2528 104.931 24.521 103.957 24.521Z" fill="#407BFF"/>
<path d="M103.452 25.5101H88.0279C87.6776 25.5171 87.3419 25.6519 87.0842 25.8893C86.8265 26.1266 86.6645 26.45 86.6287 26.7985L85.8556 36.0491C85.8389 36.2135 85.8571 36.3795 85.9092 36.5363C85.9612 36.6932 86.0459 36.8372 86.1577 36.9589C86.2694 37.0806 86.4057 37.1773 86.5575 37.2425C86.7093 37.3078 86.8732 37.3401 87.0384 37.3375H102.463C102.813 37.3311 103.149 37.1964 103.407 36.959C103.665 36.7215 103.827 36.3978 103.862 36.0491L104.635 26.7985C104.651 26.6342 104.633 26.4683 104.581 26.3117C104.528 26.155 104.444 26.0112 104.332 25.8896C104.22 25.7679 104.084 25.6713 103.933 25.6059C103.781 25.5405 103.617 25.5079 103.452 25.5101Z" fill="white"/>
<path d="M102.341 38.7359H86.9165C86.5662 38.7429 86.2306 38.8777 85.9729 39.1151C85.7152 39.3524 85.5531 39.6758 85.5173 40.0243L84.7443 49.2749C84.7276 49.4393 84.7458 49.6053 84.7979 49.7621C84.8499 49.919 84.9346 50.063 85.0463 50.1847C85.1581 50.3064 85.2943 50.4031 85.4461 50.4683C85.5979 50.5336 85.7618 50.5659 85.9271 50.5633H101.352C101.702 50.5568 102.038 50.4222 102.296 50.1848C102.554 49.9473 102.716 49.6236 102.751 49.2749L103.524 40.0243C103.54 39.8601 103.521 39.6944 103.469 39.5379C103.416 39.3814 103.331 39.2378 103.22 39.1162C103.108 38.9947 102.972 38.898 102.821 38.8325C102.67 38.767 102.506 38.7341 102.341 38.7359Z" fill="white"/>
<path d="M101.231 51.9659H85.8062C85.4561 51.9734 85.1207 52.1084 84.8631 52.3456C84.6055 52.5829 84.4433 52.9059 84.407 53.2543L83.634 62.5048C83.6172 62.6692 83.6355 62.8353 83.6875 62.9921C83.7396 63.1489 83.8243 63.2929 83.936 63.4146C84.0477 63.5364 84.184 63.633 84.3358 63.6983C84.4876 63.7635 84.6515 63.7959 84.8167 63.7932H100.236C100.587 63.7868 100.922 63.6521 101.18 63.4147C101.438 63.1773 101.6 62.8536 101.635 62.5048L102.408 53.2543C102.425 53.0904 102.406 52.9249 102.354 52.7687C102.302 52.6124 102.218 52.4688 102.107 52.3473C101.996 52.2257 101.86 52.1289 101.709 52.0632C101.558 51.9975 101.395 51.9643 101.231 51.9659Z" fill="white"/>
<path opacity="0.5" d="M90.9061 30.7044H88.1799C88.1042 30.7059 88.029 30.6913 87.9593 30.6615C87.8897 30.6317 87.8272 30.5875 87.776 30.5316C87.7248 30.4758 87.6861 30.4097 87.6624 30.3378C87.6388 30.2658 87.6307 30.1897 87.6388 30.1143L87.8655 27.3855C87.8824 27.226 87.9569 27.078 88.075 26.9694C88.1931 26.8608 88.3467 26.799 88.5072 26.7955H91.2334C91.309 26.7944 91.384 26.8093 91.4534 26.8392C91.5228 26.8691 91.5852 26.9134 91.6363 26.9691C91.6874 27.0249 91.7261 27.0908 91.7499 27.1625C91.7738 27.2343 91.7821 27.3103 91.7745 27.3855L91.5452 30.1143C91.5294 30.2739 91.4556 30.4221 91.3378 30.5309C91.22 30.6397 91.0664 30.7014 90.9061 30.7044Z" fill="#407BFF"/>
<path opacity="0.5" d="M102.555 32.8304H87.6872C87.6516 32.8305 87.6163 32.8232 87.5836 32.809C87.5509 32.7948 87.5215 32.7739 87.4973 32.7478C87.4731 32.7216 87.4546 32.6907 87.4429 32.6571C87.4312 32.6234 87.4267 32.5876 87.4295 32.5521C87.4371 32.4762 87.4722 32.4057 87.5282 32.3539C87.5843 32.3022 87.6573 32.2728 87.7336 32.2712H102.607C102.643 32.2711 102.678 32.2784 102.711 32.2928C102.744 32.3072 102.773 32.3283 102.798 32.3547C102.822 32.3812 102.84 32.4124 102.852 32.4464C102.863 32.4804 102.868 32.5164 102.864 32.5521C102.857 32.6286 102.821 32.6996 102.764 32.751C102.706 32.8025 102.632 32.8308 102.555 32.8304Z" fill="#407BFF"/>
<path opacity="0.2" d="M100.591 28.4576H93.7501C93.6931 28.4583 93.6366 28.4469 93.5843 28.4242C93.532 28.4015 93.4851 28.368 93.4467 28.3259C93.4082 28.2838 93.3791 28.2341 93.3612 28.18C93.3434 28.1258 93.3371 28.0685 93.3429 28.0118C93.3555 27.8919 93.4113 27.7807 93.5001 27.6991C93.5888 27.6175 93.7043 27.5711 93.8248 27.5686H100.666C100.723 27.568 100.779 27.5793 100.831 27.6019C100.883 27.6244 100.93 27.6577 100.968 27.6995C101.007 27.7413 101.036 27.7907 101.054 27.8445C101.072 27.8983 101.079 27.9553 101.073 28.0118C101.061 28.1322 101.006 28.244 100.917 28.3261C100.828 28.4083 100.712 28.4551 100.591 28.4576Z" fill="#263238"/>
<path opacity="0.2" d="M97.7623 29.932H93.6394C93.5827 29.9326 93.5264 29.9213 93.4743 29.8987C93.4223 29.8762 93.3755 29.8429 93.3371 29.8011C93.2987 29.7593 93.2695 29.7099 93.2515 29.6561C93.2334 29.6023 93.2269 29.5453 93.2323 29.4888C93.2443 29.3684 93.2999 29.2566 93.3887 29.1745C93.4775 29.0923 93.5933 29.0456 93.7142 29.043H97.8499C97.9069 29.0423 97.9634 29.0537 98.0157 29.0764C98.0679 29.0991 98.1148 29.1326 98.1533 29.1747C98.1917 29.2168 98.2208 29.2665 98.2387 29.3207C98.2566 29.3748 98.2628 29.4321 98.257 29.4888C98.2442 29.6109 98.1865 29.7238 98.0951 29.8057C98.0036 29.8877 97.885 29.9326 97.7623 29.932Z" fill="#263238"/>
<path opacity="0.5" d="M89.7951 43.9337H87.0663C86.9907 43.9348 86.9157 43.9199 86.8463 43.89C86.7768 43.86 86.7145 43.8157 86.6634 43.76C86.6123 43.7043 86.5736 43.6384 86.5497 43.5666C86.5259 43.4948 86.5176 43.4188 86.5252 43.3436L86.7545 40.6148C86.7714 40.4552 86.8459 40.3073 86.964 40.1987C87.0821 40.0901 87.2357 40.0282 87.3962 40.0247H90.1224C90.198 40.0236 90.273 40.0385 90.3424 40.0684C90.4119 40.0984 90.4742 40.1426 90.5253 40.1984C90.5764 40.2541 90.6151 40.32 90.6389 40.3918C90.6628 40.4636 90.6711 40.5396 90.6635 40.6148L90.4445 43.3436C90.4285 43.5049 90.3533 43.6545 90.2333 43.7636C90.1134 43.8726 89.9572 43.9332 89.7951 43.9337Z" fill="#407BFF"/>
<path opacity="0.5" d="M101.45 46.0596H86.579C86.5432 46.0598 86.5076 46.0524 86.4748 46.0381C86.4419 46.0237 86.4124 46.0026 86.3881 45.9762C86.3639 45.9497 86.3454 45.9185 86.3339 45.8845C86.3224 45.8505 86.3181 45.8145 86.3214 45.7788C86.3294 45.7038 86.3644 45.6342 86.4199 45.5831C86.4753 45.5319 86.5474 45.5025 86.6228 45.5005H101.496C101.532 45.5004 101.567 45.5077 101.6 45.5219C101.632 45.5361 101.662 45.5569 101.686 45.5831C101.71 45.6093 101.729 45.6401 101.74 45.6738C101.752 45.7075 101.756 45.7432 101.754 45.7788C101.746 45.8547 101.711 45.9252 101.655 45.9769C101.599 46.0287 101.526 46.0581 101.45 46.0596Z" fill="#407BFF"/>
<path opacity="0.2" d="M99.481 41.6864H92.6397C92.5827 41.687 92.5262 41.6756 92.4739 41.6529C92.4216 41.6302 92.3747 41.5968 92.3363 41.5547C92.2979 41.5126 92.2688 41.4628 92.2509 41.4087C92.233 41.3546 92.2268 41.2973 92.2326 41.2406C92.2451 41.1207 92.301 41.0095 92.3897 40.9279C92.4784 40.8463 92.5939 40.7999 92.7144 40.7974H99.5557C99.6125 40.7968 99.6688 40.8081 99.7208 40.8306C99.7729 40.8532 99.8197 40.8864 99.8581 40.9282C99.8965 40.97 99.9257 41.0195 99.9437 41.0733C99.9618 41.1271 99.9683 41.1841 99.9629 41.2406C99.9509 41.361 99.8953 41.4728 99.8065 41.5549C99.7177 41.637 99.6019 41.6838 99.481 41.6864Z" fill="#263238"/>
<path opacity="0.2" d="M96.6517 43.1612H92.5057C92.4489 43.1618 92.3926 43.1505 92.3406 43.128C92.2885 43.1054 92.2417 43.0722 92.2033 43.0304C92.1649 42.9886 92.1357 42.9392 92.1177 42.8854C92.0996 42.8315 92.0931 42.7745 92.0985 42.718C92.1105 42.5977 92.1661 42.4858 92.2549 42.4037C92.3437 42.3216 92.4595 42.2748 92.5804 42.2722H96.7161C96.7731 42.2716 96.8296 42.283 96.8819 42.3057C96.9342 42.3284 96.9811 42.3619 97.0195 42.4039C97.0579 42.446 97.0871 42.4958 97.1049 42.5499C97.1228 42.604 97.129 42.6613 97.1232 42.718C97.1109 42.8362 97.0565 42.946 96.97 43.0274C96.8834 43.1088 96.7704 43.1563 96.6517 43.1612Z" fill="#263238"/>
<path d="M95.5801 47.3484H100.963C101.047 47.3473 101.131 47.364 101.208 47.3973C101.285 47.4307 101.355 47.48 101.411 47.542C101.468 47.604 101.512 47.6774 101.538 47.7573C101.565 47.8371 101.574 47.9217 101.566 48.0055L101.483 48.9667C101.466 49.1451 101.384 49.311 101.252 49.4327C101.121 49.5544 100.949 49.6233 100.77 49.6263H95.3894C95.305 49.6275 95.2212 49.6108 95.1437 49.5773C95.0662 49.5438 94.9967 49.4942 94.9398 49.4319C94.8828 49.3696 94.8397 49.2959 94.8132 49.2157C94.7868 49.1355 94.7777 49.0506 94.7864 48.9667L94.8663 48.0055C94.885 47.8279 94.9679 47.6633 95.0992 47.5423C95.2306 47.4214 95.4015 47.3525 95.5801 47.3484Z" fill="#407BFF"/>
<path d="M95.9995 48.7858H95.6851L95.6284 48.9327H95.3398L95.7521 48.0386H96.0562L96.3139 48.9327H96.0253L95.9995 48.7858ZM95.9583 48.5926L95.8887 48.2705L95.7624 48.5926H95.9583Z" fill="white"/>
<path d="M97.015 48.5664L97.2521 48.6411C97.2328 48.7034 97.2012 48.7612 97.1593 48.8112C97.1212 48.8555 97.0737 48.8907 97.0202 48.9142C96.9561 48.9387 96.8877 48.95 96.8192 48.9477C96.7389 48.9514 96.6589 48.9373 96.5847 48.9065C96.5208 48.874 96.4692 48.8215 96.4378 48.757C96.3965 48.6723 96.3813 48.5773 96.394 48.4839C96.3985 48.3553 96.4509 48.2331 96.5409 48.1412C96.6364 48.0586 96.7601 48.0162 96.8862 48.0227C96.977 48.0175 97.0671 48.041 97.1438 48.0897C97.2097 48.1428 97.2545 48.2177 97.2701 48.301L97.0124 48.3551C97.0088 48.3343 97.0018 48.3143 96.9918 48.2958C96.9794 48.2751 96.9616 48.2582 96.9403 48.2468C96.9174 48.2343 96.8916 48.2281 96.8656 48.2288C96.8358 48.2284 96.8065 48.2352 96.78 48.2487C96.7535 48.2621 96.7307 48.2818 96.7135 48.3061C96.6809 48.3588 96.6631 48.4194 96.662 48.4813C96.648 48.5504 96.658 48.6223 96.6903 48.6849C96.7038 48.7041 96.7221 48.7195 96.7433 48.7294C96.7646 48.7394 96.7881 48.7436 96.8114 48.7416C96.8342 48.7431 96.857 48.7398 96.8783 48.7318C96.8996 48.7238 96.919 48.7113 96.9351 48.6952C96.9741 48.6612 97.0019 48.6163 97.015 48.5664Z" fill="white"/>
<path d="M97.9896 48.5664L98.2267 48.6411C98.2064 48.703 98.1749 48.7606 98.1339 48.8112C98.0958 48.8555 98.0483 48.8907 97.9948 48.9143C97.9307 48.9387 97.8623 48.9501 97.7938 48.9478C97.7135 48.9514 97.6335 48.9374 97.5593 48.9066C97.4954 48.874 97.4438 48.8216 97.4124 48.7571C97.3711 48.6724 97.3559 48.5773 97.3686 48.484C97.3731 48.3554 97.4255 48.2332 97.5155 48.1413C97.6107 48.0582 97.7346 48.0157 97.8608 48.0227C97.9516 48.0176 98.0417 48.041 98.1185 48.0897C98.1844 48.1429 98.2291 48.2178 98.2447 48.301L97.987 48.3551C97.9834 48.3344 97.9764 48.3144 97.9664 48.2959C97.953 48.2751 97.9343 48.2582 97.9123 48.2469C97.8904 48.2343 97.8654 48.2281 97.8402 48.2289C97.8104 48.2282 97.781 48.2349 97.7544 48.2484C97.7279 48.2619 97.7051 48.2817 97.6881 48.3062C97.6544 48.3584 97.6365 48.4192 97.6366 48.4814C97.6222 48.5502 97.6313 48.6219 97.6624 48.685C97.6766 48.704 97.6953 48.7192 97.717 48.7291C97.7386 48.739 97.7623 48.7433 97.7861 48.7416C97.8096 48.7445 97.8335 48.7423 97.8562 48.7352C97.8789 48.7281 97.8997 48.7162 97.9175 48.7004C97.952 48.6623 97.9768 48.6163 97.9896 48.5664Z" fill="white"/>
<path d="M98.4113 48.0386H99.1534L99.1354 48.2293H98.6715L98.6587 48.371H99.0916L99.0735 48.5539H98.6432L98.6277 48.7317H99.107L99.089 48.9327H98.334L98.4113 48.0386Z" fill="white"/>
<path d="M99.3143 48.0384H99.7755C99.815 48.0347 99.8548 48.0392 99.8925 48.0516C99.9302 48.064 99.9649 48.0841 99.9945 48.1105C100.019 48.1379 100.036 48.1705 100.046 48.2058C100.056 48.241 100.058 48.2781 100.051 48.3141C100.049 48.3542 100.04 48.3936 100.022 48.4299C100.005 48.4661 99.9807 48.4986 99.9507 48.5254C99.8773 48.5818 99.7853 48.6084 99.693 48.6001H99.541L99.5127 48.9325H99.2344L99.3143 48.0384ZM99.5719 48.4197H99.6389C99.6788 48.4229 99.7186 48.413 99.7523 48.3914C99.7629 48.3833 99.7717 48.3732 99.7783 48.3617C99.7849 48.3502 99.7892 48.3375 99.7909 48.3243C99.7926 48.3111 99.7916 48.2977 99.7881 48.2849C99.7846 48.2721 99.7785 48.2601 99.7703 48.2496C99.7562 48.2376 99.7398 48.2287 99.722 48.2234C99.7043 48.2181 99.6857 48.2165 99.6673 48.2187H99.5874L99.5719 48.4197Z" fill="white"/>
<path d="M100.156 48.0386H101.009L100.988 48.2602H100.708L100.648 48.9327H100.373L100.429 48.2602H100.148L100.156 48.0386Z" fill="white"/>
<path opacity="0.5" d="M88.6848 57.1629H85.956C85.8802 57.1637 85.8052 57.1484 85.7357 57.1182C85.6663 57.088 85.604 57.0435 85.5529 56.9875C85.5019 56.9316 85.4632 56.8655 85.4394 56.7936C85.4156 56.7217 85.4072 56.6456 85.4148 56.5703L85.6442 53.844C85.6611 53.6845 85.7355 53.5365 85.8536 53.4279C85.9717 53.3193 86.1254 53.2575 86.2858 53.254H89.012C89.0876 53.2529 89.1626 53.2677 89.232 53.2977C89.3015 53.3276 89.3638 53.3719 89.4149 53.4276C89.466 53.4834 89.5048 53.5493 89.5286 53.621C89.5524 53.6928 89.5608 53.7688 89.5531 53.844L89.3238 56.5703C89.3075 56.7299 89.2337 56.8781 89.1161 56.9872C88.9985 57.0962 88.8451 57.1587 88.6848 57.1629Z" fill="#407BFF"/>
<path opacity="0.25" d="M100.339 59.2884H85.4658C85.4299 59.2885 85.3944 59.2812 85.3615 59.2668C85.3286 59.2525 85.2991 59.2314 85.2748 59.2049C85.2506 59.1785 85.2321 59.1473 85.2206 59.1133C85.2091 59.0793 85.2048 59.0433 85.2081 59.0075C85.2162 58.9325 85.2512 58.863 85.3066 58.8118C85.362 58.7606 85.4341 58.7313 85.5096 58.7292H100.383C100.418 58.7291 100.454 58.7364 100.486 58.7506C100.519 58.7648 100.548 58.7857 100.573 58.8119C100.597 58.838 100.615 58.8689 100.627 58.9026C100.639 58.9363 100.643 58.972 100.64 59.0075C100.633 59.083 100.598 59.1532 100.543 59.2049C100.487 59.2566 100.415 59.2863 100.339 59.2884Z" fill="#407BFF"/>
<path opacity="0.2" d="M98.3707 54.9138H91.5294C91.4725 54.9148 91.416 54.9038 91.3638 54.8814C91.3115 54.859 91.2645 54.8257 91.2261 54.7838C91.1876 54.7419 91.1584 54.6924 91.1405 54.6384C91.1226 54.5844 91.1164 54.5272 91.1222 54.4706C91.1342 54.3509 91.1895 54.2398 91.2778 54.1581C91.3661 54.0765 91.4813 54.03 91.6015 54.0274H98.4454C98.5023 54.0264 98.5587 54.0374 98.611 54.0598C98.6633 54.0822 98.7102 54.1155 98.7487 54.1574C98.7872 54.1993 98.8164 54.2489 98.8343 54.3029C98.8522 54.3568 98.8584 54.414 98.8525 54.4706C98.8405 54.5907 98.7848 54.7022 98.696 54.7839C98.6072 54.8657 98.4914 54.9119 98.3707 54.9138Z" fill="#263238"/>
<path opacity="0.2" d="M95.5408 56.39H91.418C91.361 56.3906 91.3045 56.3792 91.2522 56.3566C91.2 56.3339 91.1531 56.3004 91.1146 56.2583C91.0762 56.2162 91.0471 56.1664 91.0292 56.1123C91.0113 56.0582 91.0051 56.0009 91.0109 55.9442C91.0234 55.8247 91.0789 55.7139 91.1671 55.6323C91.2553 55.5508 91.3701 55.5041 91.4902 55.501H95.6285C95.6852 55.5004 95.7415 55.5117 95.7936 55.5342C95.8457 55.5568 95.8924 55.59 95.9308 55.6318C95.9692 55.6736 95.9984 55.7231 96.0164 55.7769C96.0345 55.8307 96.041 55.8877 96.0356 55.9442C96.0234 56.0667 95.9659 56.1804 95.8744 56.2628C95.783 56.3452 95.664 56.3906 95.5408 56.39Z" fill="#263238"/>
<path d="M29.875 23.0925C29.9007 24.6386 29.9832 27.3545 29.1689 28.3079C31.0399 28.9196 32.718 30.0106 34.0365 31.4722C35.1522 29.6478 33.6989 28.6686 33.6989 28.6686C32.091 28.1533 32.4105 27.1432 32.7429 26.03L29.875 23.0925Z" fill="#B55B52"/>
<path d="M28.4733 31.0832L27.525 32.9076L26.5896 34.7345C26.2856 35.3452 25.9867 35.9533 25.711 36.5537C25.5744 36.8552 25.4533 37.1541 25.3348 37.4427C25.232 37.6874 25.146 37.9388 25.0771 38.1951V37.7854C25.1096 38.157 25.1778 38.5246 25.2806 38.8831C25.3937 39.2806 25.5296 39.6712 25.6878 40.0529C25.8475 40.4472 26.0305 40.8414 26.2263 41.2357C26.4222 41.6299 26.6412 42.0345 26.837 42.403L26.8654 42.4519C26.9497 42.6071 26.9771 42.7869 26.943 42.9602C26.9088 43.1335 26.8151 43.2894 26.6782 43.4009C26.5413 43.5125 26.3697 43.5727 26.1931 43.5711C26.0164 43.5696 25.8459 43.5064 25.711 43.3924C25.3241 43.0689 24.9624 42.7166 24.6287 42.3385C24.2963 41.9626 23.9881 41.5658 23.7062 41.1506C23.4119 40.719 23.1534 40.2639 22.9332 39.7901C22.6929 39.283 22.513 38.7494 22.3972 38.2002C22.378 38.0894 22.378 37.9761 22.3972 37.8653V37.7905C22.4543 37.3609 22.5474 36.9368 22.6755 36.5228C22.7889 36.1491 22.9177 35.7987 23.0492 35.4508C23.3068 34.7603 23.5929 34.098 23.8892 33.4461C24.1855 32.7942 24.4947 32.1577 24.8143 31.5161C25.1338 30.8745 25.4636 30.2587 25.8243 29.6299C26.0234 29.2923 26.3458 29.0452 26.7235 28.9406C27.1012 28.836 27.5047 28.8821 27.8491 29.0692C28.1935 29.2562 28.4519 29.5697 28.5697 29.9434C28.6876 30.3172 28.6558 30.7221 28.481 31.0729L28.4733 31.0832Z" fill="#B55B52"/>
<path d="M27.7578 42.9439L27.4073 42.7223L26.4127 42.0833L25.7041 43.1397C25.9618 44.1704 26.9925 44.6626 26.9925 44.6626L27.3867 44.7528C27.5233 44.7878 27.6681 44.7695 27.7916 44.7015C27.9151 44.6335 28.0081 44.521 28.0515 44.3869L28.1649 44.0828C28.2295 43.8745 28.2247 43.6508 28.1513 43.4455C28.0779 43.2401 27.9398 43.0641 27.7578 42.9439Z" fill="#B55B52"/>
<path d="M47.5496 38.4166L52.2161 35.7342C52.2888 35.6914 52.3697 35.6644 52.4535 35.655C52.5374 35.6457 52.6222 35.6542 52.7026 35.68C52.7829 35.7058 52.8568 35.7483 52.9195 35.8047C52.9823 35.8611 53.0323 35.9302 53.0664 36.0073L53.471 36.8809C53.5445 37.0443 53.5554 37.2291 53.5017 37.4C53.4481 37.571 53.3335 37.7164 53.1798 37.8085L48.5133 40.4883C48.4416 40.5317 48.3616 40.5594 48.2785 40.5699C48.1953 40.5803 48.1109 40.5731 48.0308 40.5488C47.9506 40.5245 47.8764 40.4836 47.8131 40.4288C47.7497 40.374 47.6986 40.3065 47.663 40.2307L47.2584 39.3571C47.1813 39.1922 47.1683 39.0045 47.2222 38.8306C47.276 38.6567 47.3928 38.5091 47.5496 38.4166Z" fill="#407BFF"/>
<path d="M48.6312 39.4528L48.358 39.61L48.3812 39.7672L48.1364 39.9089L48.0488 38.9246L48.3065 38.7751L48.9765 39.4219L48.7188 39.5662L48.6312 39.4528ZM48.4972 39.306L48.2756 39.0637L48.3271 39.4039L48.4972 39.306Z" fill="white"/>
<path d="M49.402 38.7591L49.6442 38.705C49.6557 38.7689 49.6557 38.8344 49.6442 38.8983C49.6323 38.9549 49.6086 39.0085 49.5747 39.0555C49.5316 39.1093 49.4782 39.154 49.4175 39.1869C49.3488 39.23 49.2713 39.2573 49.1907 39.2667C49.1193 39.2705 49.0487 39.2506 48.9897 39.2101C48.9119 39.1578 48.8517 39.0833 48.8171 38.9962C48.7566 38.8823 48.741 38.7499 48.7733 38.6251C48.8168 38.5071 48.9021 38.409 49.0129 38.3494C49.0889 38.2987 49.1794 38.2742 49.2706 38.2798C49.3533 38.2939 49.4288 38.3357 49.4845 38.3984L49.2964 38.571C49.2817 38.5554 49.2653 38.5416 49.2474 38.5298C49.2264 38.5175 49.2021 38.5121 49.1779 38.5143C49.1524 38.5148 49.1276 38.5219 49.1057 38.5349C49.079 38.5485 49.0563 38.5686 49.0396 38.5934C49.0229 38.6182 49.0128 38.6469 49.0104 38.6767C49.0092 38.7387 49.0243 38.8 49.0542 38.8545C49.0762 38.9215 49.1197 38.9794 49.1779 39.0194C49.1996 39.0281 49.2231 39.0314 49.2464 39.0292C49.2697 39.027 49.2922 39.0192 49.3118 39.0065C49.3522 38.9853 49.3827 38.9493 49.3969 38.906C49.4114 38.8583 49.4131 38.8077 49.402 38.7591Z" fill="white"/>
<path d="M50.2476 38.2725L50.4898 38.2184C50.5038 38.282 50.5038 38.348 50.4898 38.4116C50.4801 38.4698 50.4562 38.5247 50.4202 38.5714C50.3772 38.6253 50.3237 38.6699 50.263 38.7028C50.1952 38.7458 50.1186 38.7731 50.0389 38.7827C49.9675 38.7864 49.8968 38.7665 49.8379 38.726C49.7586 38.6736 49.6974 38.598 49.6627 38.5095C49.6022 38.3965 49.5874 38.2646 49.6214 38.1411C49.662 38.0213 49.7481 37.9222 49.8611 37.8653C49.937 37.8144 50.0275 37.7899 50.1187 37.7958C50.2017 37.8092 50.2773 37.8511 50.3326 37.9143L50.1419 38.0869C50.1292 38.0694 50.1124 38.0553 50.093 38.0457C50.0722 38.0329 50.0477 38.0274 50.0234 38.0303C49.998 38.0311 49.9732 38.0382 49.9513 38.0509C49.9252 38.0649 49.9031 38.0852 49.8869 38.11C49.8707 38.1347 49.8609 38.1631 49.8585 38.1926C49.8604 38.2584 49.8763 38.323 49.9051 38.3821C49.934 38.4412 49.9752 38.4934 50.026 38.5353C50.0478 38.5438 50.0712 38.547 50.0945 38.5448C50.1178 38.5426 50.1402 38.5349 50.16 38.5224C50.2003 38.5012 50.2308 38.4652 50.245 38.4219C50.2585 38.3731 50.2594 38.3217 50.2476 38.2725Z" fill="white"/>
<path d="M50.3477 37.6052L50.9918 37.2341L51.0717 37.4093L50.6698 37.6413L50.729 37.7701L51.1027 37.5562L51.18 37.7211L50.8063 37.935L50.881 38.0973L51.2959 37.8577L51.3809 38.0432L50.7264 38.4194L50.3477 37.6052Z" fill="white"/>
<path d="M51.1309 37.154L51.5303 36.9247C51.5627 36.9025 51.5992 36.8869 51.6377 36.8789C51.6762 36.871 51.7159 36.8708 51.7544 36.8783C51.7892 36.8897 51.821 36.9088 51.8473 36.9343C51.8737 36.9597 51.8939 36.9908 51.9065 37.0252C51.925 37.061 51.9362 37.1003 51.9393 37.1406C51.9424 37.1808 51.9374 37.2213 51.9245 37.2596C51.8895 37.3445 51.8243 37.4133 51.7416 37.4529L51.6101 37.5276L51.7519 37.8317L51.5096 37.9708L51.1309 37.154ZM51.5354 37.3627L51.5947 37.3292C51.631 37.3126 51.6608 37.2845 51.6797 37.2493C51.6854 37.2363 51.6883 37.2223 51.6883 37.2081C51.6883 37.1939 51.6854 37.1799 51.6797 37.1669C51.6686 37.1437 51.6493 37.1254 51.6256 37.1153C51.6072 37.1125 51.5883 37.1133 51.5702 37.1177C51.5521 37.1221 51.535 37.1301 51.52 37.1411L51.453 37.1823L51.5354 37.3627Z" fill="white"/>
<path d="M51.8604 36.7341L52.5922 36.3167L52.6849 36.5176L52.4272 36.6568L52.7133 37.2726L52.4736 37.4092L52.1876 36.7959L51.9299 36.9351L51.8604 36.7341Z" fill="white"/>
<path d="M46.0492 38.8391L45.2762 39.1895C45.1246 39.2567 45.0058 39.3811 44.9454 39.5355C44.8851 39.6899 44.8882 39.8619 44.9541 40.0141L45.2298 40.6609C45.2644 40.7384 45.3167 40.8068 45.3825 40.8604C45.4483 40.9141 45.5257 40.9517 45.6086 40.9701C46.2683 41.1066 47.2191 40.7279 47.9019 40.3851C48.0137 40.3305 48.1125 40.2528 48.1918 40.157C48.2712 40.0613 48.3293 39.9497 48.3622 39.8298C48.3951 39.7099 48.4021 39.5843 48.3827 39.4615C48.3633 39.3387 48.318 39.2214 48.2498 39.1174L47.9509 38.6587C47.8241 38.4682 47.6279 38.3346 47.4041 38.2865C47.1803 38.2384 46.9466 38.2795 46.7527 38.401L46.0492 38.8391Z" fill="#B55B52"/>
<path d="M27.1465 28.4322C25.7912 29.0326 24.5517 30.4627 23.5391 33.1064C23.8663 34.1964 27.2161 35.9847 27.2161 35.9847C27.2161 35.9847 31.3956 27.118 27.1465 28.4322Z" fill="#263238"/>
<path d="M38.335 31.8177C38.3221 32.802 39.948 35.0773 38.0773 36.3966C37.915 38.3833 37.6934 40.3391 37.2682 43.5987H27.26C28.2109 39.9912 27.3889 37.5665 25.8634 31.2302C25.7768 30.8894 25.7647 30.5339 25.8281 30.188C25.8914 29.8421 26.0287 29.514 26.2305 29.2261C26.4324 28.9381 26.694 28.6971 26.9975 28.5196C27.3011 28.342 27.6394 28.2321 27.9893 28.1974C28.3861 28.1561 28.8087 28.1226 29.2416 28.102C30.754 27.995 32.272 27.995 33.7844 28.102C34.2766 28.1484 34.7842 28.2102 35.2712 28.2772C36.1226 28.3995 36.9013 28.8249 37.4642 29.4754C38.0271 30.1258 38.3363 30.9575 38.335 31.8177Z" fill="#263238"/>
<path d="M33.8224 27.7907C31.5162 27.2032 26.5766 27.2753 25.6773 27.9685C24.778 28.6616 26.6693 29.8469 26.7776 29.9423C26.1257 30.3056 26.7776 32.1867 29.4858 32.7046C32.1939 33.2225 32.7917 29.8701 33.5751 29.1667C33.9745 28.8085 34.1935 28.2545 33.8224 27.7907Z" fill="#407BFF"/>
<path opacity="0.2" d="M27.1465 29.8617C28.5019 30.0472 31.3981 29.403 32.385 29.1016C31.1224 29.7767 27.8937 31.0058 27.1465 29.8617Z" fill="black"/>
<path d="M38.0248 30.6251C38.164 31.3131 38.3006 32.0346 38.4552 32.7355C38.6098 33.4364 38.7592 34.145 38.9216 34.8381C39.0839 35.5313 39.2643 36.2193 39.4601 36.8789C39.558 37.2087 39.6688 37.5308 39.777 37.8323C39.8743 38.1059 39.9915 38.372 40.1275 38.6285L39.6121 38.1621C39.6121 38.1621 39.6302 38.1621 39.6379 38.1776C39.6456 38.1931 39.7101 38.2059 39.7461 38.224L40.0734 38.3219C40.313 38.3889 40.5887 38.4456 40.8464 38.4997C41.3875 38.6028 41.9518 38.7033 42.5187 38.7909L44.2374 39.0614C44.8095 39.1594 45.3918 39.2444 45.9639 39.3475C46.142 39.3798 46.3027 39.4748 46.4168 39.6154C46.5309 39.756 46.5908 39.9327 46.5859 40.1137C46.5809 40.2947 46.5113 40.4679 46.3896 40.6019C46.2679 40.736 46.1023 40.8221 45.9226 40.8446C45.3222 40.9193 44.7322 40.9579 44.1344 41.0017C43.5365 41.0455 42.9413 41.0559 42.3306 41.061C41.7199 41.0662 41.1247 41.061 40.5037 41.012C40.1919 40.9889 39.8775 40.9631 39.5426 40.9141C39.3725 40.8909 39.1999 40.86 39.0092 40.8162C38.9087 40.7879 38.8211 40.7698 38.7 40.7286C38.6397 40.711 38.5803 40.6904 38.5222 40.6668L38.3109 40.5714C38.1278 40.4855 37.9712 40.352 37.8574 40.1849L37.8058 40.105C37.56 39.729 37.3438 39.3344 37.1591 38.9249C36.9838 38.5461 36.8421 38.1725 36.703 37.804C36.4298 37.0619 36.2031 36.3275 35.9995 35.5905C35.7959 34.8536 35.6156 34.1192 35.4507 33.3822C35.2857 32.6453 35.1414 31.9135 35.0229 31.1456C34.9604 30.7548 35.0535 30.355 35.2824 30.032C35.5113 29.7091 35.8576 29.4887 36.2471 29.4182C36.6366 29.3477 37.0383 29.4328 37.3658 29.655C37.6933 29.8773 37.9207 30.2191 37.9991 30.6071L38.0248 30.6251Z" fill="#B55B52"/>
<path d="M36.1238 28.5041C37.3581 29.1174 38.582 30.3079 39.0897 33.0341C38.7701 34.1138 34.3587 36.1932 34.3587 36.1932C34.3587 36.1932 31.9031 26.9272 36.1238 28.5041Z" fill="#263238"/>
<path d="M35.9491 21.9025C35.9259 22.0984 36.011 22.2736 36.1398 22.2916C36.2686 22.3097 36.3975 22.1705 36.4181 21.9747C36.4387 21.7789 36.3563 21.6036 36.2274 21.583C36.0986 21.5624 35.9749 21.7067 35.9491 21.9025Z" fill="#263238"/>
<path d="M36.1699 21.5855L36.6595 21.5237C36.6595 21.5237 36.3709 21.8535 36.1699 21.5855Z" fill="#263238"/>
<path d="M36.0047 22.116C36.1249 22.5919 36.3086 23.0496 36.551 23.4765C36.4399 23.5321 36.3179 23.5627 36.1938 23.5663C36.0696 23.5699 35.9461 23.5462 35.832 23.4971L36.0047 22.116Z" fill="#A02724"/>
<path d="M36.4073 20.5517C36.4365 20.5511 36.4643 20.5391 36.4846 20.5182C36.506 20.4961 36.518 20.4665 36.518 20.4357C36.518 20.405 36.506 20.3754 36.4846 20.3533C36.3522 20.2188 36.1896 20.1178 36.0104 20.0586C35.8311 19.9995 35.6404 19.9839 35.4539 20.0132C35.4391 20.0165 35.425 20.0227 35.4126 20.0316C35.4003 20.0404 35.3898 20.0517 35.3819 20.0647C35.3739 20.0777 35.3687 20.0921 35.3665 20.1072C35.3642 20.1222 35.365 20.1376 35.3689 20.1523C35.3762 20.1826 35.3952 20.2088 35.4217 20.2252C35.4483 20.2416 35.4802 20.2469 35.5106 20.2399C35.6574 20.2205 35.8067 20.2355 35.9467 20.2838C36.0867 20.3321 36.2135 20.4124 36.3171 20.5182C36.3288 20.5301 36.3429 20.5392 36.3585 20.545C36.3741 20.5508 36.3907 20.5531 36.4073 20.5517Z" fill="#263238"/>
<path d="M29.5014 20.2455C29.3442 22.6753 29.2283 23.6983 30.2744 25.1233C31.8488 27.262 34.8301 27.0043 35.6856 24.6878C36.4587 22.6032 36.5901 18.9803 34.3818 17.6584C33.9067 17.3647 33.3631 17.2004 32.8049 17.1819C32.2467 17.1634 31.6934 17.2913 31.2 17.5529C30.7065 17.8145 30.2901 18.2006 29.9921 18.673C29.6941 19.1453 29.525 19.6875 29.5014 20.2455Z" fill="#B55B52"/>
<path d="M34.2713 22.4382C35.9256 21.794 35.7066 19.9491 34.8485 19.2173C36.526 19.9053 37.6829 19.3693 36.4152 17.5424C35.1474 15.7154 28.2107 15.3315 29.1693 18.1659C26.0772 17.1713 26.9842 21.2864 27.1465 23.9843C24.9099 26.2389 30.4757 28.1947 33.9956 27.0558C37.5154 25.9169 34.2713 22.4382 34.2713 22.4382Z" fill="#263238"/>
<path d="M33.6369 22.0984C33.8302 22.7168 33.8946 22.9822 34.2708 23.2786C34.8325 23.7243 35.4896 23.4847 35.4716 22.8534C35.4561 22.2839 35.1443 21.3692 34.513 21.1656C33.8817 20.962 33.4436 21.48 33.6369 22.0984Z" fill="#B55B52"/>
<path d="M37.2648 43.5986C37.2648 43.5986 37.6179 56.516 38.0894 65.0167C38.5893 72.814 39.2309 91.0549 39.2309 91.0549L37.2623 91.158C37.2623 91.158 32.8998 75.8108 33.0853 66.537C27.9653 53.5656 29.8051 43.9877 29.8051 43.9877L37.2648 43.5986Z" fill="#B55B52"/>
<path d="M39.0844 90.2408C39.1283 90.2092 39.1811 90.1921 39.2352 90.1921C39.2893 90.1921 39.342 90.2092 39.3859 90.2408C40.3317 90.9456 41.4789 91.3277 42.6584 91.3308C43.9674 91.3875 43.6427 92.1038 41.7694 92.3409C39.5689 92.6166 39.0948 93.0675 38.3836 93.2479C37.6724 93.4283 37.0952 92.8846 37.1209 91.3901C37.1223 91.3387 37.139 91.289 37.1689 91.2472C37.1987 91.2055 37.2403 91.1735 37.2884 91.1556C37.9203 90.9208 38.523 90.6138 39.0844 90.2408Z" fill="#263238"/>
<path d="M34.6496 43.5986C34.6496 43.5986 31.0421 58.8866 28.9524 66.001C26.7544 73.4737 25.0151 90.5267 25.0254 91.0936H23.3221C23.3221 91.0936 21.119 77.2718 23.8375 65.9959C24.0952 47.7008 27.2491 43.5986 27.2491 43.5986H34.6496Z" fill="#B55B52"/>
<path d="M25.0723 90.4747C25.1168 90.4558 25.1664 90.4524 25.2131 90.465C25.2598 90.4776 25.301 90.5055 25.33 90.5442C25.7706 91.1137 26.103 91.7476 27.3914 92.3042C28.4659 92.7654 27.8732 93.3941 26.1854 93.1622C24.2039 92.8917 24.1781 93.2138 23.5082 93.2138C22.8382 93.2138 22.5264 92.549 23.0134 91.1034C23.0293 91.0555 23.0578 91.0127 23.0959 90.9796C23.1339 90.9465 23.1802 90.9243 23.2299 90.9153C23.8597 90.8441 24.4784 90.6962 25.0723 90.4747Z" fill="#263238"/>
<path d="M23.2195 62.502C23.0185 64.3907 22.6475 68.4852 22.6475 68.4852C22.6475 68.4852 28.574 69.7014 38.9635 69.0907C38.9094 67.8436 38.8991 66.0399 38.8991 66.0399L23.2195 62.502Z" fill="#263238"/>
<path d="M37.2653 43.5472C38.7054 51.872 39.3637 60.3134 39.2314 68.7608C33.6098 68.7114 28.0041 68.1551 22.4824 67.0988C22.4824 67.0988 22.7865 49.4067 27.2597 43.5498C29.8442 42.9391 37.2061 43.3488 37.2653 43.5472Z" fill="#407BFF"/>
<path opacity="0.2" d="M26.8398 50.5894C29.8469 52.8672 32.1274 53.2975 32.1274 53.2975C32.1274 53.2975 29.6666 54.1685 26.8398 50.5894Z" fill="black"/>
<path d="M94.7886 88.4968H94.7732C94.765 88.4953 94.7572 88.4921 94.7502 88.4875C94.7433 88.4828 94.7373 88.4769 94.7328 88.4699C94.7282 88.4629 94.7251 88.4551 94.7236 88.4468C94.7221 88.4386 94.7223 88.4302 94.7242 88.4221C96.0616 82.1528 95.4354 76.203 92.8664 70.7326C91.2887 67.3313 89.01 64.3018 86.1797 61.8427C86.1735 61.8369 86.1686 61.83 86.1652 61.8222C86.1619 61.8144 86.1602 61.8061 86.1602 61.7976C86.1602 61.7892 86.1619 61.7808 86.1652 61.7731C86.1686 61.7653 86.1735 61.7583 86.1797 61.7525C86.1922 61.7406 86.2088 61.7339 86.2261 61.7339C86.2433 61.7339 86.26 61.7406 86.2724 61.7525C89.1158 64.2207 91.4058 67.2615 92.9927 70.6759C95.5694 76.1695 96.2033 82.1502 94.8608 88.4556C94.8556 88.4698 94.8455 88.4818 94.8323 88.4894C94.8191 88.4969 94.8036 88.4995 94.7886 88.4968Z" fill="#263238"/>
<path d="M97.1983 76.7542C96.7697 77.6806 96.1148 78.4844 95.2941 79.0913C95.1547 78.0762 95.2974 77.0423 95.7064 76.1029C96.1155 75.1635 96.7751 74.3547 97.6131 73.7651C97.7283 74.7805 97.5856 75.8085 97.1983 76.7542Z" fill="#263238"/>
<path d="M91.1961 68.962C92.0333 69.5459 92.7103 70.3309 93.1647 71.245C92.1406 71.2051 91.1472 70.8836 90.2939 70.3158C89.4406 69.748 88.7604 68.9559 88.3281 68.0266C89.3476 68.0918 90.3342 68.4136 91.1961 68.962Z" fill="#263238"/>
<path d="M90.1866 62.577C90.3245 63.5882 90.2058 64.6179 89.8413 65.5712C89.1775 64.7915 88.7406 63.8444 88.5784 62.8334C88.4162 61.8223 88.5348 60.7861 88.9214 59.8379C89.5665 60.6302 90.0016 61.5722 90.1866 62.577Z" fill="#407BFF"/>
<path d="M86.7176 61.7475C86.7287 61.8464 86.7103 61.9463 86.6646 62.0346C86.6189 62.1229 86.5481 62.1957 86.461 62.2438C86.3739 62.2918 86.2746 62.3129 86.1755 62.3045C86.0764 62.296 85.9821 62.2583 85.9044 62.1962C85.8267 62.134 85.7693 62.0503 85.7393 61.9555C85.7092 61.8607 85.708 61.7591 85.7358 61.6636C85.7635 61.5681 85.819 61.483 85.8952 61.419C85.9713 61.3551 86.0647 61.3152 86.1636 61.3043C86.2951 61.2932 86.4259 61.333 86.529 61.4154C86.6321 61.4979 86.6996 61.6168 86.7176 61.7475Z" fill="#407BFF"/>
<path d="M96.3008 87.2162C96.2882 87.2162 96.2759 87.2126 96.2654 87.2057C96.2549 87.1988 96.2466 87.189 96.2416 87.1775C94.0745 82.024 93.639 76.8138 94.9532 71.7015C95.754 68.5294 97.2161 65.5623 99.2435 62.9946C99.2495 62.9883 99.2567 62.9834 99.2647 62.98C99.2726 62.9766 99.2812 62.9749 99.2899 62.9749C99.2985 62.9749 99.3071 62.9766 99.3151 62.98C99.323 62.9834 99.3302 62.9883 99.3363 62.9946C99.3481 63.0066 99.3547 63.0228 99.3547 63.0397C99.3547 63.0565 99.3481 63.0727 99.3363 63.0848C97.3247 65.6363 95.8749 68.5841 95.082 71.735C93.7782 76.8163 94.2085 81.9956 96.3704 87.126C96.3737 87.1339 96.3754 87.1424 96.3754 87.151C96.3754 87.1597 96.3737 87.1682 96.3703 87.1761C96.3669 87.184 96.362 87.1912 96.3559 87.1972C96.3497 87.2032 96.3423 87.2079 96.3343 87.211L96.3008 87.2162Z" fill="#263238"/>
<path d="M93.3533 81.6525C93.761 82.0794 94.2697 82.3966 94.8324 82.5749C94.7195 81.9931 94.4483 81.4536 94.0487 81.0158C93.6491 80.578 93.1366 80.2589 92.5674 80.0935C92.6943 80.6709 92.9646 81.2071 93.3533 81.6525Z" fill="#407BFF"/>
<path d="M95.2267 71.9744C94.8653 72.5303 94.65 73.1684 94.6006 73.8297C95.2065 73.5552 95.7252 73.1194 96.1001 72.57C96.475 72.0205 96.6917 71.3786 96.7264 70.7144C96.1287 71.0018 95.6129 71.4351 95.2267 71.9744Z" fill="#407BFF"/>
<path d="M95.1234 68.1143C95.1708 68.6562 95.3543 69.1774 95.6568 69.6295C95.9107 69.1454 96.0263 68.6007 95.9909 68.0552C95.9554 67.5097 95.7703 66.9845 95.4558 66.5374C95.2132 67.0264 95.0988 67.569 95.1234 68.1143Z" fill="#407BFF"/>
<path d="M98.3551 64.8416C97.9005 65.141 97.5291 65.5505 97.2754 66.0321C97.8209 66.0244 98.3537 65.8667 98.8155 65.5763C99.2773 65.2858 99.6502 64.8739 99.8934 64.3855C99.3503 64.4049 98.821 64.5618 98.3551 64.8416Z" fill="#407BFF"/>
<path d="M98.8596 63.0691C98.866 63.1551 98.8978 63.2373 98.9509 63.3052C99.0041 63.3731 99.0762 63.4237 99.1582 63.4506C99.2401 63.4774 99.3282 63.4794 99.4112 63.4562C99.4943 63.4329 99.5685 63.3855 99.6246 63.32C99.6807 63.2545 99.7161 63.1739 99.7263 63.0882C99.7365 63.0026 99.721 62.9159 99.6818 62.839C99.6427 62.7622 99.5816 62.6987 99.5063 62.6567C99.431 62.6146 99.345 62.5958 99.259 62.6027C99.1443 62.6119 99.0379 62.6661 98.9631 62.7535C98.8883 62.8409 98.8511 62.9544 98.8596 63.0691Z" fill="#407BFF"/>
<path d="M100.437 91.4108L100.194 91.3206C100.357 90.8688 100.437 90.3914 100.431 89.9111H100.689C100.695 90.4221 100.609 90.93 100.437 91.4108Z" fill="#407BFF"/>
<path d="M100.236 88.5633C99.9644 87.6404 99.4265 86.8183 98.6895 86.2004L98.8544 86.002C99.6274 86.6539 100.19 87.52 100.473 88.4911L100.236 88.5633Z" fill="#407BFF"/>
<path d="M97.4017 86.1127L97.9171 83.9714H93.2222L93.7376 86.1127C93.0213 86.456 92.4165 86.9946 91.993 87.6666C91.5695 88.3386 91.3444 89.1166 91.3438 89.9109C91.3438 92.23 93.2325 93.0829 95.5619 93.0829C97.8913 93.0829 99.7801 92.2403 99.7801 89.9109C99.7808 89.1182 99.5581 88.3414 99.1374 87.6696C98.7167 86.9978 98.1151 86.4582 97.4017 86.1127Z" fill="#407BFF"/>
</svg>
